<svg width="32" height="32" viewBox="0 0 32 32" fill="none" xmlns="http://www.w3.org/2000/svg">
<path fill-rule="evenodd" clip-rule="evenodd" d="M16.6029 31.7681C21.6444 27.2086 26.5 15.9436 26.5 10.4129C26.5 4.66202 21.799 0 16 0C10.201 0 5.5 4.66202 5.5 10.4129C5.5 15.9436 10.3556 27.2086 15.3971 31.7681C15.7418 32.0797 16.2582 32.0797 16.6029 31.7681ZM16 17.702C20.0593 17.702 23.35 14.4385 23.35 10.4129C23.35 6.38729 20.0593 3.12387 16 3.12387C11.9407 3.12387 8.65 6.38729 8.65 10.4129C8.65 14.4385 11.9407 17.702 16 17.702Z" fill="#D9D9D9"/>
</svg>
