<svg width="32" height="32" viewBox="0 0 32 32" fill="none" xmlns="http://www.w3.org/2000/svg">
<path fill-rule="evenodd" clip-rule="evenodd" d="M9.57678 3.53816C10.4559 3.08453 11.2139 4.19194 10.7352 5.05771C9.64842 7.02315 9.02915 9.28542 9.02915 11.6923C9.02915 19.2462 15.1287 25.3846 22.671 25.3846C22.9772 25.3846 23.2812 25.3745 23.5826 25.3545C24.5693 25.289 25.2566 26.448 24.4775 27.0571C22.1162 28.903 19.1498 30 15.931 30C8.24526 30 2 23.7401 2 16C2 10.564 5.08039 5.8582 9.57678 3.53816ZM16.2433 1.94215C17.0504 1.40439 16.8995 0 15.931 0C7.13255 0 0 7.16344 0 16C0 24.8366 7.13255 32 15.931 32C21.922 32 27.1405 28.6787 29.8609 23.7695C30.4777 22.6565 28.9099 21.6478 27.7701 22.2064C26.2302 22.9611 24.4999 23.3846 22.671 23.3846C16.2414 23.3846 11.0291 18.1498 11.0291 11.6923C11.0291 7.62114 13.1009 4.03594 16.2433 1.94215Z" fill="white"/>
<path d="M29 13L29.4883 14.3435C29.6857 14.8865 30.1135 15.3143 30.6565 15.5117L32 16L30.6565 16.4883C30.1135 16.6857 29.6857 17.1135 29.4883 17.6565L29 19L28.5117 17.6565C28.3143 17.1135 27.8865 16.6857 27.3435 16.4883L26 16L27.3435 15.5117C27.8865 15.3143 28.3143 14.8865 28.5117 14.3435L29 13Z" fill="white"/>
<path d="M20 7L20.6511 8.79133C20.9143 9.51539 21.4846 10.0857 22.2087 10.3489L24 11L22.2087 11.6511C21.4846 11.9143 20.9143 12.4846 20.6511 13.2087L20 15L19.3489 13.2087C19.0857 12.4846 18.5154 11.9143 17.7913 11.6511L16 11L17.7913 10.3489C18.5154 10.0857 19.0857 9.51539 19.3489 8.79133L20 7Z" fill="white"/>
</svg>
