<svg width="32" height="32" viewBox="0 0 32 32" fill="none" xmlns="http://www.w3.org/2000/svg">
<path fill-rule="evenodd" clip-rule="evenodd" d="M26.7437 3.25384C26.402 2.91539 25.848 2.91539 25.5063 3.25384L13.2563 15.3872C12.9146 15.7256 12.9146 16.2744 13.2563 16.6128L25.5063 28.7462C25.848 29.0846 26.402 29.0846 26.7437 28.7462C27.0854 28.4077 27.0854 27.859 26.7437 27.5205L15.1124 16L26.7437 4.47949C27.0854 4.14104 27.0854 3.5923 26.7437 3.25384Z" fill="white"/>
<path fill-rule="evenodd" clip-rule="evenodd" d="M16.7437 3.25384C16.402 2.91539 15.848 2.91539 15.5063 3.25384L3.25628 15.3872C2.91457 15.7256 2.91457 16.2744 3.25628 16.6128L15.5063 28.7462C15.848 29.0846 16.402 29.0846 16.7437 28.7462C17.0854 28.4077 17.0854 27.859 16.7437 27.5205L5.11244 16L16.7437 4.47949C17.0854 4.14104 17.0854 3.5923 16.7437 3.25384Z" fill="white"/>
</svg>
