<svg width="32" height="32" viewBox="0 0 32 32" fill="none" xmlns="http://www.w3.org/2000/svg">
<path fill-rule="evenodd" clip-rule="evenodd" d="M3.25384 26.7437C2.91539 26.402 2.91539 25.848 3.25384 25.5063L15.3872 13.2563C15.7256 12.9146 16.2744 12.9146 16.6128 13.2563L28.7462 25.5063C29.0846 25.848 29.0846 26.402 28.7462 26.7437C28.4077 27.0854 27.859 27.0854 27.5205 26.7437L16 15.1124L4.47949 26.7437C4.14104 27.0854 3.5923 27.0854 3.25384 26.7437Z" fill="white"/>
<path fill-rule="evenodd" clip-rule="evenodd" d="M3.25384 16.7437C2.91539 16.402 2.91539 15.848 3.25384 15.5063L15.3872 3.25628C15.7256 2.91457 16.2744 2.91457 16.6128 3.25628L28.7462 15.5063C29.0846 15.848 29.0846 16.402 28.7462 16.7437C28.4077 17.0854 27.859 17.0854 27.5205 16.7437L16 5.11244L4.47949 16.7437C4.14104 17.0854 3.5923 17.0854 3.25384 16.7437Z" fill="white"/>
</svg>
