<svg width="32" height="32" viewBox="0 0 32 32" fill="none" xmlns="http://www.w3.org/2000/svg">
<path fill-rule="evenodd" clip-rule="evenodd" d="M0.312419 1.3112C-0.10414 1.72613 -0.10414 2.39887 0.312419 2.8138L15.2458 17.6888C15.6623 18.1037 16.3377 18.1037 16.7542 17.6888L31.6876 2.8138C32.1041 2.39887 32.1041 1.72613 31.6876 1.3112C31.271 0.896267 30.5956 0.896267 30.1791 1.3112L16 15.4349L1.82091 1.3112C1.40435 0.896267 0.728979 0.896267 0.312419 1.3112Z" fill="white"/>
<path fill-rule="evenodd" clip-rule="evenodd" d="M0.312419 14.3112C-0.10414 14.7261 -0.10414 15.3989 0.312419 15.8138L15.2458 30.6888C15.6623 31.1037 16.3377 31.1037 16.7542 30.6888L31.6876 15.8138C32.1041 15.3989 32.1041 14.7261 31.6876 14.3112C31.271 13.8963 30.5956 13.8963 30.1791 14.3112L16 28.4349L1.82091 14.3112C1.40435 13.8963 0.728979 13.8963 0.312419 14.3112Z" fill="white"/>
</svg>
