<svg width="32" height="32" viewBox="0 0 32 32" fill="none" xmlns="http://www.w3.org/2000/svg">
<path fill-rule="evenodd" clip-rule="evenodd" d="M6.26873 25.7313C5.88485 25.3474 5.91597 24.6939 6.33824 24.2716L24.2716 6.33824C24.6939 5.91597 25.3474 5.88485 25.7313 6.26873C26.1152 6.65262 26.084 7.30615 25.6618 7.72842L7.72842 25.6618C7.30615 26.084 6.65262 26.1152 6.26873 25.7313Z" fill="white"/>
<path fill-rule="evenodd" clip-rule="evenodd" d="M25.7313 25.7313C25.3474 26.1152 24.6939 26.084 24.2716 25.6618L6.33824 7.72842C5.91597 7.30615 5.88485 6.65262 6.26873 6.26873C6.65262 5.88485 7.30615 5.91597 7.72842 6.33824L25.6618 24.2716C26.084 24.6939 26.1152 25.3474 25.7313 25.7313Z" fill="white"/>
</svg>
