<svg width="32" height="32" viewBox="0 0 32 32" fill="none" xmlns="http://www.w3.org/2000/svg">
<path fill-rule="evenodd" clip-rule="evenodd" d="M16 11.4286C18.5773 11.4286 20.6667 9.38187 20.6667 6.85714C20.6667 4.33241 18.5773 2.28571 16 2.28571C13.4227 2.28571 11.3333 4.33241 11.3333 6.85714C11.3333 9.38187 13.4227 11.4286 16 11.4286ZM16 13.7143C19.866 13.7143 23 10.6442 23 6.85714C23 3.07005 19.866 0 16 0C12.134 0 9 3.07005 9 6.85714C9 10.6442 12.134 13.7143 16 13.7143Z" fill="white"/>
<path fill-rule="evenodd" clip-rule="evenodd" d="M10.574 17.1242C12.2942 16.382 14.138 16 16 16C17.862 16 19.7058 16.382 21.426 17.1242C23.1463 17.8665 24.7094 18.9544 26.026 20.3258C27.3426 21.6973 28.387 23.3254 29.0996 25.1173C29.4823 26.0796 29.7652 27.0791 29.9452 28.0987C30.3418 30.3456 28.5194 32 26.6342 32H5.36582C3.48062 32 1.65822 30.3456 2.05481 28.0987C2.23477 27.0791 2.51771 26.0796 2.90039 25.1173C3.61295 23.3254 4.65736 21.6973 5.974 20.3258C7.29063 18.9544 8.8537 17.8665 10.574 17.1242ZM16 18.4615C14.4483 18.4615 12.9119 18.7799 11.4783 19.3984C10.0447 20.0169 8.74219 20.9235 7.645 22.0664C6.5478 23.2093 5.67746 24.566 5.08366 26.0593C4.76476 26.8612 4.52897 27.6941 4.37901 28.5438C4.33471 28.7947 4.40548 29.0175 4.57224 29.2013C4.74887 29.396 5.03271 29.5385 5.36582 29.5385H26.6342C26.9673 29.5385 27.2511 29.396 27.4278 29.2013C27.5945 29.0175 27.6653 28.7947 27.621 28.5438C27.471 27.6941 27.2352 26.8612 26.9163 26.0593C26.3225 24.566 25.4522 23.2093 24.355 22.0664C23.2578 20.9235 21.9552 20.0169 20.5217 19.3984C19.0881 18.7799 17.5517 18.4615 16 18.4615Z" fill="white"/>
</svg>
