<svg width="32" height="32" viewBox="0 0 32 32" fill="none" xmlns="http://www.w3.org/2000/svg">
<path fill-rule="evenodd" clip-rule="evenodd" d="M3 6C2.44772 6 2 6.44772 2 7V8.32909C2 8.77028 2.28913 9.15933 2.71156 9.28659L16 13.2896L29.2884 9.28659C29.7109 9.15933 30 8.77028 30 8.32909V7C30 6.44772 29.5523 6 29 6H3ZM31.5062 10.5072C31.8121 10.3277 32 9.99952 32 9.64481V5C32 4.44772 31.5523 4 31 4H1C0.447715 4 0 4.44772 0 5V9.64481C0 9.99952 0.187896 10.3277 0.493798 10.5072L15.4938 15.3116C15.7864 15.4005 16.1612 15.4016 16.5062 15.3116L31.5062 10.5072ZM31.0405 12.0996C30.8513 12.0914 30.6551 12.1376 30.4733 12.2502L16.5267 16.8911C16.2146 16.9771 15.8124 16.9806 15.4733 16.8911L1.52667 12.2502C1.34493 12.1376 1.14873 12.0914 0.959478 12.0996C0.455031 12.1216 0 12.5304 0 13.1003V27C0 27.5523 0.447715 28 1 28H31C31.5523 28 32 27.5523 32 27V13.1003C32 12.5304 31.545 12.1216 31.0405 12.0996ZM3.28515 15.2786C2.64402 15.0878 2 15.5681 2 16.2371V25C2 25.5523 2.44771 26 3 26H29C29.5523 26 30 25.5523 30 25V16.2371C30 15.5681 29.356 15.0878 28.7148 15.2786L17.58 18.5912C16.6042 18.9251 15.3957 18.923 14.42 18.5912L3.28515 15.2786Z" fill="white"/>
</svg>
