<svg width="32" height="32" viewBox="0 0 32 32" fill="none" xmlns="http://www.w3.org/2000/svg">
<path fill-rule="evenodd" clip-rule="evenodd" d="M15.2563 3.25384C15.598 2.91539 16.152 2.91539 16.4937 3.25384L28.7437 15.3872C29.0854 15.7256 29.0854 16.2744 28.7437 16.6128L16.4937 28.7462C16.152 29.0846 15.598 29.0846 15.2563 28.7462C14.9146 28.4077 14.9146 27.859 15.2563 27.5205L26.8876 16L15.2563 4.47949C14.9146 4.14104 14.9146 3.5923 15.2563 3.25384Z" fill="white"/>
<path fill-rule="evenodd" clip-rule="evenodd" d="M5.25628 3.25384C5.59799 2.91539 6.15201 2.91539 6.49372 3.25384L18.7437 15.3872C19.0854 15.7256 19.0854 16.2744 18.7437 16.6128L6.49372 28.7462C6.15201 29.0846 5.59799 29.0846 5.25628 28.7462C4.91457 28.4077 4.91457 27.859 5.25628 27.5205L16.8876 16L5.25628 4.47949C4.91457 4.14104 4.91457 3.5923 5.25628 3.25384Z" fill="white"/>
</svg>
