<svg width="32" height="32" viewBox="0 0 32 32" fill="none" xmlns="http://www.w3.org/2000/svg">
<path fill-rule="evenodd" clip-rule="evenodd" d="M3.25384 5.25628C2.91539 5.59799 2.91539 6.15201 3.25384 6.49372L15.3872 18.7437C15.7256 19.0854 16.2744 19.0854 16.6128 18.7437L28.7462 6.49372C29.0846 6.15201 29.0846 5.59799 28.7462 5.25628C28.4077 4.91457 27.859 4.91457 27.5205 5.25628L16 16.8876L4.47949 5.25628C4.14104 4.91457 3.5923 4.91457 3.25384 5.25628Z" fill="white"/>
<path fill-rule="evenodd" clip-rule="evenodd" d="M3.25384 15.2563C2.91539 15.598 2.91539 16.152 3.25384 16.4937L15.3872 28.7437C15.7256 29.0854 16.2744 29.0854 16.6128 28.7437L28.7462 16.4937C29.0846 16.152 29.0846 15.598 28.7462 15.2563C28.4077 14.9146 27.859 14.9146 27.5205 15.2563L16 26.8876L4.47949 15.2563C4.14104 14.9146 3.5923 14.9146 3.25384 15.2563Z" fill="white"/>
</svg>
