<svg width="32" height="32" viewBox="0 0 32 32" fill="none" xmlns="http://www.w3.org/2000/svg">
<path fill-rule="evenodd" clip-rule="evenodd" d="M16 12C18.2091 12 20 10.2091 20 8C20 5.79086 18.2091 4 16 4C13.7909 4 12 5.79086 12 8C12 10.2091 13.7909 12 16 12ZM16 14C19.3137 14 22 11.3137 22 8C22 4.68629 19.3137 2 16 2C12.6863 2 10 4.68629 10 8C10 11.3137 12.6863 14 16 14Z" fill="white"/>
<path fill-rule="evenodd" clip-rule="evenodd" d="M11.3491 16.9837C12.8236 16.3343 14.404 16 16 16C17.596 16 19.1764 16.3343 20.6509 16.9837C22.1254 17.6332 23.4652 18.5851 24.5937 19.7851C25.7223 20.9851 26.6175 22.4097 27.2282 23.9776C27.5562 24.8197 27.7988 25.6942 27.953 26.5863C28.293 28.5524 26.7309 30 25.115 30H6.88499C5.2691 30 3.70704 28.5524 4.04698 26.5863C4.20123 25.6942 4.44375 24.8197 4.77177 23.9776C5.38253 22.4097 6.27774 20.9851 7.40628 19.7851C8.53482 18.5851 9.8746 17.6332 11.3491 16.9837ZM16 18.1538C14.67 18.1538 13.353 18.4324 12.1243 18.9736C10.8955 19.5148 9.77902 20.3081 8.83857 21.3081C7.89812 22.3081 7.15211 23.4953 6.64314 24.8019C6.36979 25.5036 6.16769 26.2323 6.03915 26.9758C6.00118 27.1954 6.06184 27.3903 6.20478 27.5511C6.35617 27.7215 6.59947 27.8462 6.88499 27.8462H25.115C25.4005 27.8462 25.6438 27.7215 25.7952 27.5511C25.9382 27.3903 25.9988 27.1954 25.9608 26.9758C25.8323 26.2323 25.6302 25.5036 25.3569 24.8019C24.8479 23.4953 24.1019 22.3081 23.1614 21.3081C22.221 20.3081 21.1045 19.5148 19.8757 18.9736C18.647 18.4324 17.33 18.1538 16 18.1538Z" fill="white"/>
</svg>
