<svg width="33" height="32" viewBox="0 0 33 32" fill="none" xmlns="http://www.w3.org/2000/svg">
<path fill-rule="evenodd" clip-rule="evenodd" d="M9.35239 3.17863C7.70019 2.57064 5.77473 3.3754 5.15758 4.97564C4.95706 5.4956 4.47812 5.98304 4.013 6.11196C2.35128 6.57253 0.944908 8.0761 0.353922 9.89343C-0.245007 11.7352 -0.0243773 13.9455 1.62394 15.8292C1.80579 16.0371 2.12167 16.0581 2.32948 15.8763C2.5373 15.6944 2.55835 15.3785 2.3765 15.1707C0.981033 13.576 0.804756 11.7407 1.3049 10.2027C1.81299 8.64026 3.00168 7.42996 4.2801 7.07563C5.11859 6.84323 5.80437 6.07766 6.0906 5.33547C6.52978 4.19669 8.04627 3.59828 9.26982 4.2331C9.75725 4.48599 10.219 4.94703 10.5404 5.69694C10.6492 5.95076 10.9431 6.06834 11.1969 5.95957C11.4507 5.85079 11.5683 5.55686 11.4595 5.30304C11.1567 4.59651 10.7357 4.05609 10.2434 3.67417C11.5384 2.17254 12.8814 1.34241 14.2212 1.11789C15.6715 0.874837 17.2181 1.32504 18.829 2.59518C19.1656 2.86056 19.6002 2.98494 20.0337 2.92245C21.0653 2.77375 21.8122 2.76803 22.4914 2.96503C23.1665 3.16084 23.8288 3.57315 24.6548 4.36165C24.8546 4.55233 25.1711 4.54498 25.3618 4.34523C25.5524 4.14549 25.5451 3.82899 25.3453 3.63832C24.4544 2.78786 23.6556 2.2615 22.77 2.00461C21.8884 1.7489 20.9748 1.77646 19.891 1.93268C19.7379 1.95474 19.577 1.91147 19.4482 1.80992C17.6801 0.415828 15.8559 -0.170016 14.0559 0.131646C12.3637 0.415225 10.783 1.46838 9.35239 3.17863ZM18.5069 6.58219C18.0665 3.93989 15.4904 3.13225 13.8001 4.39999C13.5792 4.56567 13.2658 4.5209 13.1001 4.29999C12.9344 4.07908 12.9792 3.76568 13.2001 3.59999C15.5098 1.86772 18.9337 3.06009 19.4933 6.41779C19.5387 6.69017 19.3547 6.94779 19.0823 6.99319C18.8099 7.03858 18.5523 6.85457 18.5069 6.58219ZM25.7189 5.08657C25.9472 4.93126 26.2582 4.99046 26.4135 5.21879C26.7312 5.6859 26.9563 6.10173 27.0863 6.5757C27.1803 6.91861 27.2194 7.27357 27.2223 7.67671C28.7958 7.93227 30.1058 9.19149 30.0464 11.052C30.0398 11.2579 30.0937 11.4278 30.1864 11.541C30.9757 12.5053 31.5372 13.3737 31.844 14.2691C32.1552 15.1774 32.1937 16.0815 31.9904 17.0981C31.2885 20.6075 28.2077 22.5 25.5001 22.5C24.2503 22.5 23.1939 21.9574 22.1087 21.1166C22.036 21.5407 21.9127 21.9693 21.7103 22.4124C21.3562 23.1875 20.774 23.976 19.8533 24.8541C19.7094 25.0046 19.6376 25.0972 19.592 25.1837C19.5516 25.2604 19.5191 25.3569 19.5001 25.5264V28.4755C19.5001 28.9794 19.244 29.4132 18.8949 29.6987C18.6983 29.8596 18.5854 29.9907 18.4758 30.1754C18.4665 30.1909 18.456 30.2133 18.4453 30.2454L18.2024 30.9743C17.9982 31.5869 17.425 32 16.7793 32H15.2208C14.5752 32 14.002 31.5869 13.7978 30.9743L13.5787 30.3171C13.5602 30.2616 13.5356 30.2173 13.5083 30.1837C13.3665 30.0091 13.2276 29.8643 13.0188 29.6766C12.7017 29.3915 12.5001 28.9818 12.5001 28.5338V25.4916L12.5004 25.4832C12.5041 25.3717 12.4922 25.3198 12.4633 25.2601C12.4256 25.1821 12.3453 25.0667 12.1561 24.8642C10.4977 23.4723 9.68043 21.7613 9.61104 20.1096C9.08892 19.9582 8.63049 19.7796 8.23422 19.4669C7.73773 19.0751 7.39009 18.5163 7.06087 17.6942C6.96344 17.4509 6.72978 17.3099 6.49394 17.3319C5.41281 17.4325 4.45657 17.437 3.30889 16.962C3.05374 16.8564 2.93249 16.564 3.03809 16.3088C3.14368 16.0536 3.43613 15.9324 3.69129 16.038C4.62017 16.4224 5.3869 16.4306 6.40126 16.3362C7.1029 16.2709 7.7366 16.6917 7.9892 17.3225C8.29001 18.0736 8.55535 18.4464 8.85372 18.6819C9.06301 18.8471 9.31301 18.9653 9.66563 19.0801C9.83196 17.9726 10.3433 16.9497 11.1465 16.1464C11.3418 15.9512 11.6584 15.9512 11.8536 16.1464C12.0489 16.3417 12.0489 16.6583 11.8536 16.8535C11.081 17.6262 10.6419 18.6478 10.6083 19.7429C10.5642 21.1791 11.2189 22.7814 12.8202 24.1159L12.8433 24.1351L12.8639 24.157C13.0845 24.391 13.2557 24.6019 13.3634 24.8244C13.3923 24.8841 13.4156 24.9425 13.4344 25H14.5001V20H15.5001V25H16.5001V20H17.5001V25H18.5901C18.6206 24.9026 18.659 24.8091 18.7073 24.7175C18.8209 24.502 18.9741 24.3259 19.1394 24.1538L19.1471 24.1457L19.1553 24.1379C20.0182 23.3162 20.5132 22.6262 20.8007 21.9968C21.0861 21.3722 21.1812 20.7767 21.2003 20.1171C21.2059 19.9218 21.2049 19.721 21.2002 19.5112C21.1289 16.3353 18.5775 14.5254 15.9952 14.5C14.6816 14.487 13.7429 14.9643 13.3536 15.3535C13.1584 15.5488 12.8418 15.5488 12.6465 15.3535C12.4513 15.1583 12.4513 14.8417 12.6465 14.6464C13.2573 14.0357 14.471 13.4849 16.005 13.5C19.0135 13.5296 22.1141 15.6665 22.2 19.4888C22.2031 19.628 22.2048 19.7667 22.204 19.9051C23.4485 20.9603 24.4089 21.5 25.5001 21.5C27.7925 21.5 30.413 19.8862 31.0098 16.9019C31.1831 16.0353 31.1446 15.3129 30.898 14.5933C30.647 13.8607 30.1698 13.0996 29.4125 12.1743C29.1309 11.8303 29.0346 11.4047 29.0469 11.0201C29.0921 9.60525 28.0171 8.66463 26.6986 8.62966C26.0903 8.61354 25.4317 8.79469 24.8257 9.23057C25.2059 9.93813 25.3136 10.8126 24.9643 11.6857C24.8618 11.9421 24.5708 12.0668 24.3144 11.9642C24.058 11.8617 23.9333 11.5707 24.0358 11.3143C24.3106 10.6274 24.1601 9.94264 23.7669 9.4281C23.3927 8.93859 22.8184 8.62983 22.2275 8.629C21.6571 8.62819 20.991 8.91508 20.4161 9.77735C20.2629 10.0071 19.9525 10.0692 19.7227 9.91602C19.493 9.76285 19.4309 9.45241 19.5841 9.22265C20.3142 8.12744 21.2723 7.62765 22.2289 7.629C22.9844 7.63007 23.6873 7.94448 24.215 8.43824C24.8461 7.97724 25.5388 7.72148 26.222 7.64978C26.2176 7.32417 26.1849 7.07016 26.1219 6.8401C26.0326 6.51465 25.8731 6.20239 25.5867 5.7812C25.4314 5.55287 25.4906 5.24187 25.7189 5.08657ZM18.5001 26H13.5001V27H18.5001V26ZM18.5001 28H13.5001V28.5338C13.5001 28.6769 13.5649 28.8228 13.6873 28.9329C13.7126 28.9556 13.7372 28.9779 13.7611 29H18.1725C18.2013 28.9749 18.231 28.9499 18.2618 28.9247C18.4212 28.7943 18.5001 28.6285 18.5001 28.4755V28ZM17.473 30H14.5271C14.5272 30.0003 14.527 29.9997 14.5271 30L14.7465 30.6581C14.8146 30.8623 15.0056 31 15.2208 31H16.7793C16.9945 31 17.1856 30.8623 17.2537 30.6581L17.473 30ZM2.68815 11.5387C2.76229 9.98177 3.96155 8.49999 6.00009 8.49999C6.27623 8.49999 6.50009 8.72385 6.50009 8.99999C6.50009 9.27613 6.27623 9.49999 6.00009 9.49999C4.53862 9.49999 3.73788 10.5182 3.68702 11.5863C3.66142 12.1239 3.82769 12.6688 4.20042 13.1047C4.57015 13.5371 5.16916 13.8922 6.06211 14.0038C6.33612 14.0381 6.53048 14.288 6.49623 14.562C6.46198 14.836 6.21208 15.0304 5.93807 14.9961C4.83101 14.8577 3.99252 14.4003 3.44038 13.7546C2.89123 13.1124 2.65126 12.3135 2.68815 11.5387ZM16.0001 8.49999C16.2762 8.49999 16.5001 8.72385 16.5001 8.99999V11.5C16.5001 11.7761 16.2762 12 16.0001 12C15.7239 12 15.5001 11.7761 15.5001 11.5V8.99999C15.5001 8.72385 15.7239 8.49999 16.0001 8.49999ZM23.8536 12.1464C24.0489 12.3417 24.0489 12.6583 23.8536 12.8535L22.3536 14.3535C22.1584 14.5488 21.8418 14.5488 21.6465 14.3535C21.4513 14.1583 21.4513 13.8417 21.6465 13.6464L23.1465 12.1464C23.3418 11.9512 23.6584 11.9512 23.8536 12.1464ZM8.14653 12.1464C8.3418 11.9512 8.65838 11.9512 8.85364 12.1464L10.3536 13.6464C10.5489 13.8417 10.5489 14.1583 10.3536 14.3535C10.1584 14.5488 9.8418 14.5488 9.64654 14.3535L8.14654 12.8536C7.95127 12.6583 7.95127 12.3417 8.14653 12.1464ZM27.6465 13.6464C27.8418 13.4512 28.1584 13.4512 28.3536 13.6464C28.9686 14.2614 29.2501 15.1508 29.2501 16C29.2501 16.8492 28.9686 17.7386 28.3536 18.3535C28.1584 18.5488 27.8418 18.5488 27.6465 18.3535C27.4513 18.1583 27.4513 17.8417 27.6465 17.6464C28.0315 17.2614 28.2501 16.6508 28.2501 16C28.2501 15.3492 28.0315 14.7386 27.6465 14.3535C27.4513 14.1583 27.4513 13.8417 27.6465 13.6464ZM4.50009 20C4.50009 19.7238 4.72395 19.5 5.00009 19.5H7.50009C7.77623 19.5 8.00009 19.7238 8.00009 20C8.00009 20.2761 7.77623 20.5 7.50009 20.5H5.00009C4.72395 20.5 4.50009 20.2761 4.50009 20ZM24.0001 20C24.0001 19.7238 24.2239 19.5 24.5001 19.5H27.0001C27.2762 19.5 27.5001 19.7238 27.5001 20C27.5001 20.2761 27.2762 20.5 27.0001 20.5H24.5001C24.2239 20.5 24.0001 20.2761 24.0001 20ZM10.3536 25.6464C10.5489 25.8417 10.5489 26.1583 10.3536 26.3535L8.85364 27.8535C8.65838 28.0488 8.3418 28.0488 8.14653 27.8535C7.95127 27.6583 7.95127 27.3417 8.14653 27.1464L9.64653 25.6464C9.8418 25.4512 10.1584 25.4512 10.3536 25.6464ZM21.6465 25.6464C21.8418 25.4512 22.1584 25.4512 22.3536 25.6464L23.8536 27.1464C24.0489 27.3417 24.0489 27.6583 23.8536 27.8535C23.6584 28.0488 23.3418 28.0488 23.1465 27.8535L21.6465 26.3535C21.4513 26.1583 21.4513 25.8417 21.6465 25.6464Z" fill="white"/>
<path fill-rule="evenodd" clip-rule="evenodd" d="M14.0001 20.5C14.2762 20.5 14.5001 20.2761 14.5001 20C14.5001 19.7239 14.2762 19.5 14.0001 19.5C13.724 19.5 13.5001 19.7239 13.5001 20C13.5001 20.2761 13.724 20.5 14.0001 20.5ZM14.0001 21.5C14.8285 21.5 15.5001 20.8284 15.5001 20C15.5001 19.1716 14.8285 18.5 14.0001 18.5C13.1717 18.5 12.5001 19.1716 12.5001 20C12.5001 20.8284 13.1717 21.5 14.0001 21.5Z" fill="white"/>
<path fill-rule="evenodd" clip-rule="evenodd" d="M18.0001 20.5C18.2762 20.5 18.5001 20.2761 18.5001 20C18.5001 19.7239 18.2762 19.5 18.0001 19.5C17.724 19.5 17.5001 19.7238 17.5001 20C17.5001 20.2761 17.724 20.5 18.0001 20.5ZM18.0001 21.5C18.8285 21.5 19.5001 20.8284 19.5001 20C19.5001 19.1716 18.8285 18.5 18.0001 18.5C17.1717 18.5 16.5001 19.1716 16.5001 20C16.5001 20.8284 17.1717 21.5 18.0001 21.5Z" fill="white"/>
</svg>
