<svg width="32" height="32" viewBox="0 0 32 32" fill="none" xmlns="http://www.w3.org/2000/svg">
<path fill-rule="evenodd" clip-rule="evenodd" d="M22.6087 17.3894C23.1962 13.096 19.8477 9.27273 15.5 9.27273C11.1523 9.27273 7.80385 13.096 8.39128 17.3894L9.34696 24.3743C9.76654 27.441 12.3946 29.7273 15.5 29.7273C18.6054 29.7273 21.2335 27.441 21.653 24.3743L22.6087 17.3894ZM7.28074 7H23.7193C25.1011 7 26.1654 8.21519 25.9787 9.5798L23.1801 30.0343C23.026 31.1604 22.061 32 20.9206 32H10.0794C8.93902 32 7.97399 31.1604 7.81992 30.0343L5.0213 9.5798C4.8346 8.21519 5.89888 7 7.28074 7Z" fill="white"/>
<path d="M14.1151 14.4956C14.053 13.6888 14.6909 13 15.5 13C16.3092 13 16.947 13.6888 16.885 14.4956L16.0384 25.5015C16.0167 25.7828 15.7822 26 15.5 26C15.2179 26 14.9833 25.7828 14.9617 25.5015L14.1151 14.4956Z" fill="white"/>
<path d="M18.7711 15.3738C18.8848 14.6911 19.6267 14.3134 20.2458 14.6229C20.6843 14.8422 20.9072 15.3405 20.7781 15.8136L18.1034 25.621C18.0424 25.8448 17.8391 26 17.6072 26C17.2894 26 17.0476 25.7146 17.0998 25.4011L18.7711 15.3738Z" fill="white"/>
<path d="M12.229 15.3738C12.1152 14.6911 11.3733 14.3134 10.7543 14.6229C10.3157 14.8422 10.0929 15.3405 10.2219 15.8136L12.8967 25.621C12.9577 25.8448 13.1609 26 13.3929 26C13.7107 26 13.9525 25.7146 13.9002 25.4011L12.229 15.3738Z" fill="white"/>
<path fill-rule="evenodd" clip-rule="evenodd" d="M25.8421 3.7143H19.9756C19.6213 1.16319 18.0765 0 16 0C13.9235 0 12.3787 1.16319 12.0244 3.7143H6.15789C5.51841 3.7143 5 4.22597 5 4.85715C5 5.48833 5.51841 6 6.15789 6H25.8421C26.4816 6 27 5.48833 27 4.85715C27 4.22597 26.4816 3.7143 25.8421 3.7143ZM17.6401 3.7143H14.3601C14.6583 2.12029 15.568 1.71428 16.0001 1.71428C16.4322 1.71428 17.3419 2.1203 17.6401 3.7143Z" fill="white"/>
</svg>
