<svg width="32" height="32" viewBox="0 0 32 32" fill="none" xmlns="http://www.w3.org/2000/svg">
<path fill-rule="evenodd" clip-rule="evenodd" d="M30 6H2V26H30V6ZM2 4C0.895431 4 0 4.89543 0 6V26C0 27.1046 0.895431 28 2 28H30C31.1046 28 32 27.1046 32 26V6C32 4.89543 31.1046 4 30 4H2Z" fill="white"/>
<path fill-rule="evenodd" clip-rule="evenodd" d="M30 12H2V10H30V12Z" fill="white"/>
<path d="M5 8C5 8.55228 4.55228 9 4 9C3.44772 9 3 8.55228 3 8C3 7.44772 3.44772 7 4 7C4.55228 7 5 7.44772 5 8Z" fill="white"/>
<path d="M8 8C8 8.55228 7.55228 9 7 9C6.44772 9 6 8.55228 6 8C6 7.44772 6.44772 7 7 7C7.55228 7 8 7.44772 8 8Z" fill="white"/>
<path d="M11 8C11 8.55228 10.5523 9 10 9C9.44772 9 9 8.55228 9 8C9 7.44772 9.44772 7 10 7C10.5523 7 11 7.44772 11 8Z" fill="white"/>
<path d="M19 8C19 7.44772 19.4477 7 20 7H28C28.5523 7 29 7.44772 29 8C29 8.55228 28.5523 9 28 9H20C19.4477 9 19 8.55228 19 8Z" fill="white"/>
<path fill-rule="evenodd" clip-rule="evenodd" d="M12 14C12.5523 14 13 14.4477 13 15V22C13 22.1748 13.0975 22.4332 13.3321 22.6679C13.5668 22.9025 13.8252 23 14 23C14.1748 23 14.4332 22.9025 14.6679 22.6679C14.9025 22.4332 15 22.1748 15 22V15C15 14.4477 15.4477 14 16 14C16.5523 14 17 14.4477 17 15V22C17 22.8252 16.5975 23.5668 16.0821 24.0821C15.5668 24.5975 14.8252 25 14 25C13.1748 25 12.4332 24.5975 11.9179 24.0821C11.4025 23.5668 11 22.8252 11 22V15C11 14.4477 11.4477 14 12 14ZM20 14C20.5523 14 21 14.4477 21 15V24C21 24.5523 20.5523 25 20 25C19.4477 25 19 24.5523 19 24V15C19 14.4477 19.4477 14 20 14Z" fill="white"/>
</svg>
