<svg width="32" height="32" viewBox="0 0 32 32" fill="none" xmlns="http://www.w3.org/2000/svg">
<path fill-rule="evenodd" clip-rule="evenodd" d="M12.706 25.4615C5.68868 25.4615 0 19.7618 0 12.7308C0 5.69976 5.68868 0 12.706 0C19.7234 0 25.4121 5.69976 25.4121 12.7308C25.4121 14.6239 24.9996 16.4204 24.2599 18.0352L30.6658 24.3291C32.4384 26.0707 32.4523 28.9231 30.6969 30.6819C28.9487 32.4335 26.1107 32.4335 24.3626 30.6819L18.0002 24.3072C16.3885 25.0483 14.5954 25.4615 12.706 25.4615ZM12.706 22.2788C17.969 22.2788 22.2356 18.004 22.2356 12.7308C22.2356 7.45752 17.969 3.1827 12.706 3.1827C7.44303 3.1827 3.17651 7.45752 3.17651 12.7308C3.17651 18.004 7.44303 22.2788 12.706 22.2788Z" fill="white"/>
</svg>
