<svg width="32" height="32" viewBox="0 0 32 32" fill="none" xmlns="http://www.w3.org/2000/svg">
<path fill-rule="evenodd" clip-rule="evenodd" d="M30.6888 0.312419C30.2739 -0.10414 29.6011 -0.10414 29.1862 0.312419L14.3112 15.2458C13.8963 15.6623 13.8963 16.3377 14.3112 16.7542L29.1862 31.6876C29.6011 32.1041 30.2739 32.1041 30.6888 31.6876C31.1037 31.271 31.1037 30.5956 30.6888 30.1791L16.5651 16L30.6888 1.82091C31.1037 1.40435 31.1037 0.728979 30.6888 0.312419Z" fill="white"/>
<path fill-rule="evenodd" clip-rule="evenodd" d="M18.6705 0.312419C18.2312 -0.10414 17.5188 -0.10414 17.0795 0.312419L1.32951 15.2458C0.890167 15.6623 0.890167 16.3377 1.32951 16.7542L17.0795 31.6876C17.5188 32.1041 18.2312 32.1041 18.6705 31.6876C19.1098 31.271 19.1098 30.5956 18.6705 30.1791L3.71599 16L18.6705 1.82091C19.1098 1.40435 19.1098 0.728979 18.6705 0.312419Z" fill="white"/>
</svg>
