<svg width="32" height="32" viewBox="0 0 32 32" fill="none" xmlns="http://www.w3.org/2000/svg">
<path fill-rule="evenodd" clip-rule="evenodd" d="M16.2313 2.04376C16.0864 1.96908 15.9137 1.96908 15.7687 2.04376L6.31387 6.9163C5.96751 7.0948 5.95291 7.57912 6.28791 7.77766L7.25013 8.34792L15.7572 13.0162C15.9082 13.099 16.0918 13.099 16.2428 13.0162L19.1975 11.3948L15.6348 7.63133C15.4462 7.4321 15.4568 7.11957 15.6585 6.93328C15.8602 6.74698 16.1766 6.75747 16.3652 6.9567L20.0985 10.9004L24.7499 8.34792L25.7121 7.77766C26.0471 7.57912 26.0325 7.0948 25.6862 6.9163L19.7687 3.86677C19.5239 3.7406 19.429 3.44228 19.5567 3.20046C19.6845 2.95863 19.9865 2.86488 20.2313 2.99105L26.1487 6.04058C27.0222 6.49074 27.1924 7.58925 26.6274 8.28176H29C29.8284 8.28176 30.5 8.94511 30.5 9.76339V26.5551H32L32 27.0969C32.0002 27.8053 32.0005 28.7601 31.6427 29.5375C31.4516 29.9527 31.1548 30.3298 30.7026 30.5978C30.2544 30.8634 29.6908 31 29 31H3.00002C2.30927 31 1.7456 30.8634 1.29746 30.5978C0.845238 30.3298 0.5484 29.9527 0.357334 29.5375C-0.000432134 28.7601 -0.000178997 27.8053 8.69815e-06 27.0969L1.72216e-05 26.5551H1.50002V9.76339C1.50002 8.94511 2.17159 8.28176 3.00002 8.28176H5.37264C4.80764 7.58925 4.9778 6.49074 5.85131 6.04058L15.3062 1.16804C15.7409 0.943987 16.2591 0.943987 16.6939 1.16804L18.2313 1.96035C18.4761 2.08652 18.571 2.38484 18.4433 2.62666C18.3156 2.86849 18.0136 2.96224 17.7687 2.83608L16.2313 2.04376ZM6.87045 9.26951H3.00002C2.72388 9.26951 2.50002 9.49063 2.50002 9.76339V26.5551H29.5V9.76339C29.5 9.49063 29.2762 9.26951 29 9.26951H25.1296L23.9296 9.92801H27C27.8284 9.92801 28.5 10.5914 28.5 11.4096V24.0858C28.5 24.904 27.8284 25.5674 27 25.5674H8.50002C8.22388 25.5674 8.00002 25.3463 8.00002 25.0735C8.00002 24.8007 8.22388 24.5796 8.50002 24.5796H27C27.2762 24.5796 27.5 24.3585 27.5 24.0858V11.4096C27.5 11.1369 27.2762 10.9158 27 10.9158H23.5V12.7266C23.5 14.1778 22.6167 15.4261 21.2725 16.2892C21.0307 16.4444 20.7727 16.5883 20.5 16.7199V17.5488L21.1305 18.7943C21.3512 19.2302 21.5814 19.8491 21.3775 20.481C21.1594 21.1569 20.6378 21.6164 20 21.6164C19.3623 21.6164 18.8406 21.1569 18.6225 20.481C18.4186 19.8491 18.6489 19.2302 18.8695 18.7943L19.5 17.5488V17.1249C18.4615 17.4729 17.2738 17.6654 16 17.6654C13.922 17.6654 12.073 17.153 10.7275 16.2892C9.3833 15.4261 8.50002 14.1778 8.50002 12.7266V10.9158H5.00002C4.72387 10.9158 4.50002 11.1369 4.50002 11.4096V24.0858C4.50002 24.3585 4.72387 24.5796 5.00002 24.5796H6.50002C6.77616 24.5796 7.00002 24.8007 7.00002 25.0735C7.00002 25.3463 6.77616 25.5674 6.50002 25.5674H5.00002C4.17159 25.5674 3.50002 24.904 3.50002 24.0858V11.4096C3.50002 10.5914 4.17159 9.92801 5.00002 9.92801H8.07046L6.87045 9.26951ZM9.50002 10.9158H9.87045L15.2716 13.8796C15.7246 14.1282 16.2754 14.1282 16.7285 13.8796L19.5 12.3587V16.0742C18.5094 16.4539 17.3185 16.6776 16 16.6776C14.078 16.6776 12.427 16.2022 11.2725 15.461C10.1167 14.7189 9.50002 13.7448 9.50002 12.7266V10.9158ZM20.5 15.5999C20.5778 15.5547 20.6537 15.5084 20.7275 15.461C21.8833 14.7189 22.5 13.7448 22.5 12.7266V10.9158H22.1296L20.5 11.81V15.5999ZM20 18.7697L19.7639 19.2361C19.568 19.6231 19.4964 19.9364 19.5753 20.1811C19.6977 20.5605 19.9069 20.6286 20 20.6286C20.0931 20.6286 20.3023 20.5605 20.4247 20.1811C20.5037 19.9364 20.432 19.6231 20.2361 19.2361L20 18.7697ZM5.50002 20.6286C5.50002 20.3559 5.72387 20.1348 6.00002 20.1348H13C13.2762 20.1348 13.5 20.3559 13.5 20.6286C13.5 20.9014 13.2762 21.1225 13 21.1225H6.00002C5.72387 21.1225 5.50002 20.9014 5.50002 20.6286ZM5.50002 22.6041C5.50002 22.3314 5.72387 22.1103 6.00002 22.1103H16C16.2762 22.1103 16.5 22.3314 16.5 22.6041C16.5 22.8769 16.2762 23.098 16 23.098H6.00002C5.72387 23.098 5.50002 22.8769 5.50002 22.6041ZM1.00366 27.5429C1.01543 28.1324 1.06459 28.6874 1.2677 29.1288C1.38913 29.3927 1.56105 29.6021 1.81195 29.7508C2.06694 29.9019 2.44076 30.0123 3.00002 30.0123H29C29.5593 30.0123 29.9331 29.9019 30.1881 29.7508C30.439 29.6021 30.6109 29.3927 30.7323 29.1288C30.9354 28.6874 30.9846 28.1324 30.9964 27.5429H19.9591C19.8931 27.9152 19.743 28.2483 19.4786 28.5094C19.1017 28.8817 18.5771 29.0245 18 29.0245H14C13.4229 29.0245 12.8983 28.8817 12.5215 28.5094C12.2571 28.2483 12.107 27.9152 12.041 27.5429H1.00366ZM13.0687 27.5429C13.1104 27.665 13.1673 27.7505 13.2286 27.811C13.3517 27.9326 13.5771 28.0368 14 28.0368H18C18.4229 28.0368 18.6483 27.9326 18.7715 27.811C18.8327 27.7505 18.8896 27.665 18.9313 27.5429H13.0687Z" fill="white"/>
</svg>
