<svg width="32" height="32" viewBox="0 0 32 32" fill="none" xmlns="http://www.w3.org/2000/svg">
<path d="M0 2C0 0.895431 0.895431 0 2 0C3.10457 0 4 0.895431 4 2C4 3.10457 3.10457 4 2 4C0.895431 4 0 3.10457 0 2Z" fill="white"/>
<path d="M28 30C28 28.8954 28.8954 28 30 28C31.1046 28 32 28.8954 32 30C32 31.1046 31.1046 32 30 32C28.8954 32 28 31.1046 28 30Z" fill="white"/>
<path d="M4.25 2C4.25 1.0335 5.0335 0.25 6 0.25C6.9665 0.25 7.75 1.0335 7.75 2C7.75 2.9665 6.9665 3.75 6 3.75C5.0335 3.75 4.25 2.9665 4.25 2Z" fill="white"/>
<path d="M8.5 2C8.5 1.17157 9.17157 0.5 10 0.5C10.8284 0.5 11.5 1.17157 11.5 2C11.5 2.82843 10.8284 3.5 10 3.5C9.17157 3.5 8.5 2.82843 8.5 2Z" fill="white"/>
<path d="M12.75 2C12.75 1.30964 13.3096 0.75 14 0.75C14.6904 0.75 15.25 1.30964 15.25 2C15.25 2.69036 14.6904 3.25 14 3.25C13.3096 3.25 12.75 2.69036 12.75 2Z" fill="white"/>
<path d="M17 2C17 1.44772 17.4477 1 18 1C18.5523 1 19 1.44772 19 2C19 2.55228 18.5523 3 18 3C17.4477 3 17 2.55228 17 2Z" fill="white"/>
<path d="M21.25 2C21.25 1.58579 21.5858 1.25 22 1.25C22.4142 1.25 22.75 1.58579 22.75 2C22.75 2.41421 22.4142 2.75 22 2.75C21.5858 2.75 21.25 2.41421 21.25 2Z" fill="white"/>
<path d="M25.5 2C25.5 1.72386 25.7239 1.5 26 1.5C26.2761 1.5 26.5 1.72386 26.5 2C26.5 2.27614 26.2761 2.5 26 2.5C25.7239 2.5 25.5 2.27614 25.5 2Z" fill="white"/>
<path d="M29.75 2C29.75 1.86193 29.8619 1.75 30 1.75C30.1381 1.75 30.25 1.86193 30.25 2C30.25 2.13807 30.1381 2.25 30 2.25C29.8619 2.25 29.75 2.13807 29.75 2Z" fill="white"/>
<path d="M0.25 6C0.25 5.0335 1.0335 4.25 2 4.25C2.9665 4.25 3.75 5.0335 3.75 6C3.75 6.9665 2.9665 7.75 2 7.75C1.0335 7.75 0.25 6.9665 0.25 6Z" fill="white"/>
<path d="M28.25 26C28.25 25.0335 29.0335 24.25 30 24.25C30.9665 24.25 31.75 25.0335 31.75 26C31.75 26.9665 30.9665 27.75 30 27.75C29.0335 27.75 28.25 26.9665 28.25 26Z" fill="white"/>
<path d="M24.25 30C24.25 29.0335 25.0335 28.25 26 28.25C26.9665 28.25 27.75 29.0335 27.75 30C27.75 30.9665 26.9665 31.75 26 31.75C25.0335 31.75 24.25 30.9665 24.25 30Z" fill="white"/>
<path d="M4.5 6C4.5 5.17157 5.17157 4.5 6 4.5C6.82843 4.5 7.5 5.17157 7.5 6C7.5 6.82843 6.82843 7.5 6 7.5C5.17157 7.5 4.5 6.82843 4.5 6Z" fill="white"/>
<path d="M8.75 6C8.75 5.30964 9.30964 4.75 10 4.75C10.6904 4.75 11.25 5.30964 11.25 6C11.25 6.69036 10.6904 7.25 10 7.25C9.30964 7.25 8.75 6.69036 8.75 6Z" fill="white"/>
<path d="M28.75 18C28.75 17.3096 29.3096 16.75 30 16.75C30.6904 16.75 31.25 17.3096 31.25 18C31.25 18.6904 30.6904 19.25 30 19.25C29.3096 19.25 28.75 18.6904 28.75 18Z" fill="white"/>
<path d="M24.75 22C24.75 21.3096 25.3096 20.75 26 20.75C26.6904 20.75 27.25 21.3096 27.25 22C27.25 22.6904 26.6904 23.25 26 23.25C25.3096 23.25 24.75 22.6904 24.75 22Z" fill="white"/>
<path d="M20.75 26C20.75 25.3096 21.3096 24.75 22 24.75C22.6904 24.75 23.25 25.3096 23.25 26C23.25 26.6904 22.6904 27.25 22 27.25C21.3096 27.25 20.75 26.6904 20.75 26Z" fill="white"/>
<path d="M16.75 30C16.75 29.3096 17.3096 28.75 18 28.75C18.6904 28.75 19.25 29.3096 19.25 30C19.25 30.6904 18.6904 31.25 18 31.25C17.3096 31.25 16.75 30.6904 16.75 30Z" fill="white"/>
<path d="M13 6C13 5.44772 13.4477 5 14 5C14.5523 5 15 5.44772 15 6C15 6.55228 14.5523 7 14 7C13.4477 7 13 6.55228 13 6Z" fill="white"/>
<path d="M17 26C17 25.4477 17.4477 25 18 25C18.5523 25 19 25.4477 19 26C19 26.5523 18.5523 27 18 27C17.4477 27 17 26.5523 17 26Z" fill="white"/>
<path d="M13 30C13 29.4477 13.4477 29 14 29C14.5523 29 15 29.4477 15 30C15 30.5523 14.5523 31 14 31C13.4477 31 13 30.5523 13 30Z" fill="white"/>
<path d="M17.25 6C17.25 5.58579 17.5858 5.25 18 5.25C18.4142 5.25 18.75 5.58579 18.75 6C18.75 6.41421 18.4142 6.75 18 6.75C17.5858 6.75 17.25 6.41421 17.25 6Z" fill="white"/>
<path d="M21.5 6C21.5 5.72386 21.7239 5.5 22 5.5C22.2761 5.5 22.5 5.72386 22.5 6C22.5 6.27614 22.2761 6.5 22 6.5C21.7239 6.5 21.5 6.27614 21.5 6Z" fill="white"/>
<path d="M29.5 6C29.5 5.72386 29.7239 5.5 30 5.5C30.2761 5.5 30.5 5.72386 30.5 6C30.5 6.27614 30.2761 6.5 30 6.5C29.7239 6.5 29.5 6.27614 29.5 6Z" fill="white"/>
<path d="M25.75 6C25.75 5.86193 25.8619 5.75 26 5.75C26.1381 5.75 26.25 5.86193 26.25 6C26.25 6.13807 26.1381 6.25 26 6.25C25.8619 6.25 25.75 6.13807 25.75 6Z" fill="white"/>
<path d="M0.5 10C0.5 9.17157 1.17157 8.5 2 8.5C2.82843 8.5 3.5 9.17157 3.5 10C3.5 10.8284 2.82843 11.5 2 11.5C1.17157 11.5 0.5 10.8284 0.5 10Z" fill="white"/>
<path d="M28.5 22C28.5 21.1716 29.1716 20.5 30 20.5C30.8284 20.5 31.5 21.1716 31.5 22C31.5 22.8284 30.8284 23.5 30 23.5C29.1716 23.5 28.5 22.8284 28.5 22Z" fill="white"/>
<path d="M24.5 26C24.5 25.1716 25.1716 24.5 26 24.5C26.8284 24.5 27.5 25.1716 27.5 26C27.5 26.8284 26.8284 27.5 26 27.5C25.1716 27.5 24.5 26.8284 24.5 26Z" fill="white"/>
<path d="M20.5 30C20.5 29.1716 21.1716 28.5 22 28.5C22.8284 28.5 23.5 29.1716 23.5 30C23.5 30.8284 22.8284 31.5 22 31.5C21.1716 31.5 20.5 30.8284 20.5 30Z" fill="white"/>
<path d="M1 18C1 17.4477 1.44772 17 2 17C2.55228 17 3 17.4477 3 18C3 18.5523 2.55228 19 2 19C1.44772 19 1 18.5523 1 18Z" fill="white"/>
<path d="M1.5 26C1.5 25.7239 1.72386 25.5 2 25.5C2.27614 25.5 2.5 25.7239 2.5 26C2.5 26.2761 2.27614 26.5 2 26.5C1.72386 26.5 1.5 26.2761 1.5 26Z" fill="white"/>
<path d="M4.75 10C4.75 9.30964 5.30964 8.75 6 8.75C6.69036 8.75 7.25 9.30964 7.25 10C7.25 10.6904 6.69036 11.25 6 11.25C5.30964 11.25 4.75 10.6904 4.75 10Z" fill="white"/>
<path d="M5.25 18C5.25 17.5858 5.58579 17.25 6 17.25C6.41421 17.25 6.75 17.5858 6.75 18C6.75 18.4142 6.41421 18.75 6 18.75C5.58579 18.75 5.25 18.4142 5.25 18Z" fill="white"/>
<path d="M5.75 26C5.75 25.8619 5.86193 25.75 6 25.75C6.13807 25.75 6.25 25.8619 6.25 26C6.25 26.1381 6.13807 26.25 6 26.25C5.86193 26.25 5.75 26.1381 5.75 26Z" fill="white"/>
<path d="M9 10C9 9.44772 9.44772 9 10 9C10.5523 9 11 9.44772 11 10C11 10.5523 10.5523 11 10 11C9.44772 11 9 10.5523 9 10Z" fill="white"/>
<path d="M9.5 18C9.5 17.7239 9.72386 17.5 10 17.5C10.2761 17.5 10.5 17.7239 10.5 18C10.5 18.2761 10.2761 18.5 10 18.5C9.72386 18.5 9.5 18.2761 9.5 18Z" fill="white"/>
<path d="M13.25 10C13.25 9.58579 13.5858 9.25 14 9.25C14.4142 9.25 14.75 9.58579 14.75 10C14.75 10.4142 14.4142 10.75 14 10.75C13.5858 10.75 13.25 10.4142 13.25 10Z" fill="white"/>
<path d="M13.75 18C13.75 17.8619 13.8619 17.75 14 17.75C14.1381 17.75 14.25 17.8619 14.25 18C14.25 18.1381 14.1381 18.25 14 18.25C13.8619 18.25 13.75 18.1381 13.75 18Z" fill="white"/>
<path d="M17.5 10C17.5 9.72386 17.7239 9.5 18 9.5C18.2761 9.5 18.5 9.72386 18.5 10C18.5 10.2761 18.2761 10.5 18 10.5C17.7239 10.5 17.5 10.2761 17.5 10Z" fill="white"/>
<path d="M21.75 10C21.75 9.86193 21.8619 9.75 22 9.75C22.1381 9.75 22.25 9.86193 22.25 10C22.25 10.1381 22.1381 10.25 22 10.25C21.8619 10.25 21.75 10.1381 21.75 10Z" fill="white"/>
<path d="M0.75 14C0.75 13.3096 1.30964 12.75 2 12.75C2.69036 12.75 3.25 13.3096 3.25 14C3.25 14.6904 2.69036 15.25 2 15.25C1.30964 15.25 0.75 14.6904 0.75 14Z" fill="white"/>
<path d="M1.25 22C1.25 21.5858 1.58579 21.25 2 21.25C2.41421 21.25 2.75 21.5858 2.75 22C2.75 22.4142 2.41421 22.75 2 22.75C1.58579 22.75 1.25 22.4142 1.25 22Z" fill="white"/>
<path d="M1.75 30C1.75 29.8619 1.86193 29.75 2 29.75C2.13807 29.75 2.25 29.8619 2.25 30C2.25 30.1381 2.13807 30.25 2 30.25C1.86193 30.25 1.75 30.1381 1.75 30Z" fill="white"/>
<path d="M5 14C5 13.4477 5.44772 13 6 13C6.55228 13 7 13.4477 7 14C7 14.5523 6.55228 15 6 15C5.44772 15 5 14.5523 5 14Z" fill="white"/>
<path d="M25 18C25 17.4477 25.4477 17 26 17C26.5523 17 27 17.4477 27 18C27 18.5523 26.5523 19 26 19C25.4477 19 25 18.5523 25 18Z" fill="white"/>
<path d="M21 22C21 21.4477 21.4477 21 22 21C22.5523 21 23 21.4477 23 22C23 22.5523 22.5523 23 22 23C21.4477 23 21 22.5523 21 22Z" fill="white"/>
<path d="M29 14C29 13.4477 29.4477 13 30 13C30.5523 13 31 13.4477 31 14C31 14.5523 30.5523 15 30 15C29.4477 15 29 14.5523 29 14Z" fill="white"/>
<path d="M5.5 22C5.5 21.7239 5.72386 21.5 6 21.5C6.27614 21.5 6.5 21.7239 6.5 22C6.5 22.2761 6.27614 22.5 6 22.5C5.72386 22.5 5.5 22.2761 5.5 22Z" fill="white"/>
<path d="M9.25 14C9.25 13.5858 9.58579 13.25 10 13.25C10.4142 13.25 10.75 13.5858 10.75 14C10.75 14.4142 10.4142 14.75 10 14.75C9.58579 14.75 9.25 14.4142 9.25 14Z" fill="white"/>
<path d="M29.25 10C29.25 9.58579 29.5858 9.25 30 9.25C30.4142 9.25 30.75 9.58579 30.75 10C30.75 10.4142 30.4142 10.75 30 10.75C29.5858 10.75 29.25 10.4142 29.25 10Z" fill="white"/>
<path d="M25.25 14C25.25 13.5858 25.5858 13.25 26 13.25C26.4142 13.25 26.75 13.5858 26.75 14C26.75 14.4142 26.4142 14.75 26 14.75C25.5858 14.75 25.25 14.4142 25.25 14Z" fill="white"/>
<path d="M21.25 18C21.25 17.5858 21.5858 17.25 22 17.25C22.4142 17.25 22.75 17.5858 22.75 18C22.75 18.4142 22.4142 18.75 22 18.75C21.5858 18.75 21.25 18.4142 21.25 18Z" fill="white"/>
<path d="M17.25 22C17.25 21.5858 17.5858 21.25 18 21.25C18.4142 21.25 18.75 21.5858 18.75 22C18.75 22.4142 18.4142 22.75 18 22.75C17.5858 22.75 17.25 22.4142 17.25 22Z" fill="white"/>
<path d="M13.25 26C13.25 25.5858 13.5858 25.25 14 25.25C14.4142 25.25 14.75 25.5858 14.75 26C14.75 26.4142 14.4142 26.75 14 26.75C13.5858 26.75 13.25 26.4142 13.25 26Z" fill="white"/>
<path d="M9.25 30C9.25 29.5858 9.58579 29.25 10 29.25C10.4142 29.25 10.75 29.5858 10.75 30C10.75 30.4142 10.4142 30.75 10 30.75C9.58579 30.75 9.25 30.4142 9.25 30Z" fill="white"/>
<path d="M9.75 22C9.75 21.8619 9.86193 21.75 10 21.75C10.1381 21.75 10.25 21.8619 10.25 22C10.25 22.1381 10.1381 22.25 10 22.25C9.86193 22.25 9.75 22.1381 9.75 22Z" fill="white"/>
<path d="M13.5 14C13.5 13.7239 13.7239 13.5 14 13.5C14.2761 13.5 14.5 13.7239 14.5 14C14.5 14.2761 14.2761 14.5 14 14.5C13.7239 14.5 13.5 14.2761 13.5 14Z" fill="white"/>
<path d="M25.5 10C25.5 9.72386 25.7239 9.5 26 9.5C26.2761 9.5 26.5 9.72386 26.5 10C26.5 10.2761 26.2761 10.5 26 10.5C25.7239 10.5 25.5 10.2761 25.5 10Z" fill="white"/>
<path d="M21.5 14C21.5 13.7239 21.7239 13.5 22 13.5C22.2761 13.5 22.5 13.7239 22.5 14C22.5 14.2761 22.2761 14.5 22 14.5C21.7239 14.5 21.5 14.2761 21.5 14Z" fill="white"/>
<path d="M9.5 26C9.5 25.7239 9.72386 25.5 10 25.5C10.2761 25.5 10.5 25.7239 10.5 26C10.5 26.2761 10.2761 26.5 10 26.5C9.72386 26.5 9.5 26.2761 9.5 26Z" fill="white"/>
<path d="M17.5 18C17.5 17.7239 17.7239 17.5 18 17.5C18.2761 17.5 18.5 17.7239 18.5 18C18.5 18.2761 18.2761 18.5 18 18.5C17.7239 18.5 17.5 18.2761 17.5 18Z" fill="white"/>
<path d="M5.5 30C5.5 29.7239 5.72386 29.5 6 29.5C6.27614 29.5 6.5 29.7239 6.5 30C6.5 30.2761 6.27614 30.5 6 30.5C5.72386 30.5 5.5 30.2761 5.5 30Z" fill="white"/>
<path d="M13.5 22C13.5 21.7239 13.7239 21.5 14 21.5C14.2761 21.5 14.5 21.7239 14.5 22C14.5 22.2761 14.2761 22.5 14 22.5C13.7239 22.5 13.5 22.2761 13.5 22Z" fill="white"/>
<path d="M17.75 14C17.75 13.8619 17.8619 13.75 18 13.75C18.1381 13.75 18.25 13.8619 18.25 14C18.25 14.1381 18.1381 14.25 18 14.25C17.8619 14.25 17.75 14.1381 17.75 14Z" fill="white"/>
</svg>
