<svg width="32" height="32" viewBox="0 0 32 32" fill="none" xmlns="http://www.w3.org/2000/svg">
<path d="M0 2.08696C0 0.934362 0.934362 0 2.08696 0C3.23955 0 4.17391 0.934362 4.17391 2.08696C4.17391 3.23955 3.23955 4.17391 2.08696 4.17391C0.934362 4.17391 0 3.23955 0 2.08696Z" fill="white"/>
<path d="M27.8261 29.913C27.8261 28.7604 28.7604 27.8261 29.913 27.8261C31.0656 27.8261 32 28.7604 32 29.913C32 31.0656 31.0656 32 29.913 32C28.7604 32 27.8261 31.0656 27.8261 29.913Z" fill="white"/>
<path d="M28.1739 24.3478C28.1739 23.3873 28.9525 22.6087 29.913 22.6087C30.8735 22.6087 31.6522 23.3873 31.6522 24.3478C31.6522 25.3083 30.8735 26.087 29.913 26.087C28.9525 26.087 28.1739 25.3083 28.1739 24.3478Z" fill="white"/>
<path d="M22.6087 29.913C22.6087 28.9525 23.3873 28.1739 24.3478 28.1739C25.3083 28.1739 26.087 28.9525 26.087 29.913C26.087 30.8735 25.3083 31.6522 24.3478 31.6522C23.3873 31.6522 22.6087 30.8735 22.6087 29.913Z" fill="white"/>
<path d="M22.9565 24.3478C22.9565 23.5794 23.5794 22.9565 24.3478 22.9565C25.1162 22.9565 25.7391 23.5794 25.7391 24.3478C25.7391 25.1162 25.1162 25.7391 24.3478 25.7391C23.5794 25.7391 22.9565 25.1162 22.9565 24.3478Z" fill="white"/>
<path d="M17.3913 29.913C17.3913 29.1446 18.0142 28.5217 18.7826 28.5217C19.551 28.5217 20.1739 29.1446 20.1739 29.913C20.1739 30.6814 19.551 31.3043 18.7826 31.3043C18.0142 31.3043 17.3913 30.6814 17.3913 29.913Z" fill="white"/>
<path d="M0.695652 13.2174C0.695652 12.449 1.31856 11.8261 2.08696 11.8261C2.85535 11.8261 3.47826 12.449 3.47826 13.2174C3.47826 13.9858 2.85535 14.6087 2.08696 14.6087C1.31856 14.6087 0.695652 13.9858 0.695652 13.2174Z" fill="white"/>
<path d="M1.3913 24.3478C1.3913 23.9636 1.70276 23.6522 2.08696 23.6522C2.47115 23.6522 2.78261 23.9636 2.78261 24.3478C2.78261 24.732 2.47115 25.0435 2.08696 25.0435C1.70276 25.0435 1.3913 24.732 1.3913 24.3478Z" fill="white"/>
<path d="M5.91304 2.08696C5.91304 1.12646 6.69168 0.347826 7.65217 0.347826C8.61267 0.347826 9.3913 1.12646 9.3913 2.08696C9.3913 3.04745 8.61267 3.82609 7.65217 3.82609C6.69168 3.82609 5.91304 3.04745 5.91304 2.08696Z" fill="white"/>
<path d="M6.6087 13.2174C6.6087 12.6411 7.07588 12.1739 7.65217 12.1739C8.22847 12.1739 8.69565 12.6411 8.69565 13.2174C8.69565 13.7937 8.22847 14.2609 7.65217 14.2609C7.07588 14.2609 6.6087 13.7937 6.6087 13.2174Z" fill="white"/>
<path d="M7.30435 24.3478C7.30435 24.1557 7.46008 24 7.65217 24C7.84427 24 8 24.1557 8 24.3478C8 24.5399 7.84427 24.6957 7.65217 24.6957C7.46008 24.6957 7.30435 24.5399 7.30435 24.3478Z" fill="white"/>
<path d="M11.8261 2.08696C11.8261 1.31856 12.449 0.695652 13.2174 0.695652C13.9858 0.695652 14.6087 1.31856 14.6087 2.08696C14.6087 2.85535 13.9858 3.47826 13.2174 3.47826C12.449 3.47826 11.8261 2.85535 11.8261 2.08696Z" fill="white"/>
<path d="M12.5217 13.2174C12.5217 12.8332 12.8332 12.5217 13.2174 12.5217C13.6016 12.5217 13.913 12.8332 13.913 13.2174C13.913 13.6016 13.6016 13.913 13.2174 13.913C12.8332 13.913 12.5217 13.6016 12.5217 13.2174Z" fill="white"/>
<path d="M17.7391 2.08696C17.7391 1.51066 18.2063 1.04348 18.7826 1.04348C19.3589 1.04348 19.8261 1.51066 19.8261 2.08696C19.8261 2.66325 19.3589 3.13043 18.7826 3.13043C18.2063 3.13043 17.7391 2.66325 17.7391 2.08696Z" fill="white"/>
<path d="M18.4348 13.2174C18.4348 13.0253 18.5905 12.8696 18.7826 12.8696C18.9747 12.8696 19.1304 13.0253 19.1304 13.2174C19.1304 13.4095 18.9747 13.5652 18.7826 13.5652C18.5905 13.5652 18.4348 13.4095 18.4348 13.2174Z" fill="white"/>
<path d="M23.6522 2.08696C23.6522 1.70276 23.9636 1.3913 24.3478 1.3913C24.732 1.3913 25.0435 1.70276 25.0435 2.08696C25.0435 2.47115 24.732 2.78261 24.3478 2.78261C23.9636 2.78261 23.6522 2.47115 23.6522 2.08696Z" fill="white"/>
<path d="M29.5652 2.08696C29.5652 1.89486 29.7209 1.73913 29.913 1.73913C30.1051 1.73913 30.2609 1.89486 30.2609 2.08696C30.2609 2.27906 30.1051 2.43478 29.913 2.43478C29.7209 2.43478 29.5652 2.27906 29.5652 2.08696Z" fill="white"/>
<path d="M0.347826 7.65217C0.347826 6.69168 1.12646 5.91304 2.08696 5.91304C3.04745 5.91304 3.82609 6.69168 3.82609 7.65217C3.82609 8.61267 3.04745 9.3913 2.08696 9.3913C1.12646 9.3913 0.347826 8.61267 0.347826 7.65217Z" fill="white"/>
<path d="M1.04348 18.7826C1.04348 18.2063 1.51066 17.7391 2.08696 17.7391C2.66325 17.7391 3.13043 18.2063 3.13043 18.7826C3.13043 19.3589 2.66325 19.8261 2.08696 19.8261C1.51066 19.8261 1.04348 19.3589 1.04348 18.7826Z" fill="white"/>
<path d="M1.73913 29.913C1.73913 29.7209 1.89486 29.5652 2.08696 29.5652C2.27906 29.5652 2.43478 29.7209 2.43478 29.913C2.43478 30.1051 2.27906 30.2609 2.08696 30.2609C1.89486 30.2609 1.73913 30.1051 1.73913 29.913Z" fill="white"/>
<path d="M6.26087 7.65217C6.26087 6.88378 6.88378 6.26087 7.65217 6.26087C8.42057 6.26087 9.04348 6.88378 9.04348 7.65217C9.04348 8.42057 8.42057 9.04348 7.65217 9.04348C6.88378 9.04348 6.26087 8.42057 6.26087 7.65217Z" fill="white"/>
<path d="M28.5217 18.7826C28.5217 18.0142 29.1446 17.3913 29.913 17.3913C30.6814 17.3913 31.3043 18.0142 31.3043 18.7826C31.3043 19.551 30.6814 20.1739 29.913 20.1739C29.1446 20.1739 28.5217 19.551 28.5217 18.7826Z" fill="white"/>
<path d="M6.95652 18.7826C6.95652 18.3984 7.26798 18.087 7.65217 18.087C8.03637 18.087 8.34783 18.3984 8.34783 18.7826C8.34783 19.1668 8.03637 19.4783 7.65217 19.4783C7.26798 19.4783 6.95652 19.1668 6.95652 18.7826Z" fill="white"/>
<path d="M12.1739 7.65217C12.1739 7.07588 12.6411 6.6087 13.2174 6.6087C13.7937 6.6087 14.2609 7.07588 14.2609 7.65217C14.2609 8.22847 13.7937 8.69565 13.2174 8.69565C12.6411 8.69565 12.1739 8.22847 12.1739 7.65217Z" fill="white"/>
<path d="M28.8696 13.2174C28.8696 12.6411 29.3367 12.1739 29.913 12.1739C30.4893 12.1739 30.9565 12.6411 30.9565 13.2174C30.9565 13.7937 30.4893 14.2609 29.913 14.2609C29.3367 14.2609 28.8696 13.7937 28.8696 13.2174Z" fill="white"/>
<path d="M23.3043 18.7826C23.3043 18.2063 23.7715 17.7391 24.3478 17.7391C24.9241 17.7391 25.3913 18.2063 25.3913 18.7826C25.3913 19.3589 24.9241 19.8261 24.3478 19.8261C23.7715 19.8261 23.3043 19.3589 23.3043 18.7826Z" fill="white"/>
<path d="M17.7391 24.3478C17.7391 23.7715 18.2063 23.3043 18.7826 23.3043C19.3589 23.3043 19.8261 23.7715 19.8261 24.3478C19.8261 24.9241 19.3589 25.3913 18.7826 25.3913C18.2063 25.3913 17.7391 24.9241 17.7391 24.3478Z" fill="white"/>
<path d="M12.1739 29.913C12.1739 29.3367 12.6411 28.8696 13.2174 28.8696C13.7937 28.8696 14.2609 29.3367 14.2609 29.913C14.2609 30.4893 13.7937 30.9565 13.2174 30.9565C12.6411 30.9565 12.1739 30.4893 12.1739 29.913Z" fill="white"/>
<path d="M12.8696 18.7826C12.8696 18.5905 13.0253 18.4348 13.2174 18.4348C13.4095 18.4348 13.5652 18.5905 13.5652 18.7826C13.5652 18.9747 13.4095 19.1304 13.2174 19.1304C13.0253 19.1304 12.8696 18.9747 12.8696 18.7826Z" fill="white"/>
<path d="M18.087 7.65217C18.087 7.26798 18.3984 6.95652 18.7826 6.95652C19.1668 6.95652 19.4783 7.26798 19.4783 7.65217C19.4783 8.03637 19.1668 8.34783 18.7826 8.34783C18.3984 8.34783 18.087 8.03637 18.087 7.65217Z" fill="white"/>
<path d="M29.2174 7.65217C29.2174 7.26798 29.5288 6.95652 29.913 6.95652C30.2972 6.95652 30.6087 7.26798 30.6087 7.65217C30.6087 8.03637 30.2972 8.34783 29.913 8.34783C29.5288 8.34783 29.2174 8.03637 29.2174 7.65217Z" fill="white"/>
<path d="M12.5217 24.3478C12.5217 23.9636 12.8332 23.6522 13.2174 23.6522C13.6016 23.6522 13.913 23.9636 13.913 24.3478C13.913 24.732 13.6016 25.0435 13.2174 25.0435C12.8332 25.0435 12.5217 24.732 12.5217 24.3478Z" fill="white"/>
<path d="M23.6522 13.2174C23.6522 12.8332 23.9636 12.5217 24.3478 12.5217C24.732 12.5217 25.0435 12.8332 25.0435 13.2174C25.0435 13.6016 24.732 13.913 24.3478 13.913C23.9636 13.913 23.6522 13.6016 23.6522 13.2174Z" fill="white"/>
<path d="M6.95652 29.913C6.95652 29.5288 7.26798 29.2174 7.65217 29.2174C8.03637 29.2174 8.34783 29.5288 8.34783 29.913C8.34783 30.2972 8.03637 30.6087 7.65217 30.6087C7.26798 30.6087 6.95652 30.2972 6.95652 29.913Z" fill="white"/>
<path d="M18.087 18.7826C18.087 18.3984 18.3984 18.087 18.7826 18.087C19.1668 18.087 19.4783 18.3984 19.4783 18.7826C19.4783 19.1668 19.1668 19.4783 18.7826 19.4783C18.3984 19.4783 18.087 19.1668 18.087 18.7826Z" fill="white"/>
<path d="M24 7.65217C24 7.46008 24.1557 7.30435 24.3478 7.30435C24.5399 7.30435 24.6957 7.46008 24.6957 7.65217C24.6957 7.84427 24.5399 8 24.3478 8C24.1557 8 24 7.84427 24 7.65217Z" fill="white"/>
</svg>
