<svg width="32" height="32" viewBox="0 0 32 32" fill="none" xmlns="http://www.w3.org/2000/svg">
<path d="M10.5281 26.5704C9.92508 27.1432 8.94741 27.1432 8.34439 26.5704L0.452259 17.0371C-0.150753 16.4643 -0.150753 15.5357 0.452259 14.9629L8.34439 5.42958C8.94741 4.85681 9.92508 4.85681 10.5281 5.42958C11.1311 6.00235 11.1311 6.93099 10.5281 7.50376L4.82835 14.625H30.6275C30.9915 14.625 31.3406 14.7699 31.598 15.0277C32.134 15.5647 32.134 16.4353 31.598 16.9723C31.3406 17.2301 30.9915 17.375 30.6275 17.375L4.82835 17.375L10.5281 24.4962C11.1311 25.069 11.1311 25.9977 10.5281 26.5704Z" fill="white"/>
</svg>
