<svg width="32" height="32" viewBox="0 0 32 32" fill="none" xmlns="http://www.w3.org/2000/svg">
<path fill-rule="evenodd" clip-rule="evenodd" d="M4.41775 11.5038C5.313 10.6492 6.51149 10.1818 7.74603 10.1818H9.39683C10.1946 10.1818 10.8413 10.833 10.8413 11.6364C10.8413 12.4397 10.1946 13.0909 9.39683 13.0909H7.74603C7.2293 13.0909 6.74825 13.2876 6.40517 13.6151C6.06471 13.94 5.88889 14.3637 5.88889 14.7879V27.3939C5.88889 27.8181 6.06471 28.2418 6.40517 28.5668C6.74825 28.8942 7.2293 29.0909 7.74603 29.0909H24.254C24.7707 29.0909 25.2517 28.8942 25.5948 28.5668C25.9353 28.2418 26.1111 27.8181 26.1111 27.3939V14.7879C26.1111 14.3637 25.9353 13.94 25.5948 13.6151C25.2517 13.2876 24.7707 13.0909 24.254 13.0909H22.6032C21.8054 13.0909 21.1587 12.4397 21.1587 11.6364C21.1587 10.833 21.8054 10.1818 22.6032 10.1818H24.254C25.4885 10.1818 26.687 10.6492 27.5823 11.5038C28.4801 12.3608 29 13.5404 29 14.7879V27.3939C29 28.6414 28.4801 29.821 27.5823 30.678C26.687 31.5326 25.4885 32 24.254 32H7.74603C6.51149 32 5.313 31.5326 4.41775 30.678C3.51987 29.821 3 28.6414 3 27.3939V14.7879C3 13.5404 3.51987 12.3608 4.41775 11.5038Z" fill="white"/>
<path fill-rule="evenodd" clip-rule="evenodd" d="M16 2.16744e-08C16.7977 2.16744e-08 17.4444 0.651222 17.4444 1.45455V18.9091C17.4444 19.7124 16.7977 20.3636 16 20.3636C15.2023 20.3636 14.5556 19.7124 14.5556 18.9091V1.45455C14.5556 0.651222 15.2023 2.16744e-08 16 2.16744e-08Z" fill="white"/>
<path fill-rule="evenodd" clip-rule="evenodd" d="M14.9786 0.426027C15.5427 -0.142009 16.4573 -0.142009 17.0214 0.426027L21.3547 4.78966C21.9188 5.3577 21.9188 6.27867 21.3547 6.8467C20.7906 7.41474 19.876 7.41474 19.312 6.8467L16 3.51158L12.688 6.8467C12.124 7.41474 11.2094 7.41474 10.6453 6.8467C10.0812 6.27867 10.0812 5.3577 10.6453 4.78966L14.9786 0.426027Z" fill="white"/>
</svg>
