<svg width="32" height="32" viewBox="0 0 32 32" fill="none" xmlns="http://www.w3.org/2000/svg">
<path d="M31.2 28.6896H27.2V5.86806C27.2 4.45806 26.1235 3.3103 24.8 3.3103H19.2V6.62065H24V32H31.2C31.642 32 32 31.6297 32 31.1724V29.5172C32 29.06 31.642 28.6896 31.2 28.6896ZM15.612 0.0521911L6.012 2.62495C5.2995 2.81582 4.8 3.50168 4.8 4.28892V28.6896H0.8C0.358 28.6896 0 29.06 0 29.5172V31.1724C0 31.6297 0.358 32 0.8 32H17.6V1.71616C17.6 0.599951 16.622 -0.218844 15.612 0.0521911ZM13.2 20.4138C12.5375 20.4138 12 19.6726 12 18.7586C12 17.8446 12.5375 17.1034 13.2 17.1034C13.8625 17.1034 14.4 17.8446 14.4 18.7586C14.4 19.6726 13.8625 20.4138 13.2 20.4138Z" fill="white"/>
</svg>
