<svg width="32" height="32" viewBox="0 0 32 32" fill="none" xmlns="http://www.w3.org/2000/svg">
<path fill-rule="evenodd" clip-rule="evenodd" d="M0 9.93333C0 9.41787 0.421379 9 0.941176 9H31.0588C31.5786 9 32 9.41787 32 9.93333V19.3704C32 19.8858 31.5786 20.3037 31.0588 20.3037H15.5722V22.0667C15.5722 22.5821 15.1508 23 14.631 23H9.15508C8.63528 23 8.2139 22.5821 8.2139 22.0667V20.3037H0.941176C0.421379 20.3037 0 19.8858 0 19.3704V9.93333ZM5.9893 18.437V13.9778C5.9893 13.4623 5.56793 13.0444 5.04813 13.0444C4.52833 13.0444 4.10695 13.4623 4.10695 13.9778V18.437H1.88235V10.8667H8.2139V18.437H5.9893ZM10.0963 10.8667L10.0963 21.1333H13.6898V19.3704C13.6898 18.8549 14.1112 18.437 14.631 18.437H17.7968V10.8667H10.0963ZM19.6791 10.8667V18.437H21.9037V13.9778C21.9037 13.4623 22.3251 13.0444 22.8449 13.0444C23.3647 13.0444 23.7861 13.4623 23.7861 13.9778V18.437H26.0107V13.9778C26.0107 13.4623 26.4321 13.0444 26.9519 13.0444C27.4717 13.0444 27.893 13.4623 27.893 13.9778V18.437H30.1176V10.8667H19.6791ZM14.631 13.0444C15.1508 13.0444 15.5722 13.4623 15.5722 13.9778V15.3259C15.5722 15.8414 15.1508 16.2593 14.631 16.2593C14.1112 16.2593 13.6898 15.8414 13.6898 15.3259V13.9778C13.6898 13.4623 14.1112 13.0444 14.631 13.0444Z" fill="white"/>
</svg>
