<svg width="32" height="32" viewBox="0 0 32 32" fill="none" xmlns="http://www.w3.org/2000/svg">
<path fill-rule="evenodd" clip-rule="evenodd" d="M0.312419 30.6888C-0.10414 30.2739 -0.10414 29.6011 0.312419 29.1862L15.2458 14.3112C15.6623 13.8963 16.3377 13.8963 16.7542 14.3112L31.6876 29.1862C32.1041 29.6011 32.1041 30.2739 31.6876 30.6888C31.271 31.1037 30.5956 31.1037 30.1791 30.6888L16 16.5651L1.82091 30.6888C1.40435 31.1037 0.728979 31.1037 0.312419 30.6888Z" fill="white"/>
<path fill-rule="evenodd" clip-rule="evenodd" d="M0.312419 17.6888C-0.10414 17.2739 -0.10414 16.6011 0.312419 16.1862L15.2458 1.3112C15.6623 0.896267 16.3377 0.896267 16.7542 1.3112L31.6876 16.1862C32.1041 16.6011 32.1041 17.2739 31.6876 17.6888C31.271 18.1037 30.5956 18.1037 30.1791 17.6888L16 3.5651L1.82091 17.6888C1.40435 18.1037 0.728979 18.1037 0.312419 17.6888Z" fill="white"/>
</svg>
