<svg width="32" height="32" viewBox="0 0 32 32" fill="none" xmlns="http://www.w3.org/2000/svg">
<path fill-rule="evenodd" clip-rule="evenodd" d="M12.5715 4.57147C12.5715 3.94029 13.0831 3.42861 13.7143 3.42861H30.8571C31.4883 3.42861 32 3.94029 32 4.57147C32 5.20265 31.4883 5.71432 30.8571 5.71432H13.7143C13.0831 5.71432 12.5715 5.20265 12.5715 4.57147Z" fill="white"/>
<path fill-rule="evenodd" clip-rule="evenodd" d="M12.5715 16C12.5715 15.3688 13.0831 14.8572 13.7143 14.8572H30.8571C31.4883 14.8572 32 15.3688 32 16C32 16.6312 31.4883 17.1429 30.8571 17.1429H13.7143C13.0831 17.1429 12.5715 16.6312 12.5715 16Z" fill="white"/>
<path fill-rule="evenodd" clip-rule="evenodd" d="M12.5715 27.4286C12.5715 26.7974 13.0831 26.2857 13.7143 26.2857H30.8571C31.4883 26.2857 32 26.7974 32 27.4286C32 28.0598 31.4883 28.5714 30.8571 28.5714H13.7143C13.0831 28.5714 12.5715 28.0598 12.5715 27.4286Z" fill="white"/>
<path fill-rule="evenodd" clip-rule="evenodd" d="M4.57147 20.5714C4.00644 20.5714 3.43679 20.8198 2.99658 21.3089C2.55279 21.802 2.28575 22.4943 2.28575 23.2381C2.28575 23.8693 1.77408 24.381 1.1429 24.381C0.511717 24.381 4.36215e-05 23.8693 4.36215e-05 23.2381C4.36215e-05 21.9612 0.455451 20.7156 1.29763 19.7798C2.14337 18.8401 3.31786 18.2857 4.57147 18.2857C5.82507 18.2857 6.99956 18.8401 7.84531 19.7798C8.68748 20.7156 9.14289 21.9612 9.14289 23.2381C9.14289 24.119 8.79905 24.8236 8.39743 25.3916C8.10574 25.804 7.72755 26.2146 7.39733 26.5731C7.30526 26.6731 7.21692 26.769 7.13523 26.8598C7.11203 26.8856 7.08766 26.9103 7.06221 26.9338L4.05932 29.7143H8.00003C8.63122 29.7143 9.14289 30.226 9.14289 30.8571C9.14289 31.4883 8.63122 32 8.00003 32H1.1429C0.672649 32 0.250401 31.712 0.0788274 31.2741C-0.0927459 30.8363 0.0213831 30.3381 0.366434 30.0186L5.47146 25.2917C5.58503 25.1659 5.69072 25.051 5.78944 24.9436C6.09408 24.6122 6.33241 24.3529 6.53121 24.0718C6.77245 23.7307 6.85718 23.4829 6.85718 23.2381C6.85718 22.4943 6.59014 21.802 6.14635 21.3089C5.70614 20.8198 5.13649 20.5714 4.57147 20.5714Z" fill="white"/>
<path fill-rule="evenodd" clip-rule="evenodd" d="M4.98091 0.0759099C5.4227 0.245441 5.71432 0.669702 5.71432 1.1429V12.5715C5.71432 13.2026 5.20265 13.7143 4.57147 13.7143C3.94028 13.7143 3.42861 13.2026 3.42861 12.5715V4.12114L1.99238 5.71695C1.57014 6.1861 0.847523 6.22414 0.378369 5.8019C-0.0907846 5.37966 -0.128817 4.65704 0.293421 4.18789L3.72199 0.378373C4.03854 0.0266453 4.53912 -0.0936211 4.98091 0.0759099Z" fill="white"/>
</svg>
