<svg width="32" height="32" viewBox="0 0 32 32" fill="none" xmlns="http://www.w3.org/2000/svg">
<path d="M31.2 28.7873H25.6V2.55007C25.6 1.1435 24.5235 -2.6043e-05 23.2 -2.6043e-05H8.7995C7.476 -2.6043e-05 6.3995 1.1435 6.3995 2.55007V28.7873H0.8C0.358 28.7873 0 29.1467 0 29.5905V31.1968C0 31.6406 0.358 32 0.8 32H31.2C31.642 32 32 31.6406 32 31.1968V29.5905C32 29.1467 31.642 28.7873 31.2 28.7873ZM20.7995 20.7555C19.916 20.7555 19.1995 20.0361 19.1995 19.1491C19.1995 18.2621 19.916 17.5428 20.7995 17.5428C21.683 17.5428 22.3995 18.2621 22.3995 19.1491C22.4 20.0361 21.6835 20.7555 20.7995 20.7555Z" fill="white"/>
</svg>
