<svg width="32" height="32" viewBox="0 0 32 32" fill="none" xmlns="http://www.w3.org/2000/svg">
<path d="M29.1727 12.4465H21.3328C20.3509 12.4465 19.5549 11.6507 19.5549 10.669C19.5549 9.68737 20.3509 8.89157 21.3328 8.89157H26.2611C23.3644 4.68755 18.0648 2.62897 12.9 3.95303C10.7122 4.51576 8.71893 5.66323 7.13381 7.2724C5.54856 8.88171 4.43138 10.8921 3.90209 13.0879C3.37281 15.2838 3.45139 17.5823 4.1294 19.7369C4.80741 21.8914 6.05928 23.8209 7.75074 25.3182C9.44221 26.8156 11.5095 27.8243 13.7308 28.2363C15.9521 28.6483 18.2437 28.448 20.3598 27.6569C22.476 26.8658 24.3368 25.5137 25.7427 23.7456C27.1486 21.9775 28.0466 19.8602 28.3403 17.6207C28.468 16.6473 29.3607 15.9618 30.3343 16.0894C31.3078 16.217 31.9936 17.1096 31.8659 18.0829C31.4882 20.9623 30.3337 23.6846 28.5261 25.9578C26.7184 28.2311 24.326 29.9695 21.6053 30.9866C18.8845 32.0038 15.9382 32.2613 13.0822 31.7316C10.2262 31.2019 7.5683 29.9049 5.39357 27.9797C3.21883 26.0546 1.60928 23.5739 0.737553 20.8037C-0.134176 18.0335 -0.235205 15.0783 0.445302 12.2551C1.12581 9.43188 2.56218 6.8471 4.60037 4.77798C6.63856 2.70887 9.20167 1.23347 12.0148 0.510031C18.2072 -1.0778 24.5908 1.13255 28.4443 5.87767V1.78173C28.4443 0.800068 29.2402 0.00427155 30.2221 0.00427155C31.204 0.00427155 32 0.800068 32 1.78173V10.669C32 11.6507 31.204 12.4465 30.2221 12.4465H29.2567C29.2287 12.4472 29.2007 12.4472 29.1727 12.4465Z" fill="white"/>
</svg>
