<svg width="32" height="32" viewBox="0 0 32 32" fill="none" xmlns="http://www.w3.org/2000/svg">
<path d="M0 2.5295C0 1.13453 1.13085 0 2.52582 0C3.92079 0 5.05163 1.13453 5.05163 2.5295C5.05163 3.92447 3.92079 5.0469 2.52582 5.0469C1.13085 5.0469 0 3.92447 0 2.5295Z" fill="white"/>
<path d="M26.9531 29.4742C26.9531 28.0792 28.0755 26.9484 29.4705 26.9484C30.8655 26.9484 32 28.0792 32 29.4742C32 30.8692 30.8655 32 29.4705 32C28.0755 32 26.9531 30.8692 26.9531 29.4742Z" fill="white"/>
<path d="M27.784 22.7387C27.784 21.8087 28.5379 21.0548 29.4679 21.0548C30.3978 21.0548 31.1517 21.8087 31.1517 22.7387C31.1517 23.6686 30.3978 24.4225 29.4679 24.4225C28.5379 24.4225 27.784 23.6686 27.784 22.7387Z" fill="white"/>
<path d="M21.0485 29.4742C21.0485 28.5442 21.8024 27.7903 22.7324 27.7903C23.6623 27.7903 24.4162 28.5442 24.4162 29.4742C24.4162 30.4042 23.6623 31.1581 22.7324 31.1581C21.8024 31.1581 21.0485 30.4042 21.0485 29.4742Z" fill="white"/>
<path d="M0.841939 9.26765C0.841939 8.33767 1.59584 7.58377 2.52582 7.58377C3.4558 7.58377 4.2097 8.33767 4.2097 9.26765C4.2097 10.1976 3.4558 10.9515 2.52582 10.9515C1.59584 10.9515 0.841939 10.1976 0.841939 9.26765Z" fill="white"/>
<path d="M1.68388 22.7387C1.68388 22.2737 2.06083 21.8967 2.52582 21.8967C2.99081 21.8967 3.36776 22.2737 3.36776 22.7387C3.36776 23.2037 2.99081 23.5806 2.52582 23.5806C2.06083 23.5806 1.68388 23.2037 1.68388 22.7387Z" fill="white"/>
<path d="M7.99842 9.26765C7.99842 8.57016 8.56384 8.00474 9.26133 8.00474C9.95881 8.00474 10.5242 8.57016 10.5242 9.26765C10.5242 9.96513 9.95881 10.5306 9.26133 10.5306C8.56384 10.5306 7.99842 9.96513 7.99842 9.26765Z" fill="white"/>
<path d="M8.84036 22.7387C8.84036 22.5062 9.02883 22.3177 9.26133 22.3177C9.49382 22.3177 9.6823 22.5062 9.6823 22.7387C9.6823 22.9712 9.49382 23.1596 9.26133 23.1596C9.02883 23.1596 8.84036 22.9712 8.84036 22.7387Z" fill="white"/>
<path d="M15.1549 9.26765C15.1549 8.80266 15.5319 8.42571 15.9968 8.42571C16.4618 8.42571 16.8388 8.80266 16.8388 9.26765C16.8388 9.73264 16.4618 10.1096 15.9968 10.1096C15.5319 10.1096 15.1549 9.73264 15.1549 9.26765Z" fill="white"/>
<path d="M22.3114 9.26765C22.3114 9.03515 22.4999 8.84667 22.7324 8.84667C22.9649 8.84667 23.1533 9.03515 23.1533 9.26765C23.1533 9.50014 22.9649 9.68861 22.7324 9.68861C22.4999 9.68861 22.3114 9.50014 22.3114 9.26765Z" fill="white"/>
<path d="M1.26291 16.0032C1.26291 15.3057 1.82833 14.7402 2.52582 14.7402C3.2233 14.7402 3.78873 15.3057 3.78873 16.0032C3.78873 16.7006 3.2233 17.2661 2.52582 17.2661C1.82833 17.2661 1.26291 16.7006 1.26291 16.0032Z" fill="white"/>
<path d="M2.10485 29.4742C2.10485 29.2417 2.29332 29.0532 2.52582 29.0532C2.75831 29.0532 2.94679 29.2417 2.94679 29.4742C2.94679 29.7067 2.75831 29.8952 2.52582 29.8952C2.29332 29.8952 2.10485 29.7067 2.10485 29.4742Z" fill="white"/>
<path d="M7.57745 2.53213C7.57745 1.60215 8.33135 0.848254 9.26133 0.848254C10.1913 0.848254 10.9452 1.60215 10.9452 2.53213C10.9452 3.46211 10.1913 4.21601 9.26133 4.21601C8.33135 4.21601 7.57745 3.46211 7.57745 2.53213Z" fill="white"/>
<path d="M8.41939 16.0032C8.41939 15.5382 8.79634 15.1612 9.26133 15.1612C9.72632 15.1612 10.1033 15.5382 10.1033 16.0032C10.1033 16.4681 9.72632 16.8451 9.26133 16.8451C8.79634 16.8451 8.41939 16.4681 8.41939 16.0032Z" fill="white"/>
<path d="M14.7339 2.53213C14.7339 1.83465 15.2994 1.26922 15.9968 1.26922C16.6943 1.26922 17.2598 1.83465 17.2598 2.53213C17.2598 3.22962 16.6943 3.79504 15.9968 3.79504C15.2994 3.79504 14.7339 3.22962 14.7339 2.53213Z" fill="white"/>
<path d="M28.205 16.0032C28.205 15.3057 28.7704 14.7402 29.4679 14.7402C30.1654 14.7402 30.7308 15.3057 30.7308 16.0032C30.7308 16.7006 30.1654 17.2661 29.4679 17.2661C28.7704 17.2661 28.205 16.7006 28.205 16.0032Z" fill="white"/>
<path d="M21.4694 22.7387C21.4694 22.0412 22.0349 21.4758 22.7324 21.4758C23.4298 21.4758 23.9953 22.0412 23.9953 22.7387C23.9953 23.4362 23.4298 24.0016 22.7324 24.0016C22.0349 24.0016 21.4694 23.4362 21.4694 22.7387Z" fill="white"/>
<path d="M14.7339 29.4742C14.7339 28.7767 15.2994 28.2113 15.9968 28.2113C16.6943 28.2113 17.2598 28.7767 17.2598 29.4742C17.2598 30.1717 16.6943 30.7371 15.9968 30.7371C15.2994 30.7371 14.7339 30.1717 14.7339 29.4742Z" fill="white"/>
<path d="M15.5759 16.0032C15.5759 15.7707 15.7643 15.5822 15.9968 15.5822C16.2293 15.5822 16.4178 15.7707 16.4178 16.0032C16.4178 16.2357 16.2293 16.4241 15.9968 16.4241C15.7643 16.4241 15.5759 16.2357 15.5759 16.0032Z" fill="white"/>
<path d="M21.8904 2.53213C21.8904 2.06714 22.2674 1.69019 22.7324 1.69019C23.1973 1.69019 23.5743 2.06714 23.5743 2.53213C23.5743 2.99712 23.1973 3.37407 22.7324 3.37407C22.2674 3.37407 21.8904 2.99712 21.8904 2.53213Z" fill="white"/>
<path d="M15.1549 22.7387C15.1549 22.2737 15.5319 21.8967 15.9968 21.8967C16.4618 21.8967 16.8388 22.2737 16.8388 22.7387C16.8388 23.2037 16.4618 23.5806 15.9968 23.5806C15.5319 23.5806 15.1549 23.2037 15.1549 22.7387Z" fill="white"/>
<path d="M28.6259 9.26765C28.6259 8.80266 29.0029 8.42571 29.4679 8.42571C29.9329 8.42571 30.3098 8.80266 30.3098 9.26765C30.3098 9.73264 29.9329 10.1096 29.4679 10.1096C29.0029 10.1096 28.6259 9.73264 28.6259 9.26765Z" fill="white"/>
<path d="M8.41939 29.4742C8.41939 29.0092 8.79634 28.6322 9.26133 28.6322C9.72632 28.6322 10.1033 29.0092 10.1033 29.4742C10.1033 29.9392 9.72632 30.3161 9.26133 30.3161C8.79634 30.3161 8.41939 29.9392 8.41939 29.4742Z" fill="white"/>
<path d="M21.8904 16.0032C21.8904 15.5382 22.2674 15.1612 22.7324 15.1612C23.1973 15.1612 23.5743 15.5382 23.5743 16.0032C23.5743 16.4681 23.1973 16.8451 22.7324 16.8451C22.2674 16.8451 21.8904 16.4681 21.8904 16.0032Z" fill="white"/>
<path d="M29.0469 2.53213C29.0469 2.29964 29.2354 2.11116 29.4679 2.11116C29.7004 2.11116 29.8888 2.29964 29.8888 2.53213C29.8888 2.76463 29.7004 2.9531 29.4679 2.9531C29.2354 2.9531 29.0469 2.76463 29.0469 2.53213Z" fill="white"/>
</svg>
