<svg width="32" height="32" viewBox="0 0 32 32" fill="none" xmlns="http://www.w3.org/2000/svg">
<path d="M5.42958 10.5281C4.85681 9.92508 4.85681 8.94741 5.42958 8.34439L14.9629 0.452259C15.5357 -0.150753 16.4643 -0.150753 17.0371 0.452259L26.5704 8.34439C27.1432 8.94741 27.1432 9.92508 26.5704 10.5281C25.9977 11.1311 25.069 11.1311 24.4962 10.5281L17.375 4.82835V30.6275C17.375 30.9915 17.2301 31.3406 16.9723 31.598C16.4353 32.134 15.5647 32.134 15.0277 31.598C14.7699 31.3406 14.625 30.9915 14.625 30.6275L14.625 4.82835L7.50376 10.5281C6.93099 11.1311 6.00235 11.1311 5.42958 10.5281Z" fill="white"/>
</svg>
