<svg width="32" height="32" viewBox="0 0 32 32" fill="none" xmlns="http://www.w3.org/2000/svg">
<path fill-rule="evenodd" clip-rule="evenodd" d="M25.8017 9.22698C26.0713 9.52386 26.0652 9.99869 25.7881 10.2875L12.8382 23.7875C12.569 24.0681 12.1412 24.0712 11.8686 23.7945L5.21858 17.0445C4.93793 16.7596 4.92595 16.2849 5.19184 15.9842C5.45772 15.6835 5.90077 15.6707 6.18142 15.9555L12.3435 22.2103L24.8119 9.21246C25.0889 8.9236 25.5321 8.93011 25.8017 9.22698Z" fill="white"/>
<path fill-rule="evenodd" clip-rule="evenodd" d="M16 30.5C24.0081 30.5 30.5 24.0081 30.5 16C30.5 7.99187 24.0081 1.5 16 1.5C7.99187 1.5 1.5 7.99187 1.5 16C1.5 24.0081 7.99187 30.5 16 30.5ZM16 32C24.8366 32 32 24.8366 32 16C32 7.16344 24.8366 0 16 0C7.16344 0 0 7.16344 0 16C0 24.8366 7.16344 32 16 32Z" fill="white"/>
</svg>
