<svg width="32" height="32" viewBox="0 0 32 32" fill="none" xmlns="http://www.w3.org/2000/svg">
<path fill-rule="evenodd" clip-rule="evenodd" d="M4.20874 10.3128C6.86163 7.70751 10.8529 5 16 5C21.1471 5 25.1383 7.70751 27.7912 10.3128C29.1245 11.6222 30.144 12.9286 30.8306 13.9074C31.1745 14.3976 31.4363 14.8078 31.6136 15.098C31.7023 15.2432 31.77 15.3585 31.8162 15.439C31.8394 15.4793 31.8572 15.5108 31.8696 15.5331C31.8758 15.5443 31.8807 15.5531 31.8843 15.5595L31.8885 15.5673L31.8899 15.5698L31.8904 15.5707C31.8906 15.5711 31.8908 15.5714 31.0588 16C31.8908 16.4286 31.8906 16.4289 31.8904 16.4293L31.8899 16.4302L31.8885 16.4327L31.8843 16.4405C31.8807 16.4469 31.8758 16.4557 31.8696 16.4669C31.8572 16.4892 31.8394 16.5207 31.8162 16.561C31.77 16.6415 31.7023 16.7568 31.6136 16.902C31.4363 17.1922 31.1745 17.6024 30.8306 18.0926C30.144 19.0714 29.1245 20.3778 27.7912 21.6872C25.1383 24.2925 21.1471 27 16 27C10.8529 27 6.86163 24.2925 4.20874 21.6872C2.87551 20.3778 1.85598 19.0714 1.1694 18.0926C0.825539 17.6024 0.563683 17.1922 0.386371 16.902C0.297679 16.7568 0.230032 16.6415 0.183754 16.561C0.160612 16.5207 0.142802 16.4891 0.130367 16.4669C0.124149 16.4557 0.119274 16.4469 0.115746 16.4405L0.111465 16.4327L0.109583 16.4293C0.109385 16.4289 0.109209 16.4286 0.941176 16C0.109209 15.5714 0.109385 15.5711 0.109583 15.5707L0.110084 15.5698L0.111465 15.5673L0.115746 15.5595C0.119274 15.5531 0.124149 15.5443 0.130367 15.5331C0.142802 15.5109 0.160612 15.4793 0.183754 15.439C0.230032 15.3585 0.297679 15.2432 0.386371 15.098C0.563683 14.8078 0.825539 14.3976 1.1694 13.9074C1.85598 12.9286 2.87551 11.6222 4.20874 10.3128ZM0.941176 16L0.109209 15.5714C-0.0364029 15.8395 -0.0364029 16.1605 0.109209 16.4286L0.941176 16ZM2.02574 16C2.18513 16.2594 2.41858 16.6235 2.72365 17.0584C3.36326 17.9702 4.31165 19.1847 5.54527 20.3962C8.02607 22.8325 11.5642 25.1667 16 25.1667C20.4358 25.1667 23.9739 22.8325 26.4547 20.3962C27.6883 19.1847 28.6367 17.9702 29.2763 17.0584C29.5814 16.6235 29.8149 16.2594 29.9743 16C29.8149 15.7406 29.5814 15.3765 29.2763 14.9416C28.6367 14.0298 27.6883 12.8153 26.4547 11.6038C23.9739 9.16749 20.4358 6.83333 16 6.83333C11.5642 6.83333 8.02607 9.16749 5.54527 11.6038C4.31165 12.8153 3.36326 14.0298 2.72365 14.9416C2.41858 15.3765 2.18513 15.7406 2.02574 16ZM31.0588 16L31.8908 16.4286C32.0364 16.1605 32.0364 15.8395 31.8908 15.5714L31.0588 16Z" fill="white"/>
<path fill-rule="evenodd" clip-rule="evenodd" d="M11 16C11 13.2385 13.2385 11 16 11C18.7615 11 21 13.2385 21 16C21 18.7615 18.7615 21 16 21C13.2385 21 11 18.7615 11 16ZM16 13C14.3431 13 13 14.3431 13 16C13 17.6569 14.3431 19 16 19C17.6569 19 19 17.6569 19 16C19 14.3431 17.6569 13 16 13Z" fill="white"/>
</svg>
