<svg width="32" height="32" viewBox="0 0 32 32" fill="none" xmlns="http://www.w3.org/2000/svg">
<path fill-rule="evenodd" clip-rule="evenodd" d="M22.7856 17.8321C23.3463 13.6689 20.15 9.96143 16 9.96143C11.85 9.96143 8.65367 13.6689 9.2144 17.8321L10.1266 24.6054C10.5272 27.5791 13.0357 29.7961 16 29.7961C18.9643 29.7961 21.4728 27.5791 21.8734 24.6054L22.7856 17.8321ZM8.15435 7.75758H23.8457C25.1647 7.75758 26.1806 8.93594 26.0024 10.2592L23.331 30.0939C23.1839 31.1859 22.2628 32 21.1742 32H10.8257C9.73725 32 8.81608 31.1859 8.66901 30.0939L5.99761 10.2592C5.81939 8.93594 6.8353 7.75758 8.15435 7.75758Z" fill="white"/>
<path fill-rule="evenodd" clip-rule="evenodd" d="M25.3947 3.60174H19.7949C19.4567 1.12794 17.9821 0 16 0C14.0179 0 12.5433 1.12794 12.2051 3.60174H6.60526C5.99484 3.60174 5.5 4.09791 5.5 4.70996C5.5 5.32201 5.99484 5.81818 6.60526 5.81818H25.3947C26.0052 5.81818 26.5 5.32201 26.5 4.70996C26.5 4.09791 26.0052 3.60174 25.3947 3.60174ZM17.5655 3.60174H14.4347C14.7192 2.05604 15.5877 1.66233 16.0001 1.66233C16.4125 1.66233 17.2809 2.05605 17.5655 3.60174Z" fill="white"/>
</svg>
