<svg width="32" height="32" viewBox="0 0 32 32" fill="none" xmlns="http://www.w3.org/2000/svg">
<path fill-rule="evenodd" clip-rule="evenodd" d="M18.0725 4.6495V26.6559H22.6142V29.9731H7.0894V26.6559H11.631V4.6495H7.28801L6.48668 10.4966H2.86251V7.23955C2.86251 4.78632 2.72586 3.09337 2.48944 2.08583L2 0L4.21 0.581461C4.96704 0.780642 6.45882 0.911661 8.82624 0.911661H20.8773C23.2448 0.911661 24.7366 0.780642 25.4936 0.581461L27.7036 1.52588e-07L27.2141 2.08583C26.9777 3.09337 26.8411 4.78632 26.8411 7.23955V10.4966H23.2169L22.4156 4.6495H18.0725Z" fill="white"/>
<path fill-rule="evenodd" clip-rule="evenodd" d="M25.4426 4.17026C25.2347 4.18031 25.018 4.1888 24.7926 4.19571C24.2955 4.21097 23.7559 4.21859 23.1738 4.21859H11.1226C10.5405 4.21859 10.0009 4.21097 9.50384 4.19571C9.27841 4.1888 9.06175 4.18031 8.85383 4.17026C8.38548 4.1476 7.96157 4.11699 7.58209 4.07842C6.99051 4.01829 6.50692 3.93882 6.13133 3.84C6.22088 4.22162 6.29556 4.67585 6.35539 5.20267C6.46122 6.13457 6.52055 7.29364 6.53337 8.67988C6.53514 8.87109 6.53603 9.06662 6.53603 9.26648V11.2436H7.57027L8.24477 6.32188C8.28933 5.86334 8.53259 5.5752 8.97456 5.45746C9.12726 5.41677 9.30369 5.39643 9.50384 5.39643H15.3046V29.458C15.3046 29.7946 15.0947 29.9628 14.675 29.9628H10.7629V30.72H23.5335V29.9628H19.6214C19.2017 29.9628 18.9918 29.7946 18.9918 29.458V5.39643H24.7926C24.9927 5.39643 25.1691 5.41677 25.3218 5.45746C25.7638 5.5752 26.0071 5.86334 26.0516 6.32188L26.7261 11.2436H27.7604V9.26648C27.7604 9.06662 27.7613 8.87109 27.763 8.67988C27.7759 7.29364 27.8352 6.13457 27.941 5.20267C28.0008 4.67585 28.0755 4.22162 28.1651 3.84C27.7895 3.93882 27.3059 4.01829 26.7143 4.07842C26.3348 4.11699 25.9109 4.1476 25.4426 4.17026ZM20.3689 6.67643V28.6828H24.9106V32H9.3858V28.6828H13.9275V6.67643H9.58441L8.78308 12.5236H5.15892V9.26648C5.15892 6.81325 5.02227 5.1203 4.78585 4.11276L4.29641 2.02693L6.5064 2.60839C7.26344 2.80757 8.75523 2.93859 11.1226 2.93859H23.1738C25.5412 2.93859 27.033 2.80757 27.79 2.60839L30 2.02693L29.5106 4.11276C29.2741 5.1203 29.1375 6.81325 29.1375 9.26648V12.5236H25.5133L24.712 6.67643H20.3689Z" fill="white"/>
</svg>
