<svg width="32" height="32" viewBox="0 0 32 32" fill="none" xmlns="http://www.w3.org/2000/svg">
<path d="M26 16C26 13.2386 23.7614 11 21 11V11C18.2386 11 16 13.2386 16 16V20C16 20.5523 15.5523 21 15 21H12.4142C11.5233 21 11.0771 22.0771 11.7071 22.7071L20.2929 31.2929C20.6834 31.6834 21.3166 31.6834 21.7071 31.2929L30.2929 22.7071C30.9229 22.0771 30.4767 21 29.5858 21H27C26.4477 21 26 20.5523 26 20V16Z" fill="white"/>
<path d="M7 2H21C22.6569 2 24 3.34315 24 5V9.99963C23.4186 9.56292 22.7389 9.25 22 9.10002V5C22 4.44772 21.5523 4 21 4H7C6.44772 4 6 4.44772 6 5V6C5.57356 5.86786 5.10996 5.80179 4.6092 5.80179C4.4008 5.80179 4.19774 5.81372 4 5.83759V5C4 3.34314 5.34315 2 7 2Z" fill="white"/>
<path d="M4 16.5V26C4 27.6569 5.34315 29 7 29H15L13 27H7C6.44772 27 6 26.5523 6 26V16.3346C5.56809 16.4678 5.10083 16.5343 4.5982 16.5343C4.39382 16.5343 4.19442 16.5229 4 16.5Z" fill="white"/>
<path d="M14.9554 7.29999C15.5399 7.29999 15.9332 7.89874 15.701 8.43517L13.1203 14.3972C12.9619 14.7631 12.6013 15 12.2025 15H11.757C11.3579 15 10.9969 14.7626 10.8388 14.3961L8.30886 8.53197C8.05754 7.94945 8.48467 7.29999 9.1191 7.29999V7.29999C9.47279 7.29999 9.79231 7.51118 9.93093 7.83657L12.0453 12.8L14.2096 7.79024C14.3381 7.49267 14.6312 7.29999 14.9554 7.29999V7.29999Z" fill="white"/>
<path d="M4.5982 15.132C3.81353 15.132 3.1022 14.9633 2.4642 14.626C1.83353 14.2813 1.33487 13.8083 0.968199 13.207C0.608866 12.5983 0.429199 11.9127 0.429199 11.15C0.429199 10.3873 0.608866 9.70533 0.968199 9.104C1.33487 8.49533 1.83353 8.02233 2.4642 7.685C3.1022 7.34033 3.8172 7.168 4.6092 7.168C5.27653 7.168 5.87787 7.28533 6.4132 7.52C6.71773 7.65169 6.99454 7.81571 7.24365 8.01206C7.57207 8.27092 7.53606 8.75459 7.22878 9.03823V9.03823C6.90296 9.33899 6.39953 9.2938 6.0247 9.0569C5.63346 8.80963 5.19096 8.686 4.6972 8.686C4.22053 8.686 3.7952 8.79233 3.4212 9.005C3.0472 9.21033 2.75387 9.5 2.5412 9.874C2.33587 10.248 2.2332 10.6733 2.2332 11.15C2.2332 11.6267 2.33587 12.052 2.5412 12.426C2.75387 12.8 3.0472 13.0933 3.4212 13.306C3.7952 13.5113 4.22053 13.614 4.6972 13.614C5.19054 13.614 5.63271 13.4891 6.0237 13.2392C6.39918 12.9993 6.90538 12.9522 7.23281 13.2545V13.2545C7.53851 13.5367 7.57654 14.0173 7.25209 14.2777C7.0008 14.4794 6.72117 14.6468 6.4132 14.78C5.87053 15.0147 5.26553 15.132 4.5982 15.132Z" fill="white"/>
</svg>
