<svg width="32" height="32" viewBox="0 0 32 32" fill="none" xmlns="http://www.w3.org/2000/svg">
<path fill-rule="evenodd" clip-rule="evenodd" d="M17 19.2683C17 19.6724 16.6067 20 16.1215 20C15.5245 20 14.9494 19.9145 14.4142 19.7569C12.9583 19.328 11.8061 18.3674 11.2916 17.1543L11.2915 17.1541C11.1026 16.7083 11 16.2292 11 15.7317C11 15.3276 11.3933 15 11.8785 15C12.3636 15 12.757 15.3276 12.757 15.7317C12.757 16.0608 12.8247 16.3753 12.9483 16.667C13.2861 17.4635 14.0449 18.0958 15.0001 18.3772L15.0001 18.3772C15.3497 18.4802 15.7268 18.5366 16.1215 18.5366C16.6067 18.5366 17 18.8642 17 19.2683Z" fill="white"/>
<path fill-rule="evenodd" clip-rule="evenodd" d="M18.0115 24.9211C17.5634 24.9727 17.1044 25 16.6349 25C12.2433 25 8.84052 22.6222 6.58128 20.3382C5.44543 19.1899 4.57693 18.0443 3.99216 17.1861C3.6993 16.7563 3.47631 16.3968 3.32537 16.1424C3.24987 16.0152 3.1923 15.9142 3.15295 15.8437C3.13327 15.8085 3.11814 15.7808 3.10758 15.7614C3.1023 15.7517 3.09817 15.744 3.09518 15.7384L3.09157 15.7316L3.08999 15.7286C3.08982 15.7283 3.08968 15.728 3.79737 15.3665C3.08968 15.005 3.08974 15.0049 3.0898 15.0048L3.08994 15.0045L3.09029 15.0039L3.09123 15.0021L3.0941 14.9967C3.09645 14.9923 3.09967 14.9863 3.10376 14.9787C3.11195 14.9636 3.12362 14.9422 3.13876 14.9148C3.16904 14.8602 3.2132 14.7819 3.27105 14.6829C3.38671 14.4848 3.55735 14.2034 3.78152 13.8618C4.22931 13.1795 4.89365 12.2527 5.76346 11.2695C6.0526 10.9426 6.55625 10.9083 6.88841 11.1928C7.22056 11.4773 7.25544 11.973 6.9663 12.2998C6.1567 13.215 5.53728 14.0791 5.12117 14.7132C4.94908 14.9754 4.81228 15.1975 4.71165 15.3665C4.8479 15.5954 5.05032 15.9213 5.31669 16.3122C5.86251 17.1132 6.67166 18.1798 7.72404 19.2437C9.84126 21.3841 12.8572 23.4307 16.6349 23.4307C17.0415 23.4307 17.4385 23.4071 17.8259 23.3625C18.2333 23.3155 18.6305 23.2452 19.0175 23.1544C19.4459 23.0539 19.8759 23.3141 19.9781 23.7357C20.0802 24.1572 19.8158 24.5804 19.3874 24.6809C18.9415 24.7855 18.4827 24.8668 18.0115 24.9211ZM3.79737 15.3665L3.08968 15.005C2.97011 15.2317 2.97011 15.5014 3.08968 15.728L3.79737 15.3665Z" fill="white"/>
<path fill-rule="evenodd" clip-rule="evenodd" d="M15 11.7317C15 11.3276 15.3933 11 15.8785 11C16.4755 11 17.0506 11.0855 17.5858 11.2431C19.0417 11.672 20.1939 12.6326 20.7084 13.8457L20.7085 13.8459C20.8974 14.2917 21 14.7708 21 15.2683C21 15.6724 20.6067 16 20.1215 16C19.6364 16 19.243 15.6724 19.243 15.2683C19.243 14.9392 19.1753 14.6247 19.0517 14.333C18.7139 13.5365 17.9551 12.9042 16.9999 12.6228L16.9999 12.6228C16.6503 12.5198 16.2732 12.4634 15.8785 12.4634C15.3933 12.4634 15 12.1358 15 11.7317Z" fill="white"/>
<path fill-rule="evenodd" clip-rule="evenodd" d="M13.9885 6.07893C14.4366 6.02728 14.8956 6 15.3651 6C19.7567 6 23.1595 8.37777 25.4187 10.6618C26.5546 11.8101 27.4231 12.9557 28.0078 13.8139C28.3007 14.2437 28.5237 14.6032 28.6746 14.8576C28.7501 14.9848 28.8077 15.0858 28.8471 15.1563C28.8667 15.1915 28.8819 15.2192 28.8924 15.2386C28.8977 15.2483 28.9018 15.256 28.9048 15.2616L28.9084 15.2684L28.91 15.2714C28.9102 15.2717 28.9103 15.272 28.2026 15.6335C28.9103 15.995 28.9103 15.9951 28.9102 15.9952L28.9101 15.9955L28.9097 15.9961L28.9088 15.9979L28.9059 16.0033C28.9036 16.0077 28.9003 16.0137 28.8962 16.0213C28.8881 16.0364 28.8764 16.0578 28.8612 16.0852C28.831 16.1398 28.7868 16.2181 28.729 16.3171C28.6133 16.5152 28.4426 16.7966 28.2185 17.1382C27.7707 17.8205 27.1064 18.7473 26.2365 19.7305C25.9474 20.0574 25.4437 20.0917 25.1116 19.8072C24.7794 19.5227 24.7446 19.027 25.0337 18.7002C25.8433 17.785 26.4627 16.9209 26.8788 16.2868C27.0509 16.0246 27.1877 15.8025 27.2884 15.6335C27.1521 15.4046 26.9497 15.0787 26.6833 14.6878C26.1375 13.8868 25.3283 12.8202 24.276 11.7563C22.1587 9.6159 19.1428 7.56925 15.3651 7.56925C14.9585 7.56925 14.5615 7.59287 14.1741 7.63752C13.7667 7.68448 13.3695 7.75478 12.9825 7.84558C12.5541 7.94609 12.1241 7.68586 12.0219 7.26434C11.9198 6.84283 12.1842 6.41964 12.6126 6.31912C13.0585 6.21449 13.5173 6.13324 13.9885 6.07893ZM28.2026 15.6335L28.9103 15.995C29.0299 15.7683 29.0299 15.4986 28.9103 15.272L28.2026 15.6335Z" fill="white"/>
<path fill-rule="evenodd" clip-rule="evenodd" d="M27.7729 26.7829C27.4703 27.0725 26.9798 27.0724 26.6773 26.7825L4.22671 5.26638C3.92428 4.97654 3.92445 4.50677 4.22709 4.21713C4.52973 3.92748 5.02024 3.92765 5.32267 4.21749L27.7733 25.7336C28.0757 26.0235 28.0755 26.4932 27.7729 26.7829Z" fill="white"/>
</svg>
