<svg width="32" height="32" viewBox="0 0 32 32" fill="none" xmlns="http://www.w3.org/2000/svg">
<path fill-rule="evenodd" clip-rule="evenodd" d="M0.429974 31.57C-0.184246 30.9558 -0.134454 29.9102 0.541189 29.2345L29.2345 0.54119C29.9102 -0.134452 30.9558 -0.184246 31.57 0.429974C32.1842 1.04419 32.1345 2.08984 31.4588 2.76548L2.76548 31.4588C2.08983 32.1345 1.04419 32.1842 0.429974 31.57Z" fill="white"/>
<path fill-rule="evenodd" clip-rule="evenodd" d="M31.57 31.57C30.9558 32.1842 29.9102 32.1345 29.2345 31.4588L0.54119 2.76548C-0.134452 2.08984 -0.184246 1.04419 0.429974 0.429974C1.04419 -0.184246 2.08984 -0.134453 2.76548 0.541189L31.4588 29.2345C32.1345 29.9102 32.1842 30.9558 31.57 31.57Z" fill="white"/>
</svg>
