<svg width="32" height="32" viewBox="0 0 32 32" fill="none" xmlns="http://www.w3.org/2000/svg">
<path d="M20.2393 7.96547C21.2262 7.96547 21.929 8.18034 22.3477 8.61007C22.7364 9.03981 22.9308 9.69976 22.9308 10.5899V10.9122C22.9308 12.6926 22.4972 14.1813 21.6299 15.3784C20.7626 16.5755 19.3271 17.9108 17.3234 19.3842C16.1869 20.213 15.4692 20.7808 15.1701 21.0878C14.871 21.3947 14.7215 21.8398 14.7215 22.423C14.7215 23.6508 15.7682 24.2647 17.8617 24.2647C18.7888 24.2647 19.7607 24.0806 20.7776 23.7122C21.7645 23.3439 22.6617 22.8835 23.4692 22.3309C23.828 22.0547 24.157 21.9165 24.4561 21.9165C24.785 21.9165 25.0841 22.1468 25.3533 22.6072L27.5963 26.5669C27.8654 27.058 28 27.4417 28 27.718C28 28.0556 27.8206 28.3626 27.4617 28.6388C25.8766 29.7439 24.2168 30.5727 22.4822 31.1252C20.7178 31.7084 18.6542 32 16.2916 32C12.6131 32 9.65234 31.1712 7.40934 29.5137C5.13645 27.8561 4 25.5233 4 22.5151C4 20.6734 4.41869 19.154 5.25607 17.9568C6.06355 16.7904 7.31963 15.67 9.0243 14.5957C10.1607 13.8897 10.9682 13.2451 11.4467 12.6619C11.9252 12.1094 12.1645 11.4954 12.1645 10.8201V10.5899C12.1645 9.69976 12.3738 9.03981 12.7925 8.61007C13.1813 8.18034 13.8841 7.96547 14.9009 7.96547H20.2393ZM19.5215 0C21.914 0 23.1103 0.844126 23.1103 2.53237V3.68345C23.1103 5.3717 21.914 6.21583 19.5215 6.21583H15.6187C13.1963 6.21583 11.985 5.3717 11.985 3.68345V2.53237C11.985 0.844126 13.1963 0 15.6187 0H19.5215Z" fill="white"/>
</svg>
