<svg width="32" height="32" viewBox="0 0 32 32" fill="none" xmlns="http://www.w3.org/2000/svg">
<path d="M3 2C1.34375 2 0 3.34375 0 5V27C0 28.6562 1.34375 30 3 30H29C30.6562 30 32 28.6562 32 27V5C32 3.34375 30.6562 2 29 2H3ZM3 4H9.625C9.83125 4 10 4.16875 10 4.375V5.625C10 5.83125 9.83125 6 9.625 6H2.375C2.16875 6 2 5.83125 2 5.625V5C2 4.45 2.45 4 3 4ZM29.625 10H2.375C2.16875 10 2 9.83125 2 9.625V7.375C2 7.16875 2.16875 7 2.375 7H11L12.8875 4.16875C12.9563 4.0625 13.075 4 13.2 4H29C29.55 4 30 4.45 30 5V9.625C30 9.83125 29.8312 10 29.625 10ZM16 26.5C11.8625 26.5 8.5 23.1375 8.5 19C8.5 14.8625 11.8625 11.5 16 11.5C20.1375 11.5 23.5 14.8625 23.5 19C23.5 23.1375 20.1375 26.5 16 26.5ZM16 13.5C12.9688 13.5 10.5 15.9688 10.5 19C10.5 22.0312 12.9688 24.5 16 24.5C19.0312 24.5 21.5 22.0312 21.5 19C21.5 15.9688 19.0312 13.5 16 13.5ZM13 20C12.45 20 12 19.55 12 19C12 16.7937 13.7937 15 16 15C16.55 15 17 15.45 17 16C17 16.55 16.55 17 16 17C14.9 17 14 17.9 14 19C14 19.55 13.55 20 13 20Z" fill="white"/>
</svg>
