<svg width="32" height="32" viewBox="0 0 32 32" fill="none" xmlns="http://www.w3.org/2000/svg">
<path d="M3 16C3 16.8284 2.32843 17.5 1.5 17.5C0.671573 17.5 0 16.8284 0 16C0 15.1716 0.671573 14.5 1.5 14.5C2.32843 14.5 3 15.1716 3 16Z" fill="white"/>
<path d="M18 2C18 3.10457 17.1046 4 16 4C14.8954 4 14 3.10457 14 2C14 0.89543 14.8954 0 16 0C17.1046 0 18 0.89543 18 2Z" fill="white"/>
<path d="M32 16C32 17.3807 30.8807 18.5 29.5 18.5C28.1193 18.5 27 17.3807 27 16C27 14.6193 28.1193 13.5 29.5 13.5C30.8807 13.5 32 14.6193 32 16Z" fill="white"/>
<path d="M19 29C19 30.6569 17.6569 32 16 32C14.3431 32 13 30.6569 13 29C13 27.3431 14.3431 26 16 26C17.6569 26 19 27.3431 19 29Z" fill="white"/>
<path d="M7.16761 7.16744C6.4842 7.85085 5.37616 7.85085 4.69274 7.16744C4.00932 6.48402 4.00932 5.37598 4.69274 4.69256C5.37616 4.00915 6.4842 4.00915 7.16761 4.69256C7.85103 5.37598 7.85103 6.48402 7.16761 7.16744Z" fill="white"/>
<path d="M27.3112 7.87099C26.4325 8.74967 25.0079 8.74967 24.1292 7.87099C23.2505 6.99231 23.2505 5.56769 24.1292 4.68901C25.0079 3.81033 26.4325 3.81033 27.3112 4.68901C28.1899 5.56769 28.1899 6.99231 27.3112 7.87099Z" fill="white"/>
<path d="M27.3044 27.3045C26.2305 28.3785 24.4893 28.3785 23.4153 27.3045C22.3414 26.2306 22.3414 24.4894 23.4153 23.4155C24.4893 22.3415 26.2305 22.3415 27.3044 23.4155C28.3783 24.4894 28.3783 26.2306 27.3044 27.3045Z" fill="white"/>
</svg>
