<svg width="32" height="32" viewBox="0 0 32 32" fill="none" xmlns="http://www.w3.org/2000/svg">
<path fill-rule="evenodd" clip-rule="evenodd" d="M6.4196 11.3469C8.57507 9.21524 11.818 7 16 7C20.182 7 23.4249 9.21524 25.5804 11.3469C26.6636 12.4181 27.492 13.487 28.0499 14.2879C28.3292 14.6889 28.542 15.0245 28.6861 15.262C28.7581 15.3808 28.8131 15.4751 28.8507 15.541C28.8695 15.5739 28.884 15.5998 28.8941 15.618C28.8991 15.6271 28.9031 15.6343 28.906 15.6396L28.9094 15.6459L28.9106 15.648L28.911 15.6488C28.9111 15.6491 28.9113 15.6493 28.2353 16C28.9113 16.3507 28.9111 16.3509 28.911 16.3512L28.9106 16.352L28.9094 16.3541L28.906 16.3604C28.9031 16.3657 28.8991 16.3729 28.8941 16.382C28.884 16.4002 28.8695 16.4261 28.8507 16.459C28.8131 16.5249 28.7581 16.6192 28.6861 16.738C28.542 16.9755 28.3292 17.3111 28.0499 17.7121C27.492 18.513 26.6636 19.5819 25.5804 20.6531C23.4249 22.7848 20.182 25 16 25C11.818 25 8.57507 22.7848 6.4196 20.6531C5.33635 19.5819 4.50799 18.513 3.95013 17.7121C3.67075 17.3111 3.45799 16.9755 3.31393 16.738C3.24186 16.6192 3.1869 16.5249 3.1493 16.459C3.1305 16.4261 3.11603 16.4002 3.10592 16.382C3.10087 16.3729 3.09691 16.3657 3.09404 16.3604L3.09057 16.3541L3.08904 16.3512C3.08888 16.3509 3.08873 16.3507 3.76471 16C3.08873 15.6493 3.08888 15.6491 3.08904 15.6488L3.08944 15.648L3.09057 15.646L3.09404 15.6396C3.09691 15.6343 3.10087 15.6271 3.10592 15.618C3.11603 15.5998 3.1305 15.574 3.1493 15.541C3.1869 15.4751 3.24186 15.3808 3.31393 15.262C3.45799 15.0245 3.67075 14.6889 3.95013 14.2879C4.50799 13.487 5.33635 12.4181 6.4196 11.3469ZM3.76471 16L3.08873 15.6493C2.97042 15.8687 2.97042 16.1313 3.08873 16.3507L3.76471 16ZM4.64591 16C4.77542 16.2122 4.9651 16.5101 5.21297 16.866C5.73265 17.612 6.50322 18.6056 7.50553 19.5969C9.52118 21.5902 12.3959 23.5 16 23.5C19.6041 23.5 22.4788 21.5902 24.4945 19.5969C25.4968 18.6056 26.2673 17.612 26.787 16.866C27.0349 16.5101 27.2246 16.2122 27.3541 16C27.2246 15.7878 27.0349 15.4899 26.787 15.134C26.2673 14.388 25.4968 13.3944 24.4945 12.4031C22.4788 10.4098 19.6041 8.5 16 8.5C12.3959 8.5 9.52118 10.4098 7.50553 12.4031C6.50322 13.3944 5.73265 14.388 5.21297 15.134C4.9651 15.4899 4.77542 15.7878 4.64591 16ZM28.2353 16L28.9113 16.3507C29.0296 16.1313 29.0296 15.8687 28.9113 15.6493L28.2353 16Z" fill="white"/>
<path fill-rule="evenodd" clip-rule="evenodd" d="M12 16C12 13.7908 13.7908 12 16 12C18.2092 12 20 13.7908 20 16C20 18.2092 18.2092 20 16 20C13.7908 20 12 18.2092 12 16ZM16 13.6C14.6745 13.6 13.6 14.6745 13.6 16C13.6 17.3255 14.6745 18.4 16 18.4C17.3255 18.4 18.4 17.3255 18.4 16C18.4 14.6745 17.3255 13.6 16 13.6Z" fill="white"/>
</svg>
