<svg width="32" height="32" viewBox="0 0 32 32" fill="none" xmlns="http://www.w3.org/2000/svg">
<path d="M0 8.81334L1.54839 8.81333V22.2586L1.55575 22.3175C1.6373 22.9698 1.80274 23.6613 2.34507 24.2101C2.87595 24.7474 3.61726 24.9951 4.44153 25.1544C7.00043 25.649 8.83515 26.0279 10.4781 26.6795C11.0242 26.8961 11.553 27.1447 12.081 27.4416C8.14982 26.9177 5.10427 27.1003 1.39975 27.9669C0.66342 28.1391 0 27.6148 0 26.9703V8.81334Z" fill="white"/>
<path d="M30.5039 27.85C26.766 26.9204 23.6686 26.9208 19.8056 27.4747C20.3871 27.1096 20.9603 26.8046 21.5526 26.545C23.1338 25.8521 24.9186 25.4541 27.4747 25.1672C28.287 25.076 29.0471 24.8614 29.6064 24.302C30.1555 23.7527 30.347 23.0315 30.4429 22.328L30.4516 22.2639V8.81332H32V26.8337C32 27.4881 31.2963 28.047 30.5039 27.85Z" fill="white"/>
<path d="M20.6958 24.7408C19.4202 25.2997 18.254 26.0256 17.0323 26.9697V8.26599C19.2745 6.36204 21.0465 5.21044 22.7369 4.59089C24.2397 4.04008 25.7374 3.88858 27.5361 4.07728C28.027 4.12879 28.3871 4.55248 28.3871 5.04611V22.132C28.3069 22.6739 28.193 22.8527 28.1174 22.9283C28.0491 22.9966 27.8652 23.1267 27.235 23.1975C24.5788 23.4957 22.5546 23.9262 20.6958 24.7408Z" fill="white"/>
<path d="M11.266 24.8466C12.5551 25.3578 13.7438 26.0183 14.9677 26.9449V8.26599C12.7255 6.36204 10.9535 5.21044 9.26314 4.59089C7.76032 4.04008 6.26263 3.88858 4.46393 4.07728C3.973 4.12879 3.6129 4.55248 3.6129 5.04611V22.1375C3.68039 22.6338 3.77576 22.7774 3.84247 22.8449C3.9231 22.9265 4.13939 23.0732 4.8488 23.2103C7.37491 23.6985 9.40774 24.1095 11.266 24.8466Z" fill="white"/>
</svg>
