<svg width="32" height="32" viewBox="0 0 32 32" fill="none" xmlns="http://www.w3.org/2000/svg">
<path fill-rule="evenodd" clip-rule="evenodd" d="M16 10C16.5523 10 17 10.5582 17 11L17 21C17 21.4418 16.5523 22 16 22C15.4477 22 15 21.4418 15 21L15 11C15 10.5582 15.4477 10 16 10Z" fill="white"/>
<path d="M17 25C17 25.5523 16.5523 26 16 26C15.4477 26 15 25.5523 15 25C15 24.4477 15.4477 24 16 24C16.5523 24 17 24.4477 17 25Z" fill="white"/>
<path fill-rule="evenodd" clip-rule="evenodd" d="M17.065 3.93322C16.6123 3.09918 15.3877 3.09918 14.935 3.93322L2.43248 26.9677C2.02431 27.7198 2.55468 28.6923 3.4975 28.6923H28.5025C29.4453 28.6923 29.9757 27.7198 29.5675 26.9677L17.065 3.93322ZM12.9311 2.82401C14.2512 0.392003 17.7488 0.391994 19.0689 2.824L31.5714 25.8585C32.8475 28.2097 31.1123 31 28.5025 31H3.4975C0.887674 31 -0.847495 28.2097 0.428641 25.8585L12.9311 2.82401Z" fill="white"/>
</svg>
