<svg width="32" height="32" viewBox="0 0 32 32" fill="none" xmlns="http://www.w3.org/2000/svg">
<path fill-rule="evenodd" clip-rule="evenodd" d="M10.3776 9.38713L14.2834 1.11315C14.9892 -0.380411 17.0168 -0.361663 17.7166 1.11315L21.6224 9.38713L30.3611 10.7182C31.9282 10.9557 32.5562 12.9742 31.4198 14.1303L25.0976 20.567L26.5929 29.6596C26.862 31.3032 25.2052 32.528 23.8176 31.7656L16 27.4724L8.18244 31.7656C6.79478 32.5343 5.13796 31.3032 5.40712 29.6596L6.90245 20.567L0.580214 14.1303C-0.556232 12.9742 0.071804 10.9557 1.6389 10.7182L10.3776 9.38713ZM12.1346 11.4537L14.6396 5.5C14.9131 4.92126 15.5 3.5 16 3.5C16.5 3.5 17.04 5.05754 17.25 5.5L19.8654 11.4537L27 12.3688C27.5278 12.4488 28.8488 12.546 29 13C29.1575 13.4728 28.1264 14.3091 27.7278 14.7146L22.2546 19.7525L23.5 26.5C23.5903 27.0516 23.8652 28.211 23.5 28.5C23.1171 28.803 22.0803 28.2162 21.592 27.9479L16 24.5L10.408 27.9479C9.91887 28.2188 8.88303 28.8048 8.5 28.5C8.13602 28.2103 8.40984 27.0506 8.5 26.5L9.74543 19.7525L4.5 14.7146C4.10143 14.3091 3.29931 13.6025 3.5 13C3.70069 12.3975 4.70008 12.4488 5.22785 12.3688L12.1346 11.4537Z" fill="white"/>
</svg>
