<svg width="32" height="32" viewBox="0 0 32 32" fill="none" xmlns="http://www.w3.org/2000/svg">
<path d="M20 7.875C20.4747 7.875 20.9387 7.73204 21.3334 7.46421C21.728 7.19637 22.0357 6.81569 22.2173 6.37029C22.399 5.9249 22.4465 5.4348 22.3539 4.96197C22.2613 4.48914 22.0327 4.05482 21.6971 3.71393C21.3614 3.37304 20.9338 3.14089 20.4682 3.04684C20.0027 2.95279 19.5201 3.00106 19.0816 3.18554C18.643 3.37003 18.2682 3.68245 18.0045 4.0833C17.7408 4.48414 17.6 4.95541 17.6 5.4375C17.6 6.08397 17.8529 6.70395 18.3029 7.16107C18.753 7.61819 19.3635 7.875 20 7.875ZM19.8 14.0195C20.0837 14.2503 20.4365 14.3757 20.8 14.375H24C24.4243 14.375 24.8313 14.2038 25.1314 13.899C25.4314 13.5943 25.6 13.181 25.6 12.75C25.6 12.319 25.4314 11.9057 25.1314 11.601C24.8313 11.2962 24.4243 11.125 24 11.125H21.361L17.8 8.23047C17.5094 7.99349 17.1463 7.86722 16.7736 7.87353C16.401 7.87983 16.0422 8.01832 15.7595 8.265L10.1595 13.14C9.97193 13.3033 9.82415 13.5086 9.72775 13.7396C9.63134 13.9707 9.58894 14.2213 9.60386 14.4718C9.61878 14.7222 9.69061 14.9658 9.81373 15.1834C9.93685 15.4009 10.1079 15.5866 10.3135 15.7258L14.4 18.4944V24.125C14.4 24.556 14.5686 24.9693 14.8686 25.274C15.1687 25.5788 15.5757 25.75 16 25.75C16.4243 25.75 16.8313 25.5788 17.1314 25.274C17.4314 24.9693 17.6 24.556 17.6 24.125V17.625C17.6 17.3575 17.5349 17.0942 17.4106 16.8584C17.2863 16.6226 17.1066 16.4216 16.8875 16.2732L14.8195 14.8732L17.732 12.3382L19.8 14.0195ZM25.6 16C24.3342 16 23.0968 16.3812 22.0444 17.0954C20.9919 17.8097 20.1716 18.8248 19.6872 20.0126C19.2028 21.2003 19.076 22.5072 19.323 23.7681C19.5699 25.029 20.1795 26.1872 21.0745 27.0962C21.9696 28.0052 23.1099 28.6243 24.3514 28.8751C25.5929 29.1259 26.8797 28.9972 28.0492 28.5052C29.2186 28.0132 30.2182 27.1801 30.9214 26.1112C31.6246 25.0423 32 23.7856 32 22.5C32 20.7761 31.3257 19.1228 30.1255 17.9038C28.9253 16.6848 27.2974 16 25.6 16ZM25.6 25.75C24.9671 25.75 24.3484 25.5594 23.8222 25.2023C23.2959 24.8452 22.8858 24.3376 22.6436 23.7437C22.4014 23.1499 22.338 22.4964 22.4615 21.866C22.585 21.2355 22.8897 20.6564 23.3373 20.2019C23.7848 19.7474 24.355 19.4378 24.9757 19.3124C25.5965 19.187 26.2399 19.2514 26.8246 19.4974C27.4093 19.7434 27.9091 20.1599 28.2607 20.6944C28.6123 21.2289 28.8 21.8572 28.8 22.5C28.8 23.362 28.4629 24.1886 27.8627 24.7981C27.2626 25.4076 26.4487 25.75 25.6 25.75ZM6.4 16C5.1342 16 3.89683 16.3812 2.84435 17.0954C1.79188 17.8097 0.971575 18.8248 0.487174 20.0126C0.002773 21.2003 -0.123968 22.5072 0.122977 23.7681C0.369922 25.029 0.979463 26.1872 1.87452 27.0962C2.76958 28.0052 3.90995 28.6243 5.15142 28.8751C6.3929 29.1259 7.67973 28.9972 8.84918 28.5052C10.0186 28.0132 11.0182 27.1801 11.7214 26.1112C12.4246 25.0423 12.8 23.7856 12.8 22.5C12.8 20.7761 12.1257 19.1228 10.9255 17.9038C9.72525 16.6848 8.09739 16 6.4 16ZM6.4 25.75C5.7671 25.75 5.14842 25.5594 4.62218 25.2023C4.09594 24.8452 3.68579 24.3376 3.44359 23.7437C3.20139 23.1499 3.13802 22.4964 3.26149 21.866C3.38496 21.2355 3.68973 20.6564 4.13726 20.2019C4.58479 19.7474 5.15497 19.4378 5.77571 19.3124C6.39645 19.187 7.03987 19.2514 7.62459 19.4974C8.20931 19.7434 8.70908 20.1599 9.06071 20.6944C9.41233 21.2289 9.6 21.8572 9.6 22.5C9.6 23.362 9.26286 24.1886 8.66274 24.7981C8.06263 25.4076 7.2487 25.75 6.4 25.75Z" fill="white"/>
</svg>
