<svg width="32" height="32" viewBox="0 0 32 32" fill="none" xmlns="http://www.w3.org/2000/svg">
<path fill-rule="evenodd" clip-rule="evenodd" d="M16 10C17.1046 10 18 9.10457 18 8C18 6.89543 17.1046 6 16 6C14.8954 6 14 6.89543 14 8C14 9.10457 14.8954 10 16 10ZM13 13.25C13 12.5596 13.5223 12 14.1667 12H17.2778C17.9221 12 18.4444 12.5596 18.4444 13.25V24.0833C18.4444 24.3135 18.6186 24.5 18.8333 24.5C19.4777 24.5 20 25.0596 20 25.75C20 26.4404 19.4777 27 18.8333 27H14.1667C13.5223 27 13 26.4404 13 25.75C13 25.0596 13.5223 24.5 14.1667 24.5C14.3814 24.5 14.5556 24.3135 14.5556 24.0833V15.4317C14.5556 15.2739 14.4723 15.1296 14.3406 15.059L13.6449 14.6863C13.2497 14.4746 13 14.0418 13 13.5683V13.25Z" fill="white"/>
<path fill-rule="evenodd" clip-rule="evenodd" d="M16 30.5C24.0081 30.5 30.5 24.0081 30.5 16C30.5 7.99187 24.0081 1.5 16 1.5C7.99187 1.5 1.5 7.99187 1.5 16C1.5 24.0081 7.99187 30.5 16 30.5ZM16 32C24.8366 32 32 24.8366 32 16C32 7.16344 24.8366 0 16 0C7.16344 0 0 7.16344 0 16C0 24.8366 7.16344 32 16 32Z" fill="white"/>
</svg>
