<svg width="32" height="32" viewBox="0 0 32 32" fill="none" xmlns="http://www.w3.org/2000/svg">
<path d="M22.4 0H5.6C3.61178 0 2 1.59188 2 3.55556V28.4444C2 30.4081 3.61177 32 5.6 32H22.4C24.3882 32 26 30.4081 26 28.4444V26.6769C26 26.3244 25.4805 26.0741 25.128 26.0741V26.0741H24.5934V26.0741C24.2381 26.0741 23.6 26.3649 23.6 26.7202V28.4444C23.6 29.099 23.0627 29.6296 22.4 29.6296H5.6C4.93726 29.6296 4.4 29.099 4.4 28.4444V3.55556C4.4 2.901 4.93726 2.37037 5.6 2.37037H22.4C23.0627 2.37037 23.6 2.901 23.6 3.55556V15.4215V15.8598C23.6 16.6683 24.5096 17.1426 25.1725 16.6797L25.5725 16.4004C25.8404 16.2134 26 15.9072 26 15.5805V3.55556C26 1.59188 24.3882 0 22.4 0Z" fill="white"/>
<path d="M28.9926 15.1657C29.7166 15.1657 30.2037 15.9175 29.9161 16.5911L26.7195 24.0773C26.5234 24.5368 26.0767 24.8342 25.5828 24.8342H25.031C24.5366 24.8342 24.0895 24.5362 23.8937 24.076L20.76 16.7126C20.4487 15.9812 20.9778 15.1657 21.7636 15.1657C22.2017 15.1657 22.5974 15.4309 22.7691 15.8395L25.3881 22.0718L28.0688 15.7813C28.228 15.4076 28.5911 15.1657 28.9926 15.1657Z" fill="white"/>
<path d="M16.1639 25C15.1919 25 14.3109 24.7882 13.5206 24.3646C12.7395 23.9319 12.1218 23.3379 11.6676 22.5829C11.2225 21.8186 11 20.9576 11 20C11 19.0424 11.2225 18.186 11.6676 17.4309C12.1218 16.6667 12.7395 16.0727 13.5206 15.6492C14.3109 15.2164 15.1965 15 16.1775 15C17.0041 15 17.7489 15.1473 18.412 15.442C18.7892 15.6073 19.132 15.8133 19.4406 16.0598C19.8474 16.3849 19.8028 16.9922 19.4222 17.3484C19.0186 17.726 18.395 17.6693 17.9308 17.3718C17.4462 17.0613 16.8981 16.9061 16.2865 16.9061C15.6961 16.9061 15.1692 17.0396 14.706 17.3066C14.2427 17.5645 13.8794 17.9282 13.616 18.3978C13.3617 18.8674 13.2345 19.4015 13.2345 20C13.2345 20.5985 13.3617 21.1326 13.616 21.6022C13.8794 22.0718 14.2427 22.4401 14.706 22.7072C15.1692 22.965 15.6961 23.0939 16.2865 23.0939C16.8975 23.0939 17.4452 22.9371 17.9295 22.6233C18.3946 22.322 19.0216 22.263 19.4272 22.6425C19.8058 22.9968 19.8529 23.6004 19.451 23.9273C19.1398 24.1806 18.7934 24.3908 18.412 24.558C17.7398 24.8527 16.9904 25 16.1639 25Z" fill="white"/>
</svg>
