<svg width="32" height="32" viewBox="0 0 32 32" fill="none" xmlns="http://www.w3.org/2000/svg">
<path fill-rule="evenodd" clip-rule="evenodd" d="M8.21499 23.785C7.90788 23.4779 7.93277 22.9551 8.27059 22.6173L22.6173 8.27059C22.9551 7.93277 23.4779 7.90788 23.785 8.21499C24.0921 8.5221 24.0672 9.04492 23.7294 9.38274L9.38274 23.7294C9.04492 24.0672 8.5221 24.0921 8.21499 23.785Z" fill="white"/>
<path fill-rule="evenodd" clip-rule="evenodd" d="M23.785 23.785C23.4779 24.0921 22.9551 24.0672 22.6173 23.7294L8.2706 9.38274C7.93277 9.04492 7.90788 8.5221 8.21499 8.21499C8.5221 7.90788 9.04492 7.93277 9.38274 8.27059L23.7294 22.6173C24.0672 22.9551 24.0921 23.4779 23.785 23.785Z" fill="white"/>
<path fill-rule="evenodd" clip-rule="evenodd" d="M16 30.5C24.0081 30.5 30.5 24.0081 30.5 16C30.5 7.99187 24.0081 1.5 16 1.5C7.99187 1.5 1.5 7.99187 1.5 16C1.5 24.0081 7.99187 30.5 16 30.5ZM16 32C24.8366 32 32 24.8366 32 16C32 7.16344 24.8366 0 16 0C7.16344 0 0 7.16344 0 16C0 24.8366 7.16344 32 16 32Z" fill="white"/>
</svg>
