<svg width="32" height="32" viewBox="0 0 32 32" fill="none" xmlns="http://www.w3.org/2000/svg">
<path fill-rule="evenodd" clip-rule="evenodd" d="M12.531 7.91871C13.42 7.01713 14.8613 7.01713 15.7503 7.91871L21.192 13.4376C22.081 14.3391 22.081 15.8009 21.192 16.7025L12.7151 25.2995C11.8261 26.2011 10.3848 26.2011 9.49584 25.2995L9.38295 25.185L6.16489 26.2729C5.34691 26.5494 4.44509 26.3335 3.8354 25.7152L3.64424 25.5213C3.03455 24.903 2.82166 23.9884 3.09432 23.1588L4.16701 19.8951L4.05412 19.7806C3.16515 18.8791 3.16515 17.4173 4.05412 16.5157L12.531 7.91871ZM16.3249 10.6781L14.6772 9.00701C14.3808 8.70648 13.9004 8.70648 13.6041 9.00701L5.12721 17.604C4.83089 17.9046 4.83089 18.3918 5.12721 18.6923L6.77498 20.3635C7.07131 20.664 7.55174 20.664 7.84807 20.3635L16.3249 11.7664C16.621 11.4662 16.6203 10.9787 16.3249 10.6781Z" fill="white"/>
<path d="M23.6906 13.9817L15.2137 5.38469C14.6211 4.78364 14.6211 3.80914 15.2137 3.20809L16.1027 2.30651C16.6953 1.70545 17.6562 1.70546 18.2489 2.30651L18.3791 2.43854C18.9717 3.03959 19.9326 3.03959 20.5252 2.43854L21.7285 1.21821C25.5225 -2.62956 31.5928 3.52685 27.7988 7.37457L26.5956 8.5949C26.0029 9.19595 26.0029 10.1705 26.5956 10.7715L26.7257 10.9035C27.3184 11.5046 27.3184 12.4791 26.7257 13.0801L25.8368 13.9817C25.2441 14.5828 24.2832 14.5828 23.6906 13.9817Z" fill="white"/>
<path d="M5.03516 30.4609C5.03516 31.3109 4.35571 32 3.51758 32C2.67944 32 2 31.3109 2 30.4609C2 29.6109 2.67944 27.3827 3.51758 27.3827C4.35571 27.3827 5.03516 29.6109 5.03516 30.4609Z" fill="white"/>
</svg>
