<svg width="32" height="32" viewBox="0 0 32 32" fill="none" xmlns="http://www.w3.org/2000/svg">
<path d="M26.6666 12.5H20.3172L14.4783 2.44078C14.4004 2.30686 14.288 2.19556 14.1524 2.11815C14.0168 2.04075 13.8628 1.99999 13.706 2L10.0671 2C9.47656 2 9.05045 2.55617 9.21267 3.11508L11.9366 12.5H6.2221L3.82209 9.35C3.65431 9.12961 3.39042 9 3.11098 9H0.889301C0.310965 9 -0.113481 9.53484 0.027075 10.0872L1.77764 16L0.027075 21.9128C-0.113481 22.4652 0.310965 23 0.889301 23H3.11098C3.39098 23 3.65431 22.8704 3.82209 22.65L6.2221 19.5H11.9366L9.21267 28.8844C9.05045 29.4433 9.47656 30 10.0671 30H13.706C14.0249 30 14.3194 29.8316 14.4777 29.5592L20.3172 19.5H26.6666C28.6305 19.5 32 17.9332 32 16C32 14.0668 28.6305 12.5 26.6666 12.5Z" fill="white"/>
</svg>
