<svg width="32" height="32" viewBox="0 0 32 32" fill="none" xmlns="http://www.w3.org/2000/svg">
<path fill-rule="evenodd" clip-rule="evenodd" d="M16 4.18284L2.62318 16.6328C2.0076 17.2058 1.02738 17.1886 0.433791 16.5944C-0.159799 16.0003 -0.141977 15.0542 0.473598 14.4812L14.2087 1.69781C15.2084 0.767394 16.7916 0.767398 17.7913 1.69781L23.5508 7.05822V3.10304C23.5508 2.27766 24.244 1.60856 25.0992 1.60856C25.9543 1.60856 26.6475 2.27766 26.6475 3.10304V9.94043L31.5264 14.4812C32.142 15.0542 32.1598 16.0003 31.5662 16.5944C30.9726 17.1886 29.9924 17.2058 29.3768 16.6328L16 4.18284ZM4.41379 18.1656L14.2202 9.15131C15.2169 8.23515 16.7831 8.23515 17.7798 9.15131L27.5862 18.1656C28.0976 18.6358 28.3871 19.2876 28.3871 19.9693V28.5092C28.3871 29.8848 27.2317 31 25.8064 31H19.0968V23.0294H12.9032V31H6.19355C4.7683 31 3.6129 29.8848 3.6129 28.5092V19.9693C3.6129 19.2876 3.90236 18.6358 4.41379 18.1656Z" fill="white"/>
</svg>
