<svg width="32" height="32" viewBox="0 0 32 32" fill="none" xmlns="http://www.w3.org/2000/svg">
<path fill-rule="evenodd" clip-rule="evenodd" d="M8.5 0L9.15013 0.206711C11.0887 0.823088 12.604 1.51964 13.7962 2.94545C14.8875 4.25058 15.6671 6.11769 16.3293 8.95891C18.2596 7.70559 19.8686 6.85023 21.5117 6.27542C23.3268 5.64046 25.1577 5.35681 27.4739 5.23435L28 5.20653V8.87508C28.8084 9.07681 29.4361 9.30333 29.9111 9.99646L30 10.1262V10.2839H30.5C31.3284 10.2839 32 10.9622 32 11.799V30.4849C32 31.3217 31.3284 32 30.5 32H17.8085C17.5027 32 17.2168 31.9036 16.9773 31.7531C16.5446 31.4813 16.2502 31.3811 15.9958 31.3773C15.7466 31.3736 15.4584 31.4616 15.0376 31.7351C14.7933 31.8939 14.4973 32 14.177 32H1.5C0.671573 32 0 31.3217 0 30.4849V28.4648C0 28.1859 0.223858 27.9598 0.5 27.9598C0.776142 27.9598 1 28.1859 1 28.4648V30.4849C1 30.7638 1.22386 30.99 1.5 30.99H14.177C14.2767 30.99 14.3877 30.9565 14.4965 30.8857C15.0029 30.5566 15.487 30.3596 16.0106 30.3674C16.5292 30.3751 17.0083 30.5831 17.5054 30.8954C17.6071 30.9593 17.7123 30.99 17.8085 30.99H30.5C30.7761 30.99 31 30.7638 31 30.4849V11.799C31 11.5201 30.7761 11.294 30.5 11.294H30V28.4648C30 29.3016 29.3284 29.9799 28.5 29.9799H3.5C2.67157 29.9799 2 29.3016 2 28.4648V11.294H1.5C1.22386 11.294 1 11.5201 1 11.799V25.4347C1 25.7136 0.776142 25.9397 0.5 25.9397C0.223858 25.9397 0 25.7136 0 25.4347V11.799C0 10.9622 0.671573 10.2839 1.5 10.2839H2V9.52903L2.19664 9.37744C2.8073 8.90666 3.31649 8.62331 3.85021 8.46243C4.22769 8.34864 4.60058 8.30167 5 8.28013V1.43762L8.5 2.95269V0ZM8.5 4.0516L6 2.9694V20.5264C8.79573 21.4883 10.7698 22.4867 12.351 23.8163C13.4169 24.7126 14.2898 25.7473 15.1132 26.9937C14.837 25.6223 14.4608 24.4942 13.8604 23.4967C12.9323 21.9551 11.4319 20.6685 8.77554 19.3206L8.5 19.1808V4.0516ZM14.6703 28.1654C13.7623 26.6887 12.8488 25.5491 11.7112 24.5926C10.2022 23.3236 8.26422 22.3479 5.34254 21.3688L5 21.254V9.29193C4.66997 9.312 4.39995 9.35079 4.13619 9.4303C3.80189 9.53107 3.45222 9.70557 3 10.0332V27.7104C5.52382 26.6955 7.55847 26.2898 9.54636 26.4783C11.2348 26.6384 12.852 27.2242 14.6703 28.1654ZM3.09497 28.761C3.18583 28.8875 3.3334 28.9698 3.5 28.9698H14.0298C12.3551 28.1197 10.9182 27.6229 9.45288 27.4839C7.61109 27.3092 5.66897 27.6953 3.09497 28.761ZM18.468 28.9698H28.5C28.6752 28.9698 28.8293 28.8789 28.9186 28.7411C26.749 27.7071 24.9679 27.4107 23.1102 27.6299C21.6943 27.7969 20.217 28.2644 18.468 28.9698ZM29 27.6676V10.4532C28.7871 10.1973 28.5206 10.065 28 9.9201V10.7889C28 11.0679 27.7761 11.294 27.5 11.294C27.2239 11.294 27 11.0679 27 10.7889V6.27432C24.9922 6.40783 23.4012 6.68335 21.839 7.22985C20.1984 7.80377 18.5656 8.68487 16.5 10.0511V28.4089C17.8113 27.3443 19.011 26.4884 20.4744 25.8454C22.1487 25.1097 24.1375 24.665 27 24.4571V14.3241C27 14.0452 27.2239 13.8191 27.5 13.8191C27.7761 13.8191 28 14.0452 28 14.3241V25.4047L27.5305 25.4337C24.4779 25.6222 22.4915 26.0605 20.8734 26.7716C20.3722 26.9918 19.9032 27.2394 19.4455 27.5173C20.6983 27.0715 21.8574 26.7607 22.9942 26.6266C24.9629 26.3944 26.8372 26.6936 29 27.6676ZM15.5 24.6267V9.83316C14.8157 6.66392 14.0451 4.80856 13.0322 3.59716C12.1461 2.53733 11.0379 1.92643 9.5 1.38679V18.5598C12.0834 19.9063 13.6881 21.2665 14.7148 22.972C15.029 23.494 15.2859 24.0433 15.5 24.6267Z" fill="white"/>
</svg>
