<svg width="32" height="32" viewBox="0 0 32 32" fill="none" xmlns="http://www.w3.org/2000/svg">
<path d="M15 1C15 0.447715 15.4477 0 16 0C16.5523 0 17 0.447715 17 1V7C17 7.55228 16.5523 8 16 8C15.4477 8 15 7.55228 15 7V1Z" fill="white"/>
<path d="M15 25C15 24.4477 15.4477 24 16 24C16.5523 24 17 24.4477 17 25V31C17 31.5523 16.5523 32 16 32C15.4477 32 15 31.5523 15 31V25Z" fill="white"/>
<path d="M32 16C32 15.4477 31.5523 15 31 15H25C24.4477 15 24 15.4477 24 16C24 16.5523 24.4477 17 25 17H31C31.5523 17 32 16.5523 32 16Z" fill="white"/>
<path d="M7 15C7.55228 15 8 15.4477 8 16C8 16.5523 7.55228 17 7 17H1C0.447715 17 0 16.5523 0 16C0 15.4477 0.447715 15 1 15H7Z" fill="white"/>
<path d="M25.8995 25.8995C26.29 25.509 26.29 24.8758 25.8995 24.4853L24.4853 23.0711C24.0948 22.6805 23.4616 22.6805 23.0711 23.0711C22.6805 23.4616 22.6805 24.0948 23.0711 24.4853L24.4853 25.8995C24.8758 26.29 25.509 26.29 25.8995 25.8995Z" fill="white"/>
<path d="M8.92893 7.51472C9.31946 7.90524 9.31946 8.53841 8.92893 8.92893C8.53841 9.31946 7.90524 9.31946 7.51472 8.92893L6.1005 7.51472C5.70998 7.12419 5.70998 6.49103 6.1005 6.10051C6.49103 5.70998 7.12419 5.70998 7.51472 6.1005L8.92893 7.51472Z" fill="white"/>
<path d="M25.8995 6.1005C25.509 5.70998 24.8758 5.70998 24.4853 6.1005L23.0711 7.51472C22.6805 7.90524 22.6805 8.53841 23.0711 8.92893C23.4616 9.31946 24.0948 9.31946 24.4853 8.92893L25.8995 7.51472C26.29 7.12419 26.29 6.49103 25.8995 6.1005Z" fill="white"/>
<path d="M7.51472 23.0711C7.90524 22.6805 8.53841 22.6805 8.92893 23.0711C9.31946 23.4616 9.31946 24.0948 8.92893 24.4853L7.51472 25.8995C7.12419 26.29 6.49103 26.29 6.1005 25.8995C5.70998 25.509 5.70998 24.8758 6.10051 24.4853L7.51472 23.0711Z" fill="white"/>
<path fill-rule="evenodd" clip-rule="evenodd" d="M16 23C19.866 23 23 19.866 23 16C23 12.134 19.866 9 16 9C12.134 9 9 12.134 9 16C9 19.866 12.134 23 16 23ZM16 21C18.7614 21 21 18.7614 21 16C21 13.2386 18.7614 11 16 11C13.2386 11 11 13.2386 11 16C11 18.7614 13.2386 21 16 21Z" fill="white"/>
</svg>
