<svg width="32" height="32" viewBox="0 0 32 32" fill="none" xmlns="http://www.w3.org/2000/svg">
<path d="M24.0029 8H8.00057C6.68163 7.99981 5.3831 8.32578 4.22059 8.94888C3.05808 9.57198 2.06767 10.4729 1.33753 11.5714C0.607392 12.6699 0.160177 13.9319 0.0357043 15.245C-0.0887688 16.5582 0.113362 17.8817 0.624101 19.0979C1.13484 20.314 1.93834 21.385 2.96306 22.2154C3.98779 23.0459 5.20194 23.61 6.49743 23.8577C7.79292 24.1054 9.12954 24.0289 10.3883 23.635C11.6471 23.241 12.7889 22.542 13.7122 21.6H18.2878C19.211 22.5419 20.3527 23.2409 21.6113 23.6348C22.8699 24.0288 24.2063 24.1054 25.5017 23.8579C26.7971 23.6104 28.0112 23.0464 29.0359 22.2162C30.0607 21.386 30.8643 20.3154 31.3752 19.0995C31.8862 17.8836 32.0886 16.5602 31.9645 15.2472C31.8404 13.9342 31.3936 12.6722 30.6639 11.5736C29.9342 10.4749 28.9442 9.5738 27.7821 8.95032C26.62 8.32685 25.3217 8.00039 24.0029 8ZM12.4003 16.6C12.4003 16.7591 12.337 16.9117 12.2245 17.0243C12.112 17.1368 11.9594 17.2 11.8003 17.2H9.20049V19.8C9.20049 19.9591 9.13728 20.1117 9.02476 20.2243C8.91225 20.3368 8.75965 20.4 8.60053 20.4H7.40062C7.2415 20.4 7.0889 20.3368 6.97638 20.2243C6.86387 20.1117 6.80066 19.9591 6.80066 19.8V17.2H4.20084C4.04173 17.2 3.88912 17.1368 3.77661 17.0243C3.6641 16.9117 3.60089 16.7591 3.60089 16.6V15.4C3.60089 15.2409 3.6641 15.0883 3.77661 14.9757C3.88912 14.8632 4.04173 14.8 4.20084 14.8H6.80066V12.2C6.80066 12.0409 6.86387 11.8883 6.97638 11.7757C7.0889 11.6632 7.2415 11.6 7.40062 11.6H8.60053C8.75965 11.6 8.91225 11.6632 9.02476 11.7757C9.13728 11.8883 9.20049 12.0409 9.20049 12.2V14.8H11.8003C11.9594 14.8 12.112 14.8632 12.2245 14.9757C12.337 15.0883 12.4003 15.2409 12.4003 15.4V16.6ZM23.1995 20.4C22.804 20.4 22.4173 20.2827 22.0884 20.0629C21.7596 19.8432 21.5032 19.5308 21.3519 19.1654C21.2005 18.7999 21.1609 18.3978 21.2381 18.0098C21.3152 17.6219 21.5057 17.2655 21.7854 16.9858C22.0651 16.7061 22.4214 16.5156 22.8093 16.4384C23.1973 16.3613 23.5994 16.4009 23.9648 16.5522C24.3302 16.7036 24.6426 16.96 24.8623 17.2889C25.0821 17.6178 25.1993 18.0044 25.1993 18.4C25.1993 18.9304 24.9886 19.4391 24.6136 19.8142C24.2386 20.1893 23.7299 20.4 23.1995 20.4ZM26.3993 15.6C26.0037 15.6 25.6171 15.4827 25.2882 15.2629C24.9593 15.0432 24.703 14.7308 24.5516 14.3654C24.4003 13.9999 24.3607 13.5978 24.4378 13.2098C24.515 12.8219 24.7055 12.4655 24.9851 12.1858C25.2648 11.9061 25.6212 11.7156 26.0091 11.6384C26.397 11.5613 26.7991 11.6009 27.1646 11.7522C27.53 11.9036 27.8423 12.16 28.0621 12.4889C28.2818 12.8178 28.3991 13.2044 28.3991 13.6C28.3991 14.1304 28.1884 14.6391 27.8134 15.0142C27.4383 15.3893 26.9297 15.6 26.3993 15.6Z" fill="white"/>
</svg>
