<svg width="32" height="32" viewBox="0 0 32 32" fill="none" xmlns="http://www.w3.org/2000/svg">
<path fill-rule="evenodd" clip-rule="evenodd" d="M17 20.122C17 20.6069 16.5411 21 15.9751 21C15.2786 21 14.6077 20.8975 13.9833 20.7083C12.2847 20.1935 10.9404 19.0409 10.3402 17.5851L10.3401 17.585C10.1197 17.05 10 16.4751 10 15.878C10 15.3931 10.4589 15 11.0249 15C11.5909 15 12.0498 15.3931 12.0498 15.878C12.0498 16.273 12.1288 16.6504 12.273 17.0004C12.6671 17.9562 13.5524 18.715 14.6668 19.0527L14.6668 19.0527C15.0747 19.1763 15.5146 19.2439 15.9751 19.2439C16.5411 19.2439 17 19.637 17 20.122Z" fill="white"/>
<path fill-rule="evenodd" clip-rule="evenodd" d="M18.5436 26.9042C17.9901 26.9669 17.4231 27 16.8432 27C11.4182 27 7.21476 24.1127 4.42393 21.3393C3.02082 19.9449 1.94797 18.5538 1.22561 17.5117C0.863836 16.9899 0.588381 16.5532 0.401926 16.2444C0.308661 16.0899 0.237551 15.9672 0.188936 15.8817C0.164625 15.8389 0.145931 15.8053 0.132893 15.7817C0.126373 15.7699 0.121267 15.7605 0.11758 15.7538L0.113113 15.7455L0.111162 15.7419C0.110958 15.7415 0.110779 15.7412 0.984982 15.3022C0.110779 14.8632 0.110851 14.8631 0.110928 14.863L0.111105 14.8626L0.111534 14.8618L0.112696 14.8597L0.116238 14.8531C0.119137 14.8478 0.123119 14.8405 0.128174 14.8313C0.138288 14.8129 0.15271 14.7869 0.171413 14.7537C0.208815 14.6874 0.263361 14.5923 0.334824 14.472C0.477705 14.2316 0.688494 13.8898 0.965405 13.4751C1.51856 12.6466 2.33921 11.5212 3.41368 10.3272C3.77085 9.93033 4.39302 9.88866 4.80333 10.2341C5.21364 10.5796 5.25672 11.1814 4.89955 11.5783C3.89945 12.6896 3.13428 13.739 2.62026 14.5089C2.40769 14.8272 2.2387 15.0969 2.11439 15.3022C2.28269 15.5802 2.53275 15.9758 2.86179 16.4505C3.53604 17.4232 4.53558 18.7183 5.83558 20.0102C8.45096 22.6093 12.1766 25.0945 16.8432 25.0945C17.3454 25.0945 17.8358 25.0658 18.3144 25.0116C18.8176 24.9546 19.3083 24.8692 19.7863 24.7589C20.3155 24.6369 20.8467 24.9529 20.9729 25.4647C21.0991 25.9766 20.7724 26.4904 20.2433 26.6125C19.6924 26.7396 19.1257 26.8382 18.5436 26.9042ZM0.984982 15.3022L0.110779 14.8632C-0.0369263 15.1384 -0.0369263 15.466 0.110779 15.7412L0.984982 15.3022Z" fill="white"/>
<path fill-rule="evenodd" clip-rule="evenodd" d="M15 10.878C15 10.3931 15.4589 10 16.0249 10C16.7214 10 17.3923 10.1025 18.0167 10.2917C19.7153 10.8065 21.0596 11.9591 21.6598 13.4149L21.6599 13.415C21.8803 13.95 22 14.5249 22 15.122C22 15.6069 21.5411 16 20.9751 16C20.4091 16 19.9502 15.6069 19.9502 15.122C19.9502 14.727 19.8712 14.3496 19.727 13.9996C19.3329 13.0438 18.4476 12.285 17.3332 11.9473L17.3332 11.9473C16.9253 11.8237 16.4854 11.7561 16.0249 11.7561C15.4589 11.7561 15 11.363 15 10.878Z" fill="white"/>
<path fill-rule="evenodd" clip-rule="evenodd" d="M13.4564 4.09584C14.0099 4.03312 14.5769 4 15.1568 4C20.5818 4 24.7852 6.88729 27.5761 9.66073C28.9792 11.0551 30.052 12.4462 30.7744 13.4883C31.1362 14.0101 31.4116 14.4468 31.5981 14.7556C31.6913 14.9101 31.7624 15.0328 31.8111 15.1183C31.8354 15.1611 31.8541 15.1947 31.8671 15.2183C31.8736 15.2301 31.8787 15.2395 31.8824 15.2462L31.8869 15.2545L31.8888 15.2581C31.889 15.2585 31.8892 15.2588 31.015 15.6978C31.8892 16.1368 31.8891 16.1369 31.8891 16.137L31.8889 16.1374L31.8885 16.1382L31.8873 16.1403L31.8838 16.1469C31.8809 16.1522 31.8769 16.1595 31.8718 16.1687C31.8617 16.1871 31.8473 16.2131 31.8286 16.2463C31.7912 16.3126 31.7366 16.4077 31.6652 16.528C31.5223 16.7684 31.3115 17.1102 31.0346 17.5249C30.4814 18.3534 29.6608 19.4788 28.5863 20.6728C28.2291 21.0697 27.607 21.1113 27.1967 20.7659C26.7864 20.4204 26.7433 19.8186 27.1005 19.4217C28.1005 18.3104 28.8657 17.261 29.3797 16.4911C29.5923 16.1728 29.7613 15.9031 29.8856 15.6978C29.7173 15.4198 29.4672 15.0242 29.1382 14.5495C28.464 13.5768 27.4644 12.2817 26.1644 10.9898C23.549 8.39074 19.8234 5.90552 15.1568 5.90552C14.6546 5.90552 14.1642 5.9342 13.6856 5.98842C13.1824 6.04545 12.6917 6.13081 12.2137 6.24106C11.6845 6.36311 11.1533 6.04712 11.0271 5.53528C10.9009 5.02343 11.2276 4.50956 11.7567 4.38751C12.3076 4.26045 12.8743 4.1618 13.4564 4.09584ZM31.015 15.6978L31.8892 16.1368C32.0369 15.8616 32.0369 15.534 31.8892 15.2588L31.015 15.6978Z" fill="white"/>
<path fill-rule="evenodd" clip-rule="evenodd" d="M30.7161 29.7262C30.3378 30.0914 29.7247 30.0912 29.3467 29.7258L1.28339 2.59674C0.90535 2.23129 0.905563 1.63897 1.28386 1.27377C1.66216 0.908564 2.2753 0.90877 2.65334 1.27423L30.7166 28.4033C31.0946 28.7687 31.0944 29.361 30.7161 29.7262Z" fill="white"/>
</svg>
