<svg width="32" height="32" viewBox="0 0 32 32" fill="none" xmlns="http://www.w3.org/2000/svg">
<path fill-rule="evenodd" clip-rule="evenodd" d="M14.3112 0.312419C14.7261 -0.10414 15.3989 -0.10414 15.8138 0.312419L30.6888 15.2458C31.1037 15.6623 31.1037 16.3377 30.6888 16.7542L15.8138 31.6876C15.3989 32.1041 14.7261 32.1041 14.3112 31.6876C13.8963 31.271 13.8963 30.5956 14.3112 30.1791L28.4349 16L14.3112 1.82091C13.8963 1.40435 13.8963 0.728979 14.3112 0.312419Z" fill="white"/>
<path fill-rule="evenodd" clip-rule="evenodd" d="M1.3295 0.312419C1.76884 -0.10414 2.48116 -0.10414 2.9205 0.312419L18.6705 15.2458C19.1098 15.6623 19.1098 16.3377 18.6705 16.7542L2.9205 31.6876C2.48116 32.1041 1.76884 32.1041 1.3295 31.6876C0.890165 31.271 0.890165 30.5956 1.3295 30.1791L16.284 16L1.3295 1.82091C0.890165 1.40435 0.890165 0.728979 1.3295 0.312419Z" fill="white"/>
</svg>
