<svg width="32" height="32" viewBox="0 0 32 32" fill="none" xmlns="http://www.w3.org/2000/svg">
<path fill-rule="evenodd" clip-rule="evenodd" d="M19.5193 6.09589C19.8943 6.21074 20.126 6.61423 20.0368 6.9971L19.8031 8.00015L21.2955 8.14553C22.9962 8.31121 24.6423 8.98434 26.0332 10.0829L26.2 10.2146C27.359 11.13 28.7459 11.6594 30.1639 11.7277C31.3442 11.7845 32.223 12.9754 31.9499 14.1479L30.3636 20.9575C30.1508 21.8712 29.3562 22.4811 28.4364 22.4368L28.2308 22.4269C26.3868 22.3381 24.583 21.6496 23.0757 20.4592C21.9061 19.5354 20.522 18.9694 19.0919 18.8301L17.3205 18.6576L15.7304 25.484C15.6412 25.8668 15.2649 26.0841 14.8899 25.9693C14.5149 25.8545 14.2832 25.451 14.3724 25.0681L18.6788 6.58121C18.768 6.19833 19.1443 5.98105 19.5193 6.09589ZM17.6499 17.2435L19.1423 17.3889C20.843 17.5547 22.4891 18.2278 23.88 19.3263C25.1474 20.3273 26.6642 20.9062 28.2148 20.9809L28.4204 20.9908C28.6997 21.0043 28.941 20.8191 29.0056 20.5416L30.5919 13.732C30.6549 13.4615 30.4522 13.1868 30.1799 13.1737C28.4686 13.0913 26.7946 12.4523 25.3958 11.3475L25.229 11.2158C24.0593 10.292 22.6752 9.726 21.2451 9.58669L19.4738 9.41412L17.6499 17.2435Z" fill="white"/>
<path fill-rule="evenodd" clip-rule="evenodd" d="M12.4807 6.03071C12.1057 6.14555 11.874 6.54904 11.9632 6.93191L12.1969 7.93496L10.7045 8.08034C9.00382 8.24602 7.35772 8.91915 5.96679 10.0177L5.80001 10.1494C4.641 11.0648 3.25406 11.5942 1.83613 11.6625C0.655789 11.7193 -0.223045 12.9102 0.0500897 14.0827L1.63637 20.8923C1.84922 21.8061 2.64376 22.416 3.56358 22.3716L3.76923 22.3617C5.61321 22.2729 7.41701 21.5844 8.92425 20.394C10.0939 19.4702 11.478 18.9042 12.9081 18.7649L14.6795 18.5924L16.2696 25.4188C16.3588 25.8017 16.7351 26.019 17.1101 25.9041C17.4851 25.7893 17.7168 25.3858 17.6276 25.0029L13.3212 6.51602C13.232 6.13315 12.8557 5.91586 12.4807 6.03071ZM14.3501 17.1784L12.8577 17.3238C11.157 17.4895 9.51095 18.1626 8.12001 19.2611C6.85264 20.2621 5.33582 20.8411 3.78525 20.9158L3.5796 20.9257C3.3003 20.9391 3.05901 20.7539 2.99437 20.4764L1.40809 13.6668C1.34508 13.3963 1.54781 13.1216 1.82012 13.1085C3.53145 13.0261 5.20537 12.3871 6.60425 11.2823L6.77104 11.1506C7.9407 10.2268 9.32481 9.66082 10.7549 9.5215L12.5262 9.34893L14.3501 17.1784Z" fill="white"/>
</svg>
