<svg width="32" height="32" viewBox="0 0 32 32" fill="none" xmlns="http://www.w3.org/2000/svg">
<path fill-rule="evenodd" clip-rule="evenodd" d="M0.253329 25.4746C0.500737 25.1729 0.889366 25 1.29199 25H30.708C31.1106 25 31.4993 25.1729 31.7467 25.4746C32.0095 25.795 32.0981 26.2531 31.8663 26.6924C31.1787 27.9955 29.4624 29 27.7664 29H4.2336C2.53762 29 0.821266 27.9955 0.13369 26.6924C-0.0980602 26.2531 -0.00945938 25.795 0.253329 25.4746Z" fill="white"/>
<path fill-rule="evenodd" clip-rule="evenodd" d="M17.4041 14.5404C17.6579 14.6492 17.7755 14.9432 17.6667 15.197L14.6667 22.197C14.5579 22.4508 14.264 22.5684 14.0101 22.4596C13.7563 22.3508 13.6388 22.0569 13.7475 21.803L16.7475 14.803C16.8563 14.5492 17.1503 14.4317 17.4041 14.5404ZM13.0607 15.1465C13.2559 15.3417 13.2559 15.6583 13.0607 15.8536L10.4142 18.5L13.0607 21.1465C13.2559 21.3417 13.2559 21.6583 13.0607 21.8536C12.8654 22.0488 12.5488 22.0488 12.3536 21.8536L9 18.5L12.3536 15.1465C12.5488 14.9512 12.8654 14.9512 13.0607 15.1465ZM18.3536 15.1465C18.5488 14.9512 18.8654 14.9512 19.0607 15.1465L22.4142 18.5L19.0607 21.8536C18.8654 22.0488 18.5488 22.0488 18.3536 21.8536C18.1583 21.6583 18.1583 21.3417 18.3536 21.1465L21 18.5L18.3536 15.8536C18.1583 15.6583 18.1583 15.3417 18.3536 15.1465Z" fill="white"/>
<path fill-rule="evenodd" clip-rule="evenodd" d="M3 8.5C3 7.39543 3.89543 6.5 5 6.5H18C18.5523 6.5 19 6.94772 19 7.5C19 8.05228 18.5523 8.5 18 8.5H5V12C5 12.5523 4.55228 13 4 13C3.44772 13 3 12.5523 3 12V8.5ZM28 16.5C28.5523 16.5 29 16.9477 29 17.5V23C29 23.5523 28.5523 24 28 24C27.4477 24 27 23.5523 27 23V17.5C27 16.9477 27.4477 16.5 28 16.5ZM4 19C4.55228 19 5 19.4477 5 20V23C5 23.5523 4.55228 24 4 24C3.44772 24 3 23.5523 3 23V20C3 19.4477 3.44772 19 4 19Z" fill="white"/>
<path d="M21.5 4C22.0523 4 22.5 4.44772 22.5 5V10C22.5 10.5523 22.0523 11 21.5 11C20.9477 11 20.5 10.5523 20.5 10V5C20.5 4.44772 20.9477 4 21.5 4Z" fill="white"/>
<path d="M29.2474 6.83564C29.6143 7.24842 29.5771 7.88049 29.1644 8.24741L24.6644 12.2474C24.2516 12.6143 23.6195 12.5771 23.2526 12.1644C22.8857 11.7516 22.9229 11.1195 23.3356 10.7526L27.8356 6.75259C28.2484 6.38567 28.8805 6.42285 29.2474 6.83564Z" fill="white"/>
<path d="M24.5 14C24.5 13.4477 24.9477 13 25.5 13H30.5C31.0523 13 31.5 13.4477 31.5 14C31.5 14.5523 31.0523 15 30.5 15H25.5C24.9477 15 24.5 14.5523 24.5 14Z" fill="white"/>
<path d="M3.95773 14.4865C4.01548 14.3351 4.23002 14.3351 4.28777 14.4865L4.63022 15.3846C4.64815 15.4316 4.68533 15.4687 4.73241 15.4866L5.63175 15.8285C5.78341 15.8862 5.78341 16.1004 5.63175 16.1581L4.73241 16.5C4.68533 16.5179 4.64815 16.5551 4.63022 16.6021L4.28777 17.5001C4.23002 17.6515 4.01548 17.6515 3.95773 17.5001L3.61527 16.6021C3.59735 16.5551 3.56017 16.5179 3.51309 16.5L2.61374 16.1581C2.46209 16.1004 2.46209 15.8862 2.61374 15.8285L3.51309 15.4866C3.56017 15.4687 3.59735 15.4316 3.61527 15.3846L3.95773 14.4865Z" fill="white"/>
<path d="M8.64757 10C8.73419 9.77285 9.05601 9.77285 9.14263 10L9.65631 11.347C9.6832 11.4175 9.73897 11.4732 9.80959 11.5001L11.1586 12.013C11.3861 12.0995 11.3861 12.4208 11.1586 12.5073L9.80959 13.0202C9.73897 13.0471 9.6832 13.1028 9.65631 13.1733L9.14263 14.5203C9.05601 14.7474 8.73419 14.7474 8.64757 14.5203L8.13389 13.1733C8.107 13.1028 8.05123 13.0471 7.98061 13.0202L6.63159 12.5073C6.40411 12.4208 6.40411 12.0995 6.63159 12.013L7.98061 11.5001C8.05123 11.4732 8.107 11.4175 8.13389 11.347L8.64757 10Z" fill="white"/>
</svg>
