<svg width="32" height="32" viewBox="0 0 32 32" fill="none" xmlns="http://www.w3.org/2000/svg">
<path d="M26 16C26 13.2386 23.7614 11 21 11C18.2386 11 16 13.2386 16 16V20C16 20.5523 15.5523 21 15 21H12.4142C11.5233 21 11.0771 22.0771 11.7071 22.7071L20.2929 31.2929C20.6834 31.6834 21.3166 31.6834 21.7071 31.2929L30.2929 22.7071C30.9229 22.0771 30.4767 21 29.5858 21H27C26.4477 21 26 20.5523 26 20V16Z" fill="white"/>
<path d="M7 2H21C22.6569 2 24 3.34315 24 5V9.99963C23.4186 9.56292 22.7389 9.25 22 9.10002V5C22 4.44772 21.5523 4 21 4H7C6.44772 4 6 4.44772 6 5V16V26C6 26.5523 6.44772 27 7 27H13L15 29H7C5.34315 29 4 27.6569 4 26V16V5C4 3.34314 5.34315 2 7 2Z" fill="white"/>
</svg>
