<svg width="32" height="32" viewBox="0 0 32 32" fill="none" xmlns="http://www.w3.org/2000/svg">
<path d="M21.4719 5.42958C22.0749 4.85681 23.0526 4.85681 23.6556 5.42958L31.5477 14.9629C32.1508 15.5357 32.1508 16.4643 31.5477 17.0371L23.6556 26.5704C23.0526 27.1432 22.0749 27.1432 21.4719 26.5704C20.8689 25.9977 20.8689 25.069 21.4719 24.4962L27.1716 17.375H1.37254C1.00852 17.375 0.659411 17.2301 0.402009 16.9723C-0.134003 16.4353 -0.134003 15.5647 0.402009 15.0277C0.659411 14.7699 1.00852 14.625 1.37254 14.625L27.1716 14.625L21.4719 7.50376C20.8689 6.93099 20.8689 6.00235 21.4719 5.42958Z" fill="white"/>
</svg>
