<svg width="32" height="32" viewBox="0 0 32 32" fill="none" xmlns="http://www.w3.org/2000/svg">
<path fill-rule="evenodd" clip-rule="evenodd" d="M11.6486 1.80242C12.8026 0.64835 14.3679 0 16 0C16.6797 0 17.2308 0.551034 17.2308 1.23077C17.2308 1.9105 16.6797 2.46154 16 2.46154C15.0207 2.46154 14.0816 2.85055 13.3891 3.54299C12.6967 4.23543 12.3077 5.17459 12.3077 6.15385V25.8462C12.3077 26.8254 12.6967 27.7646 13.3891 28.457C14.0816 29.1495 15.0207 29.5385 16 29.5385C16.6797 29.5385 17.2308 30.0895 17.2308 30.7692C17.2308 31.449 16.6797 32 16 32C14.3679 32 12.8026 31.3517 11.6486 30.1976C10.4945 29.0435 9.84615 27.4783 9.84615 25.8462V6.15385C9.84615 4.52175 10.4945 2.95649 11.6486 1.80242Z" fill="white"/>
<path fill-rule="evenodd" clip-rule="evenodd" d="M4.92308 1.23077C4.92308 0.551034 5.47411 0 6.15385 0C7.78595 0 9.3512 0.64835 10.5053 1.80242C11.6593 2.95649 12.3077 4.52175 12.3077 6.15385V25.8462C12.3077 27.4783 11.6593 29.0435 10.5053 30.1976C9.3512 31.3517 7.78595 32 6.15385 32C5.47411 32 4.92308 31.449 4.92308 30.7692C4.92308 30.0895 5.47411 29.5385 6.15385 29.5385C7.13311 29.5385 8.07226 29.1495 8.7647 28.457C9.45714 27.7646 9.84615 26.8254 9.84615 25.8462V6.15385C9.84615 5.17459 9.45714 4.23543 8.7647 3.54299C8.07226 2.85055 7.13311 2.46154 6.15385 2.46154C5.47411 2.46154 4.92308 1.9105 4.92308 1.23077Z" fill="white"/>
<path fill-rule="evenodd" clip-rule="evenodd" d="M17.2308 7.38462C17.2308 6.70488 17.7818 6.15385 18.4615 6.15385H29.2308C30.0131 6.15385 30.731 6.50315 31.2367 7.06958C31.7384 7.63145 32 8.36648 32 9.10769V22.8923C32 23.6335 31.7384 24.3686 31.2367 24.9304C30.731 25.4969 30.0131 25.8462 29.2308 25.8462H18.4615C17.7818 25.8462 17.2308 25.2951 17.2308 24.6154C17.2308 23.9356 17.7818 23.3846 18.4615 23.3846H29.2308C29.2645 23.3846 29.3293 23.3708 29.4006 23.291C29.4759 23.2066 29.5385 23.0651 29.5385 22.8923V9.10769C29.5385 8.93493 29.4759 8.79342 29.4006 8.70901C29.3293 8.62916 29.2645 8.61538 29.2308 8.61538H18.4615C17.7818 8.61538 17.2308 8.06435 17.2308 7.38462Z" fill="white"/>
<path fill-rule="evenodd" clip-rule="evenodd" d="M0.931719 6.98953C1.51424 6.44585 2.28722 6.15385 3.07692 6.15385H4.92308C5.60281 6.15385 6.15385 6.70488 6.15385 7.38462C6.15385 8.06435 5.60281 8.61538 4.92308 8.61538H3.07692C2.88736 8.61538 2.7212 8.68646 2.61127 8.78905C2.50422 8.88897 2.46154 9.0056 2.46154 9.10769V22.8923C2.46154 22.9944 2.50422 23.111 2.61127 23.2109C2.7212 23.3135 2.88736 23.3846 3.07692 23.3846H4.92308C5.60281 23.3846 6.15385 23.9356 6.15385 24.6154C6.15385 25.2951 5.60281 25.8462 4.92308 25.8462H3.07692C2.28722 25.8462 1.51424 25.5542 0.931719 25.0105C0.346331 24.4641 0 23.7042 0 22.8923V9.10769C0 8.29581 0.346332 7.53589 0.931719 6.98953Z" fill="white"/>
<path fill-rule="evenodd" clip-rule="evenodd" d="M22.1538 16.6154C22.1538 15.5958 22.9763 14.7692 23.9908 14.7692H24.0092C25.0237 14.7692 25.8462 15.5958 25.8462 16.6154C25.8462 17.635 25.0237 18.4615 24.0092 18.4615H23.9908C22.9763 18.4615 22.1538 17.635 22.1538 16.6154Z" fill="white"/>
<path fill-rule="evenodd" clip-rule="evenodd" d="M16 16.6154C16 15.5958 16.8224 14.7692 17.837 14.7692H17.8553C18.8699 14.7692 19.6923 15.5958 19.6923 16.6154C19.6923 17.635 18.8699 18.4615 17.8553 18.4615H17.837C16.8224 18.4615 16 17.635 16 16.6154Z" fill="white"/>
</svg>
