<svg width="32" height="32" viewBox="0 0 32 32" fill="none" xmlns="http://www.w3.org/2000/svg">
<path fill-rule="evenodd" clip-rule="evenodd" d="M7.80589 1.40589C8.70606 0.505713 9.92696 0 11.2 0H27.2C28.473 0 29.6939 0.505713 30.5941 1.40589C31.4943 2.30606 32 3.52696 32 4.8V25.6C32 27.2974 31.3257 28.9253 30.1255 30.1255C28.9253 31.3257 27.2974 32 25.6 32H6.4C4.70262 32 3.07475 31.3257 1.87452 30.1255C0.674284 28.9253 0 27.2974 0 25.6C0 23.9026 0.674284 22.2747 1.87452 21.0745C3.07475 19.8743 4.70262 19.2 6.4 19.2V4.8C6.4 3.52696 6.90571 2.30606 7.80589 1.40589ZM6.4 22.4C5.55131 22.4 4.73737 22.7371 4.13726 23.3373C3.53714 23.9374 3.2 24.7513 3.2 25.6C3.2 26.4487 3.53714 27.2626 4.13726 27.8627C4.73737 28.4629 5.55131 28.8 6.4 28.8H18.4574C17.9005 27.8354 17.6 26.7332 17.6 25.6C17.6 24.4668 17.9005 23.3646 18.4574 22.4H6.4ZM24 19.2H9.6V4.8C9.6 4.37565 9.76857 3.96869 10.0686 3.66863C10.3687 3.36857 10.7757 3.2 11.2 3.2H27.2C27.6243 3.2 28.0313 3.36857 28.3314 3.66863C28.6314 3.96869 28.8 4.37565 28.8 4.8V25.6C28.8 26.4487 28.4629 27.2626 27.8627 27.8627C27.2626 28.4629 26.4487 28.8 25.6 28.8H24C23.1513 28.8 22.3374 28.4629 21.7373 27.8627C21.1371 27.2626 20.8 26.4487 20.8 25.6C20.8 24.7513 21.1371 23.9374 21.7373 23.3373C22.3374 22.7371 23.1513 22.4 24 22.4C24.8837 22.4 25.6 21.6837 25.6 20.8C25.6 19.9163 24.8837 19.2 24 19.2Z" fill="white"/>
</svg>
