<svg width="32" height="32" viewBox="0 0 32 32" fill="none" xmlns="http://www.w3.org/2000/svg">
<path fill-rule="evenodd" clip-rule="evenodd" d="M17.1507 4.37947V25.1078H21.4319V28.2323H6.7975V25.1078H11.0787V4.37947H6.98472L6.22935 9.88702H2.81305V6.81909C2.81305 4.50834 2.68423 2.91371 2.46137 1.96469L2 0L4.08325 0.547691C4.79687 0.735304 6.20309 0.858714 8.43473 0.858714H19.7947C22.0263 0.858714 23.4325 0.735304 24.1462 0.547691L26.2294 0L25.768 1.96469C25.5452 2.91371 25.4164 4.50834 25.4164 6.81909V9.88702H22.0001L21.2447 4.37947H17.1507Z" fill="white"/>
<path fill-rule="evenodd" clip-rule="evenodd" d="M25.7039 5.78654C25.508 5.79601 25.3037 5.804 25.0912 5.81052C24.6227 5.82488 24.114 5.83207 23.5653 5.83207H12.2053C11.6565 5.83207 11.1479 5.82488 10.6794 5.81052C10.4669 5.804 10.2626 5.79601 10.0666 5.78654C9.62514 5.7652 9.22554 5.73637 8.86783 5.70004C8.31017 5.6434 7.85432 5.56854 7.50027 5.47546C7.58468 5.83492 7.65509 6.26276 7.71148 6.75899C7.81124 7.63677 7.86717 8.72852 7.87926 10.0343C7.88093 10.2144 7.88176 10.3985 7.88176 10.5868V12.4491H8.85668L9.4925 7.8132C9.5345 7.3813 9.76381 7.10989 10.1804 6.99898C10.3244 6.96066 10.4907 6.9415 10.6794 6.9415H16.1474V29.6057C16.1474 29.9226 15.9496 30.0811 15.554 30.0811H11.8662V30.7943H23.9044V30.0811H20.2166C19.821 30.0811 19.6232 29.9226 19.6232 29.6057V6.9415H25.0912C25.2799 6.9415 25.4462 6.96066 25.5902 6.99898C26.0068 7.10989 26.2361 7.3813 26.2781 7.8132L26.9139 12.4491H27.8888V10.5868C27.8888 10.3985 27.8897 10.2144 27.8913 10.0343C27.9034 8.72853 27.9593 7.63677 28.0591 6.75899C28.1155 6.26276 28.1859 5.83492 28.2703 5.47546C27.9163 5.56854 27.4604 5.6434 26.9028 5.70004C26.545 5.73637 26.1454 5.7652 25.7039 5.78654ZM20.9213 8.14716V28.8755H25.2025V32H10.5681V28.8755H14.8493V8.14716H10.7553L9.99994 13.6547H6.58363V10.5868C6.58363 8.27603 6.45482 6.6814 6.23196 5.73238L5.77059 3.76769L7.85383 4.31538C8.56746 4.503 9.97368 4.6264 12.2053 4.6264H23.5653C25.7969 4.6264 27.2031 4.503 27.9168 4.31538L30 3.76769L29.5386 5.73238C29.3158 6.6814 29.187 8.27603 29.187 10.5868V13.6547H25.7706L25.0153 8.14716H20.9213Z" fill="white"/>
</svg>
