<svg width="32" height="32" viewBox="0 0 32 32" fill="none" xmlns="http://www.w3.org/2000/svg">
<path d="M3.06677e-07 13.7675C3.06677e-07 14.384 0.499781 14.8838 1.11628 14.8838C1.73278 14.8838 2.23256 14.384 2.23256 13.7675H3.06677e-07ZM2.71406 21.3975C2.47814 20.8279 1.82515 20.5574 1.25558 20.7934C0.686006 21.0293 0.415524 21.6822 0.651446 22.2518L2.71406 21.3975ZM18.578 30.541L19.3849 29.178L17.4635 28.0407L16.6567 29.4039L18.578 30.541ZM12.6151 29.178L13.422 30.541L15.3432 29.4039L14.5363 28.0407L12.6151 29.178ZM16.6567 29.4039C16.3699 29.8885 15.6301 29.8885 15.3432 29.4039L13.422 30.541C14.5734 32.4863 17.4266 32.4863 18.578 30.541L16.6567 29.4039ZM13.7674 2.23256H18.2326V3.06684e-07H13.7674V2.23256ZM29.7674 13.7675V15.2558H32V13.7675H29.7674ZM9.75256 25.2899C7.884 25.2576 6.9049 25.1388 6.13744 24.8209L5.28308 26.8835C6.48118 27.3797 7.84578 27.4899 9.7141 27.522L9.75256 25.2899ZM0.651446 22.2518C1.52004 24.3488 3.1861 26.0149 5.28308 26.8835L6.13744 24.8209C4.58749 24.1788 3.35607 22.9475 2.71406 21.3975L0.651446 22.2518ZM29.7674 15.2558C29.7674 17.0048 29.7668 18.2607 29.6993 19.2517C29.6323 20.2327 29.5034 20.8724 29.286 21.3975L31.3485 22.2518C31.6976 21.4094 31.8519 20.4984 31.9266 19.4037C32.0006 18.3191 32 16.9743 32 15.2558H29.7674ZM22.2858 27.522C24.1542 27.4899 25.5189 27.3797 26.7169 26.8835L25.8625 24.8209C25.0951 25.1388 24.1159 25.2576 22.2474 25.2899L22.2858 27.522ZM29.286 21.3975C28.6439 22.9475 27.4125 24.1788 25.8625 24.8209L26.7169 26.8835C28.8138 26.0149 30.4799 24.3488 31.3485 22.2518L29.286 21.3975ZM18.2326 2.23256C20.6902 2.23256 22.4551 2.23374 23.8317 2.36463C25.1917 2.49394 26.0571 2.74193 26.7469 3.1647L27.9135 1.26113C26.8138 0.587269 25.5664 0.286944 24.043 0.142095C22.5362 -0.00117557 20.647 3.06684e-07 18.2326 3.06684e-07V2.23256ZM32 13.7675C32 11.353 32.0012 9.46384 31.8579 7.95702C31.713 6.43359 31.4127 5.18617 30.7389 4.08653L28.8353 5.25304C29.2581 5.94295 29.5061 6.80834 29.6354 8.16834C29.7663 9.54495 29.7674 11.3098 29.7674 13.7675H32ZM26.7469 3.1647C27.5981 3.68629 28.3137 4.4019 28.8353 5.25304L30.7389 4.08653C30.0333 2.93499 29.0651 1.9668 27.9135 1.26113L26.7469 3.1647ZM13.7674 3.06684e-07C11.353 3.06684e-07 9.46381 -0.00117557 7.957 0.142095C6.43358 0.286944 5.18616 0.587269 4.08652 1.26113L5.25303 3.1647C5.94294 2.74193 6.80832 2.49394 8.16832 2.36463C9.54493 2.23374 11.3098 2.23256 13.7674 2.23256V3.06684e-07ZM2.23256 13.7675C2.23256 11.3098 2.23373 9.54495 2.36462 8.16834C2.49393 6.80834 2.74192 5.94295 3.1647 5.25304L1.26113 4.08653C0.587267 5.18617 0.286943 6.43359 0.142095 7.95702C-0.00117556 9.46384 3.06677e-07 11.353 3.06677e-07 13.7675H2.23256ZM4.08652 1.26113C2.93498 1.9668 1.96679 2.93499 1.26113 4.08653L3.1647 5.25304C3.68628 4.4019 4.40189 3.68629 5.25303 3.1647L4.08652 1.26113ZM14.5363 28.0407C14.2342 27.5302 13.969 27.0797 13.711 26.7257C13.4393 26.353 13.1277 26.0174 12.6956 25.766L11.5732 27.696C11.6437 27.7369 11.7399 27.8118 11.9068 28.0407C12.0874 28.2887 12.2915 28.6311 12.6151 29.178L14.5363 28.0407ZM9.7141 27.522C10.3676 27.5333 10.7816 27.5416 11.0971 27.5765C11.392 27.6092 11.5063 27.657 11.5732 27.696L12.6956 25.766C12.2599 25.5125 11.8065 25.4088 11.3428 25.3575C10.8999 25.3085 10.3647 25.3005 9.75256 25.2899L9.7141 27.522ZM19.3849 29.178C19.7084 28.6311 19.9125 28.2887 20.0932 28.0407C20.26 27.8118 20.3562 27.7369 20.4267 27.696L19.3043 25.766C18.8723 26.0174 18.5606 26.353 18.289 26.7257C18.031 27.0797 17.7658 27.5302 17.4635 28.0407L19.3849 29.178ZM22.2474 25.2899C21.6353 25.3005 21.1001 25.3085 20.6571 25.3575C20.1935 25.4088 19.7401 25.5125 19.3043 25.766L20.4267 27.696C20.4937 27.657 20.608 27.6092 20.9028 27.5765C21.2184 27.5416 21.6323 27.5333 22.2858 27.522L22.2474 25.2899Z" fill="white"/>
<path fill-rule="evenodd" clip-rule="evenodd" d="M8.38095 14.4762C8.38095 13.6346 9.06319 12.9524 9.90476 12.9524H9.91848C10.7601 12.9524 11.4423 13.6346 11.4423 14.4762C11.4423 15.3178 10.7601 16 9.91848 16H9.90476C9.06319 16 8.38095 15.3178 8.38095 14.4762ZM14.4625 14.4762C14.4625 13.6346 15.1447 12.9524 15.9863 12.9524H16C16.8416 12.9524 17.5238 13.6346 17.5238 14.4762C17.5238 15.3178 16.8416 16 16 16H15.9863C15.1447 16 14.4625 15.3178 14.4625 14.4762ZM20.5577 14.4762C20.5577 13.6346 21.2399 12.9524 22.0815 12.9524H22.0952C22.9368 12.9524 23.619 13.6346 23.619 14.4762C23.619 15.3178 22.9368 16 22.0952 16H22.0815C21.2399 16 20.5577 15.3178 20.5577 14.4762Z" fill="white"/>
</svg>
