<svg width="32" height="32" viewBox="0 0 32 32" fill="none" xmlns="http://www.w3.org/2000/svg">
<path d="M16 32C18.2075 32 19.9981 30.2094 19.9981 28H12.0019C12.0019 30.2094 13.7925 32 16 32ZM29.4618 22.6431C28.2543 21.3456 25.995 19.3937 25.995 13C25.995 8.14375 22.59 4.25625 17.9987 3.3025V2C17.9987 0.895625 17.1037 0 16 0C14.8963 0 14.0013 0.895625 14.0013 2V3.3025C9.41002 4.25625 6.00503 8.14375 6.00503 13C6.00503 19.3937 3.74566 21.3456 2.53817 22.6431C2.16317 23.0463 1.99692 23.5281 2.00004 24C2.00692 25.025 2.81129 26 4.00629 26H27.9937C29.1887 26 29.9937 25.025 30 24C30.0031 23.5281 29.8368 23.0456 29.4618 22.6431Z" fill="white"/>
</svg>
