<svg width="32" height="32" viewBox="0 0 32 32" fill="none" xmlns="http://www.w3.org/2000/svg">
<path d="M26.5704 21.4719C27.1432 22.0749 27.1432 23.0526 26.5704 23.6556L17.0371 31.5477C16.4643 32.1508 15.5357 32.1508 14.9629 31.5477L5.42958 23.6556C4.85681 23.0526 4.85681 22.0749 5.42958 21.4719C6.00235 20.8689 6.93099 20.8689 7.50376 21.4719L14.625 27.1716V1.37254C14.625 1.00852 14.7699 0.659411 15.0277 0.402009C15.5647 -0.134003 16.4353 -0.134003 16.9723 0.402009C17.2301 0.659411 17.375 1.00852 17.375 1.37254L17.375 27.1716L24.4962 21.4719C25.069 20.8689 25.9977 20.8689 26.5704 21.4719Z" fill="white"/>
</svg>
