<svg width="32" height="32" viewBox="0 0 32 32" fill="none" xmlns="http://www.w3.org/2000/svg">
<path fill-rule="evenodd" clip-rule="evenodd" d="M7.28173 0C7.80153 0 8.22291 0.421379 8.22291 0.941176V3.17028H19.0217V0.941176C19.0217 0.421379 19.4431 0 19.9628 0C20.4826 0 20.904 0.421379 20.904 0.941176V3.17028H23.1331C24.2236 3.17028 25.2693 3.60345 26.0404 4.3745C26.8114 5.14554 27.2446 6.19131 27.2446 7.28173V13.6223C27.2446 14.1421 26.8232 14.5635 26.3034 14.5635L1.88235 14.5635V26.3034C1.88235 26.8946 2.1172 27.4616 2.53524 27.8796C2.95328 28.2977 3.52026 28.5325 4.11145 28.5325H14.8825C15.4023 28.5325 15.8237 28.9539 15.8237 29.4737C15.8237 29.9935 15.4023 30.4149 14.8825 30.4149H4.11145C3.02103 30.4149 1.97526 29.9817 1.20422 29.2106C0.43317 28.4396 0 27.3938 0 26.3034V7.28173C0 6.19131 0.43317 5.14554 1.20422 4.3745C1.97526 3.60345 3.02103 3.17028 4.11145 3.17028H6.34056V0.941176C6.34056 0.421379 6.76194 0 7.28173 0ZM6.34056 5.05263H4.11145C3.52026 5.05263 2.95328 5.28748 2.53524 5.70552C2.1172 6.12356 1.88235 6.69054 1.88235 7.28173V12.6811L25.3622 12.6811V7.28173C25.3622 6.69054 25.1274 6.12356 24.7093 5.70552C24.2913 5.28748 23.7243 5.05263 23.1331 5.05263H20.904V7.28173C20.904 7.80153 20.4826 8.22291 19.9628 8.22291C19.4431 8.22291 19.0217 7.80153 19.0217 7.28173V5.05263H8.22291V7.28173C8.22291 7.80153 7.80153 8.22291 7.28173 8.22291C6.76194 8.22291 6.34056 7.80153 6.34056 7.28173V5.05263ZM19.5693 19.5693C20.9349 18.2037 22.787 17.4365 24.7183 17.4365C26.6495 17.4365 28.5016 18.2037 29.8672 19.5693C31.2328 20.9349 32 22.787 32 24.7183C32 26.6495 31.2328 28.5016 29.8672 29.8672C28.5016 31.2328 26.6495 32 24.7183 32C22.787 32 20.9349 31.2328 19.5693 29.8672C18.2037 28.5016 17.4365 26.6495 17.4365 24.7183C17.4365 22.787 18.2037 20.9349 19.5693 19.5693ZM24.7183 19.3189C23.2863 19.3189 21.9129 19.8877 20.9003 20.9003C19.8877 21.9129 19.3189 23.2863 19.3189 24.7183C19.3189 26.1503 19.8877 27.5236 20.9003 28.5362C21.9129 29.5488 23.2863 30.1176 24.7183 30.1176C26.1503 30.1176 27.5236 29.5488 28.5362 28.5362C29.5488 27.5236 30.1176 26.1503 30.1176 24.7183C30.1176 23.2863 29.5488 21.9129 28.5362 20.9003C27.5236 19.8877 26.1503 19.3189 24.7183 19.3189ZM24.7183 21.393C25.2381 21.393 25.6594 21.8144 25.6594 22.3342V24.3284L26.9689 25.6379C27.3365 26.0054 27.3365 26.6014 26.9689 26.9689C26.6014 27.3365 26.0054 27.3365 25.6379 26.9689L24.0528 25.3838C23.8762 25.2073 23.7771 24.9679 23.7771 24.7183V22.3342C23.7771 21.8144 24.1985 21.393 24.7183 21.393Z" fill="white"/>
</svg>
