<svg width="32" height="32" viewBox="0 0 32 32" fill="none" xmlns="http://www.w3.org/2000/svg">
<path fill-rule="evenodd" clip-rule="evenodd" d="M2.66667 21.8947C3.58714 21.8947 4.33333 22.6488 4.33333 23.5789V26.9474C4.33333 27.394 4.50893 27.8224 4.82149 28.1383C5.13405 28.4541 5.55797 28.6316 6 28.6316H26C26.442 28.6316 26.8659 28.4541 27.1785 28.1383C27.4911 27.8224 27.6667 27.394 27.6667 26.9474V23.5789C27.6667 22.6488 28.4129 21.8947 29.3333 21.8947C30.2538 21.8947 31 22.6488 31 23.5789V26.9474C31 28.2874 30.4732 29.5726 29.5355 30.5201C28.5979 31.4677 27.3261 32 26 32H6C4.67392 32 3.40215 31.4677 2.46447 30.5201C1.52678 29.5726 1 28.2874 1 26.9474V23.5789C1 22.6488 1.74619 21.8947 2.66667 21.8947Z" fill="white"/>
<path fill-rule="evenodd" clip-rule="evenodd" d="M6.48816 12.2828C7.13903 11.625 8.1943 11.625 8.84518 12.2828L16 19.5129L23.1548 12.2828C23.8057 11.625 24.861 11.625 25.5118 12.2828C26.1627 12.9405 26.1627 14.0069 25.5118 14.6646L17.1785 23.0857C16.5276 23.7434 15.4724 23.7434 14.8215 23.0857L6.48816 14.6646C5.83728 14.0069 5.83728 12.9405 6.48816 12.2828Z" fill="white"/>
<path fill-rule="evenodd" clip-rule="evenodd" d="M16 0C16.9205 0 17.6667 0.754047 17.6667 1.68421V21.8947C17.6667 22.8249 16.9205 23.5789 16 23.5789C15.0795 23.5789 14.3333 22.8249 14.3333 21.8947V1.68421C14.3333 0.754047 15.0795 0 16 0Z" fill="white"/>
</svg>
