<svg width="32" height="32" viewBox="0 0 32 32" fill="none" xmlns="http://www.w3.org/2000/svg">
<path d="M11.7607 24.0345C10.7738 24.0345 10.071 23.8197 9.65234 23.3899C9.26355 22.9602 9.06916 22.3002 9.06916 21.4101V21.0878C9.06916 19.3074 9.5028 17.8187 10.3701 16.6216C11.2374 15.4245 12.6729 14.0892 14.6766 12.6158C15.8131 11.7871 16.5308 11.2192 16.8299 10.9122C17.129 10.6053 17.2785 10.1602 17.2785 9.57698C17.2785 8.34916 16.2318 7.73525 14.1383 7.73525C13.2112 7.73525 12.2393 7.91942 11.2224 8.28777C10.2355 8.65612 9.33832 9.11655 8.53084 9.66906C8.17196 9.94532 7.84299 10.0835 7.54393 10.0835C7.21495 10.0835 6.91589 9.85324 6.64673 9.39281L4.40374 5.43309C4.13458 4.94197 4 4.55827 4 4.28201C4 3.94437 4.17944 3.63741 4.53832 3.36115C6.12336 2.25612 7.78318 1.42734 9.51776 0.874819C11.2822 0.291606 13.3458 0 15.7084 0C19.3869 0 22.3477 0.828777 24.5907 2.48633C26.8636 4.14389 28 6.47674 28 9.48489C28 11.3266 27.5813 12.846 26.7439 14.0432C25.9365 15.2096 24.6804 16.33 22.9757 17.4043C21.8393 18.1103 21.0318 18.7549 20.5533 19.3381C20.0748 19.8906 19.8355 20.5046 19.8355 21.1799V21.4101C19.8355 22.3002 19.6262 22.9602 19.2075 23.3899C18.8187 23.8197 18.1159 24.0345 17.0991 24.0345H11.7607ZM12.4785 32C10.086 32 8.88972 31.1559 8.88972 29.4676V28.3165C8.88972 26.6283 10.086 25.7842 12.4785 25.7842H16.3813C18.8037 25.7842 20.015 26.6283 20.015 28.3165V29.4676C20.015 31.1559 18.8037 32 16.3813 32H12.4785Z" fill="white"/>
</svg>
