<svg width="32" height="32" viewBox="0 0 32 32" fill="none" xmlns="http://www.w3.org/2000/svg">
<path fill-rule="evenodd" clip-rule="evenodd" d="M22.592 9.41082C23.2863 10.1051 23.2863 11.2308 22.592 11.9252L11.9248 22.5926C11.2305 23.2869 10.1048 23.2869 9.41052 22.5926C8.71622 21.8983 8.71622 20.7726 9.41052 20.0783L20.0777 9.41082C20.7721 8.7165 21.8977 8.7165 22.592 9.41082Z" fill="white"/>
<path fill-rule="evenodd" clip-rule="evenodd" d="M16.3181 5.6241L13.7329 8.33838C13.0557 9.04939 11.9303 9.07678 11.2194 8.39956C10.5084 7.72235 10.481 6.59697 11.1582 5.88597L13.7592 3.1551L13.7895 3.12405C15.7902 1.12355 18.5037 -0.000200048 21.333 2.67116e-08C24.1623 0.000200101 26.8756 1.12434 28.876 3.12512C30.8765 5.12589 32.0002 7.83942 32 10.6687C31.9998 13.4981 30.8757 16.2114 28.875 18.2119L28.8453 18.2408L26.1181 20.8437C25.4078 21.5216 24.2824 21.4953 23.6045 20.785C22.9266 20.0747 22.9529 18.9493 23.6632 18.2714L26.3746 15.6836C27.6999 14.3512 28.4441 12.5482 28.4443 10.6685C28.4444 8.78223 27.6952 6.97316 26.3615 5.63928C25.0279 4.30539 23.219 3.55595 21.3327 3.55582C19.4533 3.55568 17.6506 4.29945 16.3181 5.6241Z" fill="white"/>
<path fill-rule="evenodd" clip-rule="evenodd" d="M8.39451 11.2147C9.07447 11.9231 9.05145 13.0485 8.34309 13.7285L5.64346 16.32C4.98343 16.9749 4.45921 17.7538 4.10093 18.6119C3.74105 19.4739 3.55574 20.3987 3.55574 21.3328C3.55574 22.2668 3.74105 23.1916 4.10093 24.0536C4.46081 24.9156 4.98811 25.6976 5.6523 26.3543C7.00623 27.6932 8.83359 28.4442 10.7377 28.4442C12.6272 28.4442 14.441 27.7048 15.7917 26.3852L18.2426 23.6941C18.9037 22.9681 20.0282 22.9156 20.7541 23.5768C21.4801 24.238 21.5326 25.3624 20.8714 26.0884L18.3876 28.8157C18.3667 28.8386 18.3453 28.861 18.3232 28.8827C16.3037 30.8799 13.578 32 10.7377 32C7.89746 32 5.1718 30.8799 3.15222 28.8828C2.1536 27.8953 1.36078 26.7196 0.819698 25.4236C0.278611 24.1276 0 22.7372 0 21.3328C0 19.9284 0.278611 18.5379 0.819698 17.2419C1.36078 15.9459 2.1536 14.7702 3.15222 13.7827L3.17109 13.7644L5.88075 11.1633C6.5891 10.4833 7.71456 10.5063 8.39451 11.2147Z" fill="white"/>
</svg>
