<svg width="32" height="32" viewBox="0 0 32 32" fill="none" xmlns="http://www.w3.org/2000/svg">
<path d="M18.1053 0C19.5005 0 20.6316 1.13107 20.6316 2.52626L20.6316 3.34375C20.9852 3.47316 21.3328 3.61732 21.6737 3.77581L22.2523 3.19765C23.2389 2.21106 24.8385 2.21106 25.825 3.19765L28.8024 6.17493C29.789 7.16152 29.789 8.76111 28.8026 9.74748L28.2242 10.3263C28.3828 10.6674 28.527 11.0152 28.6565 11.3688L29.4737 11.3684C30.8689 11.3684 32 12.4995 32 13.8947V18.1053C32 19.5005 30.8689 20.6316 29.4737 20.6316L28.6562 20.6316C28.5268 20.9852 28.3827 21.3328 28.2242 21.6737L28.8024 22.2523C29.789 23.2389 29.789 24.8385 28.8024 25.8251L25.825 28.8023C24.8385 29.7889 23.2389 29.7889 22.2525 28.8026L21.6737 28.2242C21.3328 28.3827 20.9852 28.5268 20.6316 28.6562L20.6316 29.4737C20.6316 30.8689 19.5005 32 18.1053 32H13.8947C12.4995 32 11.3684 30.8689 11.3684 29.4732L11.3688 28.6564C11.0151 28.527 10.6674 28.3828 10.3263 28.2242L9.74769 28.8023C8.7611 29.7889 7.16155 29.7889 6.17496 28.8023L3.19763 25.8251C2.21104 24.8385 2.21104 23.2389 3.19742 22.2525L3.7758 21.6737C3.61731 21.3328 3.47316 20.9852 3.34375 20.6316L2.52632 20.6316C1.13107 20.6316 0 19.5005 0 18.1053V13.8947C0 12.4995 1.13109 11.3684 2.52678 11.3684L3.34354 11.3688C3.473 11.0152 3.61723 10.6674 3.7758 10.3263L3.19763 9.74769C2.21104 8.7611 2.21104 7.16152 3.19763 6.17493L6.17496 3.19765C7.16155 2.21106 8.76111 2.21106 9.74748 3.19743L10.3263 3.77581C10.5537 3.6701 10.7841 3.57077 11.0172 3.47794L11.3688 3.34357L11.3684 2.52632C11.3684 1.13107 12.4995 0 13.8947 0H18.1053ZM18.1053 1.68421H13.8947C13.4297 1.68421 13.0526 2.06124 13.0526 2.52588L13.0537 4.56458L12.4636 4.74988C11.8018 4.95769 11.161 5.22363 10.5477 5.54414L9.99974 5.8305L8.55679 4.38856C8.22793 4.05969 7.69471 4.05969 7.36585 4.38856L4.38857 7.36585C4.05971 7.69471 4.0597 8.22791 4.38877 8.55699L5.83049 9.99973L5.54415 10.5477C5.22364 11.161 4.9577 11.8018 4.7499 12.4636L4.56456 13.0537L2.52632 13.0526C2.06123 13.0526 1.68421 13.4297 1.68421 13.8947V18.1053C1.68421 18.5703 2.06123 18.9474 2.52637 18.9474L4.56492 18.9475L4.75015 19.5372C4.95792 20.1987 5.22377 20.8393 5.54415 21.4523L5.83049 22.0003L4.38857 23.4432C4.05971 23.7721 4.05971 24.3053 4.38857 24.6341L7.36585 27.6114C7.69471 27.9403 8.22793 27.9403 8.557 27.6112L9.99974 26.1695L10.5477 26.4559C11.161 26.7764 11.8018 27.0423 12.4636 27.2501L13.0537 27.4354L13.0526 29.4737C13.0526 29.9388 13.4297 30.3158 13.8947 30.3158H18.1053C18.5703 30.3158 18.9474 29.9388 18.9474 29.4736L18.9475 27.4351L19.5372 27.2499C20.1987 27.0421 20.8393 26.7762 21.4523 26.4559L22.0003 26.1695L23.4432 27.6114C23.7721 27.9403 24.3053 27.9403 24.6341 27.6114L27.6114 24.6341C27.9403 24.3053 27.9403 23.7721 27.6112 23.443L26.1695 22.0003L26.4558 21.4523C26.7762 20.8393 27.0421 20.1987 27.2498 19.5372L27.4351 18.9475L29.4737 18.9474C29.9388 18.9474 30.3158 18.5703 30.3158 18.1053V13.8947C30.3158 13.4297 29.9388 13.0526 29.4741 13.0526L27.4354 13.0537L27.2501 12.4636C27.0423 11.8018 26.7764 11.161 26.4558 10.5477L26.1695 9.99973L27.6114 8.55677C27.9403 8.22791 27.9403 7.69471 27.6114 7.36585L24.6341 4.38856C24.3053 4.05969 23.7721 4.0597 23.443 4.38877L22.0003 5.8305L21.4523 5.54414C20.8393 5.22376 20.1987 4.9579 19.5372 4.75013L18.9475 4.5649L18.9474 2.52632C18.9474 2.06123 18.5703 1.68421 18.1053 1.68421ZM16 10.1053C19.2556 10.1053 21.8947 12.7444 21.8947 16C21.8947 19.2556 19.2556 21.8947 16 21.8947C12.7444 21.8947 10.1053 19.2556 10.1053 16C10.1053 12.7444 12.7444 10.1053 16 10.1053ZM16 11.7895C13.6746 11.7895 11.7895 13.6746 11.7895 16C11.7895 18.3254 13.6746 20.2105 16 20.2105C18.3254 20.2105 20.2105 18.3254 20.2105 16C20.2105 13.6746 18.3254 11.7895 16 11.7895Z" fill="white"/>
</svg>
