<svg width="32" height="32" viewBox="0 0 32 32" fill="none" xmlns="http://www.w3.org/2000/svg">
<path d="M22.4 0H5.6C3.61178 0 2 1.59188 2 3.55556V28.4444C2 30.4081 3.61177 32 5.6 32H22.4C24.3882 32 26 30.4081 26 28.4444V26.6731C26 26.2662 25.7442 25.8862 25.3384 25.916C25.0589 25.9365 24.7795 26 24.5 26C24 26 23.6 26 23.6 26.5V28.4444C23.6 29.099 23.0627 29.6296 22.4 29.6296H5.6C4.93726 29.6296 4.4 29.099 4.4 28.4444V3.55556C4.4 2.901 4.93726 2.37037 5.6 2.37037H22.4C23.0627 2.37037 23.6 2.901 23.6 3.55556V8.5V8.93833C23.6 9.74682 24.5096 10.2211 25.1725 9.75822L25.5725 9.47891C25.8404 9.29186 26 8.98574 26 8.65902V3.55556C26 1.59188 24.3882 0 22.4 0Z" fill="white"/>
<path d="M28.7805 11.1988C29.6569 11.1988 30.2466 12.101 29.8984 12.9093L26.0289 21.8928C25.7914 22.4442 25.2507 22.801 24.6529 22.801H23.9849C23.3864 22.801 22.8452 22.4434 22.6081 21.8911L18.8147 13.0552C18.4379 12.1774 19.0783 11.1988 20.0296 11.1988C20.5599 11.1988 21.039 11.517 21.2469 12.0074L24.4172 19.4861L27.6622 11.9375C27.855 11.4892 28.2945 11.1988 28.7805 11.1988Z" fill="white"/>
<path d="M13.251 23C12.0745 23 11.0079 22.7459 10.0513 22.2376C9.10565 21.7182 8.35795 21.0055 7.80817 20.0994C7.26939 19.1823 7 18.1492 7 17C7 15.8508 7.26939 14.8232 7.80817 13.9171C8.35795 13 9.10565 12.2873 10.0513 11.779C11.0079 11.2597 12.08 11 13.2675 11C14.2681 11 15.1697 11.1768 15.9724 11.5304C16.429 11.7288 16.8441 11.976 17.2176 12.2718C17.71 12.6619 17.656 13.3906 17.1953 13.818C16.7067 14.2712 15.9519 14.2031 15.3899 13.8462C14.8033 13.4736 14.1398 13.2873 13.3994 13.2873C12.6847 13.2873 12.047 13.4475 11.4862 13.768C10.9254 14.0773 10.4856 14.5138 10.1667 15.0773C9.85885 15.6409 9.70491 16.2818 9.70491 17C9.70491 17.7182 9.85885 18.3591 10.1667 18.9227C10.4856 19.4862 10.9254 19.9282 11.4862 20.2486C12.047 20.558 12.6847 20.7127 13.3994 20.7127C14.1391 20.7127 14.8021 20.5245 15.3884 20.148C15.9514 19.7864 16.7104 19.7156 17.2013 20.171C17.6597 20.5962 17.7167 21.3204 17.2302 21.7128C16.8534 22.0167 16.4342 22.2689 15.9724 22.4696C15.1587 22.8232 14.2516 23 13.251 23Z" fill="white"/>
</svg>
