<svg width="32" height="32" viewBox="0 0 32 32" fill="none" xmlns="http://www.w3.org/2000/svg">
<path fill-rule="evenodd" clip-rule="evenodd" d="M21.3333 3.55556C20.3515 3.55556 19.5556 2.75962 19.5556 1.77778C19.5556 0.795938 20.3515 0 21.3333 0H30.2222C31.2041 0 32 0.795938 32 1.77778V10.6667C32 11.6485 31.2041 12.4444 30.2222 12.4444C29.2404 12.4444 28.4444 11.6485 28.4444 10.6667V6.06971L15.4793 19.0349C14.785 19.7291 13.6594 19.7291 12.9651 19.0349C12.2709 18.3406 12.2709 17.215 12.9651 16.5207L25.9303 3.55556H21.3333ZM1.5621 5.11765C2.56229 4.11746 3.91885 3.55556 5.33333 3.55556H16C16.9818 3.55556 17.7778 4.35149 17.7778 5.33333C17.7778 6.31517 16.9818 7.11111 16 7.11111H5.33333C4.86184 7.11111 4.40965 7.29841 4.07625 7.63181C3.74286 7.96521 3.55556 8.41739 3.55556 8.88889V26.6667C3.55556 27.1382 3.74286 27.5903 4.07625 27.9237C4.40965 28.2571 4.86184 28.4444 5.33333 28.4444H23.1111C23.5826 28.4444 24.0348 28.2571 24.3682 27.9237C24.7016 27.5903 24.8889 27.1382 24.8889 26.6667V16C24.8889 15.0182 25.6848 14.2222 26.6667 14.2222C27.6485 14.2222 28.4444 15.0182 28.4444 16V26.6667C28.4444 28.0812 27.8825 29.4377 26.8823 30.4379C25.8822 31.4381 24.5256 32 23.1111 32H5.33333C3.91884 32 2.56229 31.4381 1.5621 30.4379C0.561903 29.4377 0 28.0812 0 26.6667V8.88889C0 7.4744 0.561903 6.11785 1.5621 5.11765Z" fill="white"/>
</svg>
