<svg width="32" height="32" viewBox="0 0 32 32" fill="none" xmlns="http://www.w3.org/2000/svg">
<path fill-rule="evenodd" clip-rule="evenodd" d="M2.66667 21.8947C3.58714 21.8947 4.33333 22.6488 4.33333 23.5789V26.9474C4.33333 27.394 4.50893 27.8224 4.82149 28.1383C5.13405 28.4541 5.55797 28.6316 6 28.6316H26C26.442 28.6316 26.8659 28.4541 27.1785 28.1383C27.4911 27.8224 27.6667 27.394 27.6667 26.9474V23.5789C27.6667 22.6488 28.4129 21.8947 29.3333 21.8947C30.2538 21.8947 31 22.6488 31 23.5789V26.9474C31 28.2874 30.4732 29.5726 29.5355 30.5201C28.5979 31.4677 27.3261 32 26 32H6C4.67392 32 3.40215 31.4677 2.46447 30.5201C1.52678 29.5726 1 28.2874 1 26.9474V23.5789C1 22.6488 1.74619 21.8947 2.66667 21.8947Z" fill="white"/>
<path fill-rule="evenodd" clip-rule="evenodd" d="M25.5118 11.2962C24.861 11.9539 23.8057 11.9539 23.1548 11.2962L16 4.06604L8.84518 11.2962C8.19431 11.9539 7.13903 11.9539 6.48816 11.2962C5.83728 10.6385 5.83728 9.57207 6.48816 8.91435L14.8215 0.493294C15.4724 -0.164431 16.5276 -0.164431 17.1785 0.493294L25.5118 8.91435C26.1627 9.57207 26.1627 10.6385 25.5118 11.2962Z" fill="white"/>
<path fill-rule="evenodd" clip-rule="evenodd" d="M16 23.5789C15.0795 23.5789 14.3333 22.8249 14.3333 21.8947V1.68421C14.3333 0.754046 15.0795 1.93715e-07 16 1.93715e-07C16.9205 1.93715e-07 17.6667 0.754046 17.6667 1.68421V21.8947C17.6667 22.8249 16.9205 23.5789 16 23.5789Z" fill="white"/>
</svg>
