<svg width="32" height="32" viewBox="0 0 32 32" fill="none" xmlns="http://www.w3.org/2000/svg">
<path fill-rule="evenodd" clip-rule="evenodd" d="M15.2143 6.09524C16.95 6.09524 18.3571 4.73077 18.3571 3.04762C18.3571 1.36447 16.95 0 15.2143 0C13.4785 0 12.0714 1.36447 12.0714 3.04762C12.0714 4.73077 13.4785 6.09524 15.2143 6.09524ZM10.5 11.0476C10.5 9.99565 11.3208 9.14286 12.3333 9.14286H17.2222C18.2347 9.14286 19.0556 9.99565 19.0556 11.0476V27.5556C19.0556 27.9062 19.3292 28.1905 19.6667 28.1905C20.6792 28.1905 21.5 29.0433 21.5 30.0952C21.5 31.1472 20.6792 32 19.6667 32H12.3333C11.3208 32 10.5 31.1472 10.5 30.0952C10.5 29.0433 11.3208 28.1905 12.3333 28.1905C12.6708 28.1905 12.9444 27.9062 12.9444 27.5556V14.3721C12.9444 14.1316 12.8137 13.9118 12.6066 13.8042L11.5134 13.2363C10.8923 12.9137 10.5 12.2541 10.5 11.5327V11.0476Z" fill="white"/>
</svg>
